{"glyphs":{"0":{"ha":779,"x_min":14,"x_max":765,"o":"m 511 336 q 523 295 511 303 q 540 288 535 288 q 501 278 526 278 q 456 292 476 278 q 435 342 435 306 q 410 298 429 318 q 363 278 390 278 q 326 289 342 278 q 301 317 311 300 q 288 354 292 335 q 283 390 283 374 q 303 467 283 432 q 372 503 322 503 q 435 485 406 503 l 435 538 l 422 532 l 403 582 l 511 582 l 511 336 m 751 576 l 751 567 l 736 567 l 736 576 l 739 576 l 739 571 l 742 571 l 742 575 l 746 575 l 746 571 l 749 571 l 749 576 l 751 576 m 671 349 l 718 349 l 685 288 q 661 278 674 281 q 636 275 649 275 q 576 294 606 275 q 547 360 547 313 l 547 464 l 524 464 l 524 499 l 547 499 l 547 513 q 536 547 547 539 q 518 554 525 554 q 558 563 531 563 q 603 551 582 563 q 624 501 624 539 l 624 499 l 711 499 l 711 464 l 624 464 l 624 382 q 631 333 624 353 q 658 314 638 314 q 675 317 669 314 l 671 349 m 751 546 l 751 543 l 736 543 l 736 549 q 740 554 736 554 q 746 549 746 554 l 746 546 l 751 546 m 751 521 l 746 521 l 736 515 l 736 521 l 743 524 l 736 526 l 736 531 l 746 525 l 751 525 l 751 521 m 739 497 l 739 493 l 736 493 l 736 506 l 739 506 l 739 501 l 751 501 l 751 497 l 739 497 m 183 503 q 253 467 233 503 q 272 390 272 432 q 268 354 272 374 q 255 317 264 335 q 231 289 246 300 q 193 278 215 278 q 146 297 165 278 q 121 339 126 317 l 121 257 q 100 208 121 221 q 54 194 79 194 q 33 197 43 194 q 15 203 22 200 q 33 211 22 203 q 44 253 44 219 l 44 453 l 33 449 l 14 499 l 121 499 l 121 485 q 183 503 150 503 m 743 467 q 736 475 736 467 q 742 482 736 481 l 742 478 q 740 476 740 478 q 739 475 739 476 q 743 469 739 469 q 749 475 749 469 q 749 476 749 476 q 746 478 749 478 l 746 482 q 751 475 751 481 q 743 467 751 467 m 435 449 q 419 454 428 451 q 403 457 411 457 q 374 440 383 457 q 364 399 364 424 q 372 358 364 378 q 397 338 381 338 q 424 356 414 338 q 435 385 433 374 l 435 449 m 158 338 q 183 358 175 338 q 192 399 192 378 q 181 440 192 424 q 151 457 171 457 q 136 454 144 457 q 121 449 128 451 l 121 385 q 132 356 122 374 q 158 338 142 338 m 746 454 q 751 447 751 454 q 746 442 751 442 l 736 442 l 736 444 l 746 444 q 749 447 749 444 q 746 450 749 450 l 736 450 l 736 454 l 746 454 m 743 429 q 751 421 751 429 l 751 415 l 736 415 l 736 421 q 743 429 736 429 m 749 418 l 749 421 q 743 425 749 425 q 739 421 739 425 l 739 418 l 749 418 m 743 386 q 736 394 736 386 q 743 403 736 403 q 751 394 751 403 q 743 386 751 386 m 751 371 l 746 367 l 751 367 l 751 363 l 736 363 l 736 368 q 740 375 736 375 q 746 371 744 375 l 751 375 l 751 371 m 740 350 q 746 344 746 350 l 746 342 l 751 342 l 751 339 l 736 339 l 736 344 q 740 350 736 350 m 743 325 q 765 301 765 325 q 743 279 765 279 q 719 301 719 279 q 743 325 719 325 z "},"1":{"ha":779,"x_min":14,"x_max":765,"o":"m 511 336 q 523 295 511 303 q 540 288 535 288 q 501 278 526 278 q 456 292 476 278 q 435 342 435 306 q 410 298 429 318 q 363 278 390 278 q 326 289 342 278 q 301 317 311 300 q 288 354 292 335 q 283 390 283 374 q 303 467 283 432 q 372 503 322 503 q 435 485 406 503 l 435 538 l 422 532 l 403 582 l 511 582 l 511 336 m 751 576 l 751 567 l 736 567 l 736 576 l 739 576 l 739 571 l 742 571 l 742 575 l 746 575 l 746 571 l 749 571 l 749 576 l 751 576 m 671 349 l 718 349 l 685 288 q 661 278 674 281 q 636 275 649 275 q 576 294 606 275 q 547 360 547 313 l 547 464 l 524 464 l 524 499 l 547 499 l 547 513 q 536 547 547 539 q 518 554 525 554 q 558 563 531 563 q 603 551 582 563 q 624 501 624 539 l 624 499 l 711 499 l 711 464 l 624 464 l 624 382 q 631 333 624 353 q 658 314 638 314 q 675 317 669 314 l 671 349 m 751 546 l 751 543 l 736 543 l 736 549 q 740 554 736 554 q 746 549 746 554 l 746 546 l 751 546 m 751 521 l 746 521 l 736 515 l 736 521 l 743 524 l 736 526 l 736 531 l 746 525 l 751 525 l 751 521 m 739 497 l 739 493 l 736 493 l 736 506 l 739 506 l 739 501 l 751 501 l 751 497 l 739 497 m 183 503 q 253 467 233 503 q 272 390 272 432 q 268 354 272 374 q 255 317 264 335 q 231 289 246 300 q 193 278 215 278 q 146 297 165 278 q 121 339 126 317 l 121 257 q 100 208 121 221 q 54 194 79 194 q 33 197 43 194 q 15 203 22 200 q 33 211 22 203 q 44 253 44 219 l 44 453 l 33 449 l 14 499 l 121 499 l 121 485 q 183 503 150 503 m 743 467 q 736 475 736 467 q 742 482 736 481 l 742 478 q 740 476 740 478 q 739 475 739 476 q 743 469 739 469 q 749 475 749 469 q 749 476 749 476 q 746 478 749 478 l 746 482 q 751 475 751 481 q 743 467 751 467 m 435 449 q 419 454 428 451 q 403 457 411 457 q 374 440 383 457 q 364 399 364 424 q 372 358 364 378 q 397 338 381 338 q 424 356 414 338 q 435 385 433 374 l 435 449 m 158 338 q 183 358 175 338 q 192 399 192 378 q 181 440 192 424 q 151 457 171 457 q 136 454 144 457 q 121 449 128 451 l 121 385 q 132 356 122 374 q 158 338 142 338 m 746 454 q 751 447 751 454 q 746 442 751 442 l 736 442 l 736 444 l 746 444 q 749 447 749 444 q 746 450 749 450 l 736 450 l 736 454 l 746 454 m 743 429 q 751 421 751 429 l 751 415 l 736 415 l 736 421 q 743 429 736 429 m 749 418 l 749 421 q 743 425 749 425 q 739 421 739 425 l 739 418 l 749 418 m 743 386 q 736 394 736 386 q 743 403 736 403 q 751 394 751 403 q 743 386 751 386 m 751 371 l 746 367 l 751 367 l 751 363 l 736 363 l 736 368 q 740 375 736 375 q 746 371 744 375 l 751 375 l 751 371 m 740 350 q 746 344 746 350 l 746 342 l 751 342 l 751 339 l 736 339 l 736 344 q 740 350 736 350 m 743 325 q 765 301 765 325 q 743 279 765 279 q 719 301 719 279 q 743 325 719 325 z "},"2":{"ha":779,"x_min":14,"x_max":765,"o":"m 511 336 q 523 295 511 303 q 540 288 535 288 q 501 278 526 278 q 456 292 476 278 q 435 342 435 306 q 410 298 429 318 q 363 278 390 278 q 326 289 342 278 q 301 317 311 300 q 288 354 292 335 q 283 390 283 374 q 303 467 283 432 q 372 503 322 503 q 435 485 406 503 l 435 538 l 422 532 l 403 582 l 511 582 l 511 336 m 751 576 l 751 567 l 736 567 l 736 576 l 739 576 l 739 571 l 742 571 l 742 575 l 746 575 l 746 571 l 749 571 l 749 576 l 751 576 m 671 349 l 718 349 l 685 288 q 661 278 674 281 q 636 275 649 275 q 576 294 606 275 q 547 360 547 313 l 547 464 l 524 464 l 524 499 l 547 499 l 547 513 q 536 547 547 539 q 518 554 525 554 q 558 563 531 563 q 603 551 582 563 q 624 501 624 539 l 624 499 l 711 499 l 711 464 l 624 464 l 624 382 q 631 333 624 353 q 658 314 638 314 q 675 317 669 314 l 671 349 m 751 546 l 751 543 l 736 543 l 736 549 q 740 554 736 554 q 746 549 746 554 l 746 546 l 751 546 m 751 521 l 746 521 l 736 515 l 736 521 l 743 524 l 736 526 l 736 531 l 746 525 l 751 525 l 751 521 m 739 497 l 739 493 l 736 493 l 736 506 l 739 506 l 739 501 l 751 501 l 751 497 l 739 497 m 183 503 q 253 467 233 503 q 272 390 272 432 q 268 354 272 374 q 255 317 264 335 q 231 289 246 300 q 193 278 215 278 q 146 297 165 278 q 121 339 126 317 l 121 257 q 100 208 121 221 q 54 194 79 194 q 33 197 43 194 q 15 203 22 200 q 33 211 22 203 q 44 253 44 219 l 44 453 l 33 449 l 14 499 l 121 499 l 121 485 q 183 503 150 503 m 743 467 q 736 475 736 467 q 742 482 736 481 l 742 478 q 740 476 740 478 q 739 475 739 476 q 743 469 739 469 q 749 475 749 469 q 749 476 749 476 q 746 478 749 478 l 746 482 q 751 475 751 481 q 743 467 751 467 m 435 449 q 419 454 428 451 q 403 457 411 457 q 374 440 383 457 q 364 399 364 424 q 372 358 364 378 q 397 338 381 338 q 424 356 414 338 q 435 385 433 374 l 435 449 m 158 338 q 183 358 175 338 q 192 399 192 378 q 181 440 192 424 q 151 457 171 457 q 136 454 144 457 q 121 449 128 451 l 121 385 q 132 356 122 374 q 158 338 142 338 m 746 454 q 751 447 751 454 q 746 442 751 442 l 736 442 l 736 444 l 746 444 q 749 447 749 444 q 746 450 749 450 l 736 450 l 736 454 l 746 454 m 743 429 q 751 421 751 429 l 751 415 l 736 415 l 736 421 q 743 429 736 429 m 749 418 l 749 421 q 743 425 749 425 q 739 421 739 425 l 739 418 l 749 418 m 743 386 q 736 394 736 386 q 743 403 736 403 q 751 394 751 403 q 743 386 751 386 m 751 371 l 746 367 l 751 367 l 751 363 l 736 363 l 736 368 q 740 375 736 375 q 746 371 744 375 l 751 375 l 751 371 m 740 350 q 746 344 746 350 l 746 342 l 751 342 l 751 339 l 736 339 l 736 344 q 740 350 736 350 m 743 325 q 765 301 765 325 q 743 279 765 279 q 719 301 719 279 q 743 325 719 325 z "},"3":{"ha":779,"x_min":14,"x_max":765,"o":"m 511 336 q 523 295 511 303 q 540 288 535 288 q 501 278 526 278 q 456 292 476 278 q 435 342 435 306 q 410 298 429 318 q 363 278 390 278 q 326 289 342 278 q 301 317 311 300 q 288 354 292 335 q 283 390 283 374 q 303 467 283 432 q 372 503 322 503 q 435 485 406 503 l 435 538 l 422 532 l 403 582 l 511 582 l 511 336 m 751 576 l 751 567 l 736 567 l 736 576 l 739 576 l 739 571 l 742 571 l 742 575 l 746 575 l 746 571 l 749 571 l 749 576 l 751 576 m 671 349 l 718 349 l 685 288 q 661 278 674 281 q 636 275 649 275 q 576 294 606 275 q 547 360 547 313 l 547 464 l 524 464 l 524 499 l 547 499 l 547 513 q 536 547 547 539 q 518 554 525 554 q 558 563 531 563 q 603 551 582 563 q 624 501 624 539 l 624 499 l 711 499 l 711 464 l 624 464 l 624 382 q 631 333 624 353 q 658 314 638 314 q 675 317 669 314 l 671 349 m 751 546 l 751 543 l 736 543 l 736 549 q 740 554 736 554 q 746 549 746 554 l 746 546 l 751 546 m 751 521 l 746 521 l 736 515 l 736 521 l 743 524 l 736 526 l 736 531 l 746 525 l 751 525 l 751 521 m 739 497 l 739 493 l 736 493 l 736 506 l 739 506 l 739 501 l 751 501 l 751 497 l 739 497 m 183 503 q 253 467 233 503 q 272 390 272 432 q 268 354 272 374 q 255 317 264 335 q 231 289 246 300 q 193 278 215 278 q 146 297 165 278 q 121 339 126 317 l 121 257 q 100 208 121 221 q 54 194 79 194 q 33 197 43 194 q 15 203 22 200 q 33 211 22 203 q 44 253 44 219 l 44 453 l 33 449 l 14 499 l 121 499 l 121 485 q 183 503 150 503 m 743 467 q 736 475 736 467 q 742 482 736 481 l 742 478 q 740 476 740 478 q 739 475 739 476 q 743 469 739 469 q 749 475 749 469 q 749 476 749 476 q 746 478 749 478 l 746 482 q 751 475 751 481 q 743 467 751 467 m 435 449 q 419 454 428 451 q 403 457 411 457 q 374 440 383 457 q 364 399 364 424 q 372 358 364 378 q 397 338 381 338 q 424 356 414 338 q 435 385 433 374 l 435 449 m 158 338 q 183 358 175 338 q 192 399 192 378 q 181 440 192 424 q 151 457 171 457 q 136 454 144 457 q 121 449 128 451 l 121 385 q 132 356 122 374 q 158 338 142 338 m 746 454 q 751 447 751 454 q 746 442 751 442 l 736 442 l 736 444 l 746 444 q 749 447 749 444 q 746 450 749 450 l 736 450 l 736 454 l 746 454 m 743 429 q 751 421 751 429 l 751 415 l 736 415 l 736 421 q 743 429 736 429 m 749 418 l 749 421 q 743 425 749 425 q 739 421 739 425 l 739 418 l 749 418 m 743 386 q 736 394 736 386 q 743 403 736 403 q 751 394 751 403 q 743 386 751 386 m 751 371 l 746 367 l 751 367 l 751 363 l 736 363 l 736 368 q 740 375 736 375 q 746 371 744 375 l 751 375 l 751 371 m 740 350 q 746 344 746 350 l 746 342 l 751 342 l 751 339 l 736 339 l 736 344 q 740 350 736 350 m 743 325 q 765 301 765 325 q 743 279 765 279 q 719 301 719 279 q 743 325 719 325 z "},"4":{"ha":779,"x_min":14,"x_max":765,"o":"m 511 336 q 523 295 511 303 q 540 288 535 288 q 501 278 526 278 q 456 292 476 278 q 435 342 435 306 q 410 298 429 318 q 363 278 390 278 q 326 289 342 278 q 301 317 311 300 q 288 354 292 335 q 283 390 283 374 q 303 467 283 432 q 372 503 322 503 q 435 485 406 503 l 435 538 l 422 532 l 403 582 l 511 582 l 511 336 m 751 576 l 751 567 l 736 567 l 736 576 l 739 576 l 739 571 l 742 571 l 742 575 l 746 575 l 746 571 l 749 571 l 749 576 l 751 576 m 671 349 l 718 349 l 685 288 q 661 278 674 281 q 636 275 649 275 q 576 294 606 275 q 547 360 547 313 l 547 464 l 524 464 l 524 499 l 547 499 l 547 513 q 536 547 547 539 q 518 554 525 554 q 558 563 531 563 q 603 551 582 563 q 624 501 624 539 l 624 499 l 711 499 l 711 464 l 624 464 l 624 382 q 631 333 624 353 q 658 314 638 314 q 675 317 669 314 l 671 349 m 751 546 l 751 543 l 736 543 l 736 549 q 740 554 736 554 q 746 549 746 554 l 746 546 l 751 546 m 751 521 l 746 521 l 736 515 l 736 521 l 743 524 l 736 526 l 736 531 l 746 525 l 751 525 l 751 521 m 739 497 l 739 493 l 736 493 l 736 506 l 739 506 l 739 501 l 751 501 l 751 497 l 739 497 m 183 503 q 253 467 233 503 q 272 390 272 432 q 268 354 272 374 q 255 317 264 335 q 231 289 246 300 q 193 278 215 278 q 146 297 165 278 q 121 339 126 317 l 121 257 q 100 208 121 221 q 54 194 79 194 q 33 197 43 194 q 15 203 22 200 q 33 211 22 203 q 44 253 44 219 l 44 453 l 33 449 l 14 499 l 121 499 l 121 485 q 183 503 150 503 m 743 467 q 736 475 736 467 q 742 482 736 481 l 742 478 q 740 476 740 478 q 739 475 739 476 q 743 469 739 469 q 749 475 749 469 q 749 476 749 476 q 746 478 749 478 l 746 482 q 751 475 751 481 q 743 467 751 467 m 435 449 q 419 454 428 451 q 403 457 411 457 q 374 440 383 457 q 364 399 364 424 q 372 358 364 378 q 397 338 381 338 q 424 356 414 338 q 435 385 433 374 l 435 449 m 158 338 q 183 358 175 338 q 192 399 192 378 q 181 440 192 424 q 151 457 171 457 q 136 454 144 457 q 121 449 128 451 l 121 385 q 132 356 122 374 q 158 338 142 338 m 746 454 q 751 447 751 454 q 746 442 751 442 l 736 442 l 736 444 l 746 444 q 749 447 749 444 q 746 450 749 450 l 736 450 l 736 454 l 746 454 m 743 429 q 751 421 751 429 l 751 415 l 736 415 l 736 421 q 743 429 736 429 m 749 418 l 749 421 q 743 425 749 425 q 739 421 739 425 l 739 418 l 749 418 m 743 386 q 736 394 736 386 q 743 403 736 403 q 751 394 751 403 q 743 386 751 386 m 751 371 l 746 367 l 751 367 l 751 363 l 736 363 l 736 368 q 740 375 736 375 q 746 371 744 375 l 751 375 l 751 371 m 740 350 q 746 344 746 350 l 746 342 l 751 342 l 751 339 l 736 339 l 736 344 q 740 350 736 350 m 743 325 q 765 301 765 325 q 743 279 765 279 q 719 301 719 279 q 743 325 719 325 z "},"5":{"ha":779,"x_min":14,"x_max":765,"o":"m 511 336 q 523 295 511 303 q 540 288 535 288 q 501 278 526 278 q 456 292 476 278 q 435 342 435 306 q 410 298 429 318 q 363 278 390 278 q 326 289 342 278 q 301 317 311 300 q 288 354 292 335 q 283 390 283 374 q 303 467 283 432 q 372 503 322 503 q 435 485 406 503 l 435 538 l 422 532 l 403 582 l 511 582 l 511 336 m 751 576 l 751 567 l 736 567 l 736 576 l 739 576 l 739 571 l 742 571 l 742 575 l 746 575 l 746 571 l 749 571 l 749 576 l 751 576 m 671 349 l 718 349 l 685 288 q 661 278 674 281 q 636 275 649 275 q 576 294 606 275 q 547 360 547 313 l 547 464 l 524 464 l 524 499 l 547 499 l 547 513 q 536 547 547 539 q 518 554 525 554 q 558 563 531 563 q 603 551 582 563 q 624 501 624 539 l 624 499 l 711 499 l 711 464 l 624 464 l 624 382 q 631 333 624 353 q 658 314 638 314 q 675 317 669 314 l 671 349 m 751 546 l 751 543 l 736 543 l 736 549 q 740 554 736 554 q 746 549 746 554 l 746 546 l 751 546 m 751 521 l 746 521 l 736 515 l 736 521 l 743 524 l 736 526 l 736 531 l 746 525 l 751 525 l 751 521 m 739 497 l 739 493 l 736 493 l 736 506 l 739 506 l 739 501 l 751 501 l 751 497 l 739 497 m 183 503 q 253 467 233 503 q 272 390 272 432 q 268 354 272 374 q 255 317 264 335 q 231 289 246 300 q 193 278 215 278 q 146 297 165 278 q 121 339 126 317 l 121 257 q 100 208 121 221 q 54 194 79 194 q 33 197 43 194 q 15 203 22 200 q 33 211 22 203 q 44 253 44 219 l 44 453 l 33 449 l 14 499 l 121 499 l 121 485 q 183 503 150 503 m 743 467 q 736 475 736 467 q 742 482 736 481 l 742 478 q 740 476 740 478 q 739 475 739 476 q 743 469 739 469 q 749 475 749 469 q 749 476 749 476 q 746 478 749 478 l 746 482 q 751 475 751 481 q 743 467 751 467 m 435 449 q 419 454 428 451 q 403 457 411 457 q 374 440 383 457 q 364 399 364 424 q 372 358 364 378 q 397 338 381 338 q 424 356 414 338 q 435 385 433 374 l 435 449 m 158 338 q 183 358 175 338 q 192 399 192 378 q 181 440 192 424 q 151 457 171 457 q 136 454 144 457 q 121 449 128 451 l 121 385 q 132 356 122 374 q 158 338 142 338 m 746 454 q 751 447 751 454 q 746 442 751 442 l 736 442 l 736 444 l 746 444 q 749 447 749 444 q 746 450 749 450 l 736 450 l 736 454 l 746 454 m 743 429 q 751 421 751 429 l 751 415 l 736 415 l 736 421 q 743 429 736 429 m 749 418 l 749 421 q 743 425 749 425 q 739 421 739 425 l 739 418 l 749 418 m 743 386 q 736 394 736 386 q 743 403 736 403 q 751 394 751 403 q 743 386 751 386 m 751 371 l 746 367 l 751 367 l 751 363 l 736 363 l 736 368 q 740 375 736 375 q 746 371 744 375 l 751 375 l 751 371 m 740 350 q 746 344 746 350 l 746 342 l 751 342 l 751 339 l 736 339 l 736 344 q 740 350 736 350 m 743 325 q 765 301 765 325 q 743 279 765 279 q 719 301 719 279 q 743 325 719 325 z "},"6":{"ha":779,"x_min":14,"x_max":765,"o":"m 511 336 q 523 295 511 303 q 540 288 535 288 q 501 278 526 278 q 456 292 476 278 q 435 342 435 306 q 410 298 429 318 q 363 278 390 278 q 326 289 342 278 q 301 317 311 300 q 288 354 292 335 q 283 390 283 374 q 303 467 283 432 q 372 503 322 503 q 435 485 406 503 l 435 538 l 422 532 l 403 582 l 511 582 l 511 336 m 751 576 l 751 567 l 736 567 l 736 576 l 739 576 l 739 571 l 742 571 l 742 575 l 746 575 l 746 571 l 749 571 l 749 576 l 751 576 m 671 349 l 718 349 l 685 288 q 661 278 674 281 q 636 275 649 275 q 576 294 606 275 q 547 360 547 313 l 547 464 l 524 464 l 524 499 l 547 499 l 547 513 q 536 547 547 539 q 518 554 525 554 q 558 563 531 563 q 603 551 582 563 q 624 501 624 539 l 624 499 l 711 499 l 711 464 l 624 464 l 624 382 q 631 333 624 353 q 658 314 638 314 q 675 317 669 314 l 671 349 m 751 546 l 751 543 l 736 543 l 736 549 q 740 554 736 554 q 746 549 746 554 l 746 546 l 751 546 m 751 521 l 746 521 l 736 515 l 736 521 l 743 524 l 736 526 l 736 531 l 746 525 l 751 525 l 751 521 m 739 497 l 739 493 l 736 493 l 736 506 l 739 506 l 739 501 l 751 501 l 751 497 l 739 497 m 183 503 q 253 467 233 503 q 272 390 272 432 q 268 354 272 374 q 255 317 264 335 q 231 289 246 300 q 193 278 215 278 q 146 297 165 278 q 121 339 126 317 l 121 257 q 100 208 121 221 q 54 194 79 194 q 33 197 43 194 q 15 203 22 200 q 33 211 22 203 q 44 253 44 219 l 44 453 l 33 449 l 14 499 l 121 499 l 121 485 q 183 503 150 503 m 743 467 q 736 475 736 467 q 742 482 736 481 l 742 478 q 740 476 740 478 q 739 475 739 476 q 743 469 739 469 q 749 475 749 469 q 749 476 749 476 q 746 478 749 478 l 746 482 q 751 475 751 481 q 743 467 751 467 m 435 449 q 419 454 428 451 q 403 457 411 457 q 374 440 383 457 q 364 399 364 424 q 372 358 364 378 q 397 338 381 338 q 424 356 414 338 q 435 385 433 374 l 435 449 m 158 338 q 183 358 175 338 q 192 399 192 378 q 181 440 192 424 q 151 457 171 457 q 136 454 144 457 q 121 449 128 451 l 121 385 q 132 356 122 374 q 158 338 142 338 m 746 454 q 751 447 751 454 q 746 442 751 442 l 736 442 l 736 444 l 746 444 q 749 447 749 444 q 746 450 749 450 l 736 450 l 736 454 l 746 454 m 743 429 q 751 421 751 429 l 751 415 l 736 415 l 736 421 q 743 429 736 429 m 749 418 l 749 421 q 743 425 749 425 q 739 421 739 425 l 739 418 l 749 418 m 743 386 q 736 394 736 386 q 743 403 736 403 q 751 394 751 403 q 743 386 751 386 m 751 371 l 746 367 l 751 367 l 751 363 l 736 363 l 736 368 q 740 375 736 375 q 746 371 744 375 l 751 375 l 751 371 m 740 350 q 746 344 746 350 l 746 342 l 751 342 l 751 339 l 736 339 l 736 344 q 740 350 736 350 m 743 325 q 765 301 765 325 q 743 279 765 279 q 719 301 719 279 q 743 325 719 325 z "},"7":{"ha":779,"x_min":14,"x_max":765,"o":"m 511 336 q 523 295 511 303 q 540 288 535 288 q 501 278 526 278 q 456 292 476 278 q 435 342 435 306 q 410 298 429 318 q 363 278 390 278 q 326 289 342 278 q 301 317 311 300 q 288 354 292 335 q 283 390 283 374 q 303 467 283 432 q 372 503 322 503 q 435 485 406 503 l 435 538 l 422 532 l 403 582 l 511 582 l 511 336 m 751 576 l 751 567 l 736 567 l 736 576 l 739 576 l 739 571 l 742 571 l 742 575 l 746 575 l 746 571 l 749 571 l 749 576 l 751 576 m 671 349 l 718 349 l 685 288 q 661 278 674 281 q 636 275 649 275 q 576 294 606 275 q 547 360 547 313 l 547 464 l 524 464 l 524 499 l 547 499 l 547 513 q 536 547 547 539 q 518 554 525 554 q 558 563 531 563 q 603 551 582 563 q 624 501 624 539 l 624 499 l 711 499 l 711 464 l 624 464 l 624 382 q 631 333 624 353 q 658 314 638 314 q 675 317 669 314 l 671 349 m 751 546 l 751 543 l 736 543 l 736 549 q 740 554 736 554 q 746 549 746 554 l 746 546 l 751 546 m 751 521 l 746 521 l 736 515 l 736 521 l 743 524 l 736 526 l 736 531 l 746 525 l 751 525 l 751 521 m 739 497 l 739 493 l 736 493 l 736 506 l 739 506 l 739 501 l 751 501 l 751 497 l 739 497 m 183 503 q 253 467 233 503 q 272 390 272 432 q 268 354 272 374 q 255 317 264 335 q 231 289 246 300 q 193 278 215 278 q 146 297 165 278 q 121 339 126 317 l 121 257 q 100 208 121 221 q 54 194 79 194 q 33 197 43 194 q 15 203 22 200 q 33 211 22 203 q 44 253 44 219 l 44 453 l 33 449 l 14 499 l 121 499 l 121 485 q 183 503 150 503 m 743 467 q 736 475 736 467 q 742 482 736 481 l 742 478 q 740 476 740 478 q 739 475 739 476 q 743 469 739 469 q 749 475 749 469 q 749 476 749 476 q 746 478 749 478 l 746 482 q 751 475 751 481 q 743 467 751 467 m 435 449 q 419 454 428 451 q 403 457 411 457 q 374 440 383 457 q 364 399 364 424 q 372 358 364 378 q 397 338 381 338 q 424 356 414 338 q 435 385 433 374 l 435 449 m 158 338 q 183 358 175 338 q 192 399 192 378 q 181 440 192 424 q 151 457 171 457 q 136 454 144 457 q 121 449 128 451 l 121 385 q 132 356 122 374 q 158 338 142 338 m 746 454 q 751 447 751 454 q 746 442 751 442 l 736 442 l 736 444 l 746 444 q 749 447 749 444 q 746 450 749 450 l 736 450 l 736 454 l 746 454 m 743 429 q 751 421 751 429 l 751 415 l 736 415 l 736 421 q 743 429 736 429 m 749 418 l 749 421 q 743 425 749 425 q 739 421 739 425 l 739 418 l 749 418 m 743 386 q 736 394 736 386 q 743 403 736 403 q 751 394 751 403 q 743 386 751 386 m 751 371 l 746 367 l 751 367 l 751 363 l 736 363 l 736 368 q 740 375 736 375 q 746 371 744 375 l 751 375 l 751 371 m 740 350 q 746 344 746 350 l 746 342 l 751 342 l 751 339 l 736 339 l 736 344 q 740 350 736 350 m 743 325 q 765 301 765 325 q 743 279 765 279 q 719 301 719 279 q 743 325 719 325 z "},"8":{"ha":1029,"x_min":42,"x_max":990,"o":"m 901 465 q 892 453 893 457 q 892 447 890 450 q 900 441 894 444 q 913 429 906 438 q 924 413 913 419 q 947 402 936 407 q 964 390 958 397 q 958 372 969 383 q 958 300 958 340 q 956 219 957 260 q 953 140 956 178 q 947 72 951 101 q 948 61 947 67 q 949 49 949 56 q 943 10 951 22 q 924 0 935 -1 q 908 3 917 3 q 892 6 900 4 q 889 3 892 6 q 875 -6 881 3 q 865 -26 869 -15 q 856 -44 860 -36 q 844 -53 851 -53 q 832 -46 839 -53 q 817 -36 819 -42 q 813 -24 814 -31 q 803 -14 811 -15 q 784 -12 794 -12 q 765 -10 774 -12 q 753 1 756 -8 q 702 -5 728 -1 q 650 -4 676 -8 q 635 -4 642 -3 q 623 -6 629 -6 q 611 -6 617 -7 q 599 1 606 -6 q 585 4 592 4 q 576 -3 579 4 q 551 -10 564 -10 q 529 -7 540 -10 q 504 -6 518 -4 q 363 -4 428 -4 q 232 1 299 -4 q 220 -10 225 -1 q 211 -29 215 -19 q 203 -47 207 -39 q 193 -54 200 -54 q 179 -46 188 -54 q 164 -36 167 -42 q 160 -24 161 -31 q 148 -13 158 -14 q 126 -12 138 -12 q 106 -6 114 -11 q 100 15 99 -1 q 86 26 89 17 q 83 45 83 35 q 82 65 83 56 q 72 75 81 74 q 60 79 65 76 q 50 94 54 82 q 43 109 42 103 q 51 119 44 115 q 67 127 57 124 q 85 135 76 131 q 81 203 82 171 q 81 279 81 235 q 67 294 72 282 q 64 326 61 306 q 66 358 64 344 q 69 387 68 372 q 72 417 71 401 q 74 451 74 432 q 80 460 75 458 q 92 461 85 461 q 105 461 99 461 q 110 465 111 461 q 105 470 110 468 q 94 474 100 472 q 83 478 89 476 q 76 482 78 479 q 82 488 76 485 q 89 490 85 489 l 74 497 q 88 503 78 500 q 108 507 94 506 q 144 510 122 508 q 140 538 142 524 q 144 563 138 551 q 150 572 151 565 q 146 585 149 578 q 138 596 139 590 q 137 608 136 601 q 138 621 138 614 q 136 635 139 628 q 131 692 129 663 q 131 749 132 721 l 131 760 q 93 754 104 757 q 74 765 82 753 q 67 803 65 776 q 69 835 67 821 q 72 863 71 849 q 75 893 74 878 q 76 928 76 908 q 90 938 79 938 q 110 939 101 939 q 109 942 110 942 q 108 944 108 943 l 108 950 q 92 954 100 953 q 81 958 83 956 q 86 964 81 961 q 93 967 89 965 l 76 974 q 107 979 89 976 q 141 984 121 982 q 186 986 161 986 l 232 975 q 245 966 239 968 q 258 960 251 964 l 281 960 q 286 957 283 960 q 289 960 286 957 q 315 972 304 968 q 335 977 325 976 q 357 976 346 978 q 386 974 368 975 q 534 974 457 975 q 681 974 611 974 q 774 972 725 972 q 858 968 822 972 q 872 969 865 968 q 885 969 878 969 q 922 964 911 972 q 929 944 932 956 q 924 931 926 938 q 919 915 922 924 q 933 906 925 914 q 945 890 933 896 q 968 878 957 883 q 985 867 979 874 q 979 849 990 860 q 970 833 975 836 q 958 829 965 831 q 948 817 949 828 q 947 794 947 806 q 941 775 946 783 q 918 769 936 767 q 910 768 914 768 q 901 767 906 768 q 900 750 900 761 q 898 694 897 722 q 890 638 899 665 q 888 624 888 631 q 890 610 889 617 q 888 599 890 604 q 879 588 886 593 q 874 574 876 581 q 879 565 872 568 q 881 526 889 547 q 871 486 874 506 q 901 465 901 479 m 375 497 q 511 498 438 499 q 646 497 585 497 q 658 585 650 542 q 671 658 665 628 q 671 685 671 675 q 673 706 671 696 q 680 726 675 715 q 694 750 685 736 q 628 750 663 750 q 554 749 594 750 q 528 747 539 750 q 506 744 517 744 q 481 751 493 744 q 472 758 478 758 q 458 756 465 758 q 447 748 453 749 q 435 748 442 747 q 422 751 429 749 q 407 750 415 753 q 370 749 388 747 q 333 753 353 750 q 349 726 344 736 q 356 706 354 715 q 357 684 357 696 q 357 656 357 672 q 366 583 360 626 q 375 497 372 540 m 729 518 q 735 535 732 521 q 742 550 739 550 q 736 531 740 544 q 735 514 732 517 q 735 508 736 513 q 733 501 735 504 q 738 506 738 503 q 740 510 739 513 q 742 517 740 507 q 751 567 747 540 q 760 621 756 593 l 760 625 l 761 635 l 761 639 q 760 643 758 642 q 761 646 761 644 q 763 651 763 649 q 764 657 763 653 q 766 672 765 665 q 767 686 767 679 q 769 713 768 700 q 775 733 771 726 q 768 740 775 740 l 765 736 l 764 736 l 761 726 q 760 722 761 724 l 761 726 q 760 738 761 733 q 758 731 758 735 q 757 722 757 726 q 756 710 757 717 l 756 692 q 753 688 756 690 q 752 677 751 681 q 751 665 753 674 q 740 592 744 629 q 729 518 735 554 m 293 514 q 290 532 292 522 q 288 550 289 540 q 286 569 288 560 q 281 614 283 585 q 276 663 279 643 q 276 674 275 671 q 275 685 276 678 q 274 689 274 686 l 274 708 q 273 720 274 715 q 272 729 272 725 q 271 736 271 733 q 269 729 269 732 q 269 721 268 726 l 267 735 l 265 735 l 263 739 q 256 732 256 739 q 260 712 258 725 q 261 683 261 699 q 262 669 261 676 q 264 654 263 663 q 265 643 264 647 q 267 640 265 642 q 265 636 268 639 l 265 632 l 267 622 l 267 618 q 273 564 269 590 q 281 513 276 538 q 283 506 282 503 q 285 501 283 508 q 286 499 285 499 l 288 497 q 288 510 285 507 q 287 527 290 513 q 282 547 283 542 q 288 532 285 547 q 293 514 290 517 m 304 275 l 304 219 l 350 219 q 426 219 385 219 q 510 219 468 219 q 594 219 553 219 q 671 219 636 219 q 707 223 694 222 q 733 221 719 224 l 733 276 q 628 274 681 274 q 514 272 576 274 q 489 271 500 274 q 467 268 478 268 q 443 275 454 268 q 433 282 439 282 q 421 279 428 282 q 410 272 415 272 q 398 272 404 271 q 385 274 392 272 q 371 274 378 276 q 338 272 354 271 q 304 275 321 272 z "},"9":{"ha":1060,"x_min":53,"x_max":1007,"o":"m 124 188 q 145 206 122 200 q 203 215 168 213 q 282 219 239 218 q 364 219 325 219 q 517 220 435 219 q 671 219 600 221 q 697 222 686 221 q 717 224 707 224 q 715 249 715 236 q 713 275 714 263 q 625 274 669 274 q 528 272 581 274 q 503 271 514 274 q 481 268 492 268 q 457 275 468 268 q 447 282 453 282 q 435 279 442 282 q 424 272 429 272 q 412 272 418 271 q 399 274 406 272 q 385 274 392 276 q 327 274 356 269 q 271 281 299 278 q 218 285 242 283 q 175 286 194 286 q 103 278 135 286 q 83 288 92 276 q 78 326 75 300 q 80 358 78 344 q 83 387 82 372 q 86 417 85 401 q 88 451 88 432 q 94 460 89 458 q 106 461 99 461 q 119 461 113 461 q 124 465 125 461 q 119 470 124 468 q 108 474 114 472 q 97 478 103 476 q 90 482 92 479 q 96 488 90 485 q 103 490 99 489 l 88 497 q 96 500 90 499 q 126 507 106 506 q 122 568 124 540 q 120 624 121 596 q 119 683 119 651 q 118 758 118 715 q 104 757 111 758 q 90 754 97 756 q 70 765 79 753 q 64 803 61 776 q 66 835 64 821 q 69 863 68 849 q 72 893 71 878 q 74 928 74 908 q 85 936 75 935 q 106 938 94 938 q 131 938 119 938 q 142 942 143 938 q 132 947 142 944 q 111 951 122 949 q 90 954 100 953 q 78 958 79 956 q 83 964 78 961 q 90 967 86 965 l 74 974 q 99 981 83 978 q 131 984 113 983 q 176 982 150 985 q 224 972 203 979 q 269 956 246 965 q 287 956 276 953 q 301 967 297 960 q 340 976 322 976 q 394 974 358 976 q 540 974 467 975 q 686 974 614 974 l 735 974 q 771 982 746 985 q 815 976 796 981 q 856 969 833 972 q 867 968 861 968 q 876 967 872 968 l 896 967 q 900 964 897 967 q 924 956 917 960 q 926 961 926 961 q 929 958 928 963 q 932 950 931 954 q 935 942 935 947 l 942 967 q 944 949 943 958 q 947 928 946 940 q 950 899 949 915 q 966 885 954 890 q 988 876 978 881 q 1003 865 999 871 q 996 849 1007 860 q 986 833 992 836 q 974 829 981 831 q 964 819 965 828 q 962 801 963 811 q 960 783 961 792 q 950 771 958 774 l 943 726 q 932 701 933 715 q 924 674 931 686 q 928 638 917 651 q 940 595 936 613 q 945 563 944 578 q 944 529 946 547 q 942 483 943 511 q 942 447 942 467 q 943 404 943 428 q 963 391 956 397 q 958 372 971 385 q 944 354 956 357 q 944 240 944 299 q 940 133 944 182 q 945 92 943 111 q 949 49 947 74 q 943 10 951 22 q 924 0 935 -1 q 908 3 915 3 q 892 6 900 4 q 866 6 881 6 q 836 7 851 6 q 765 3 810 7 q 708 -4 738 0 q 650 -4 679 -8 q 638 -4 642 -3 q 630 -6 633 -6 q 623 -6 626 -7 q 613 1 619 -6 q 599 4 606 4 q 590 -3 593 4 q 565 -10 578 -10 q 543 -7 554 -10 q 518 -6 532 -4 q 416 -4 464 -4 q 322 -3 368 -4 q 228 3 276 -1 q 126 15 181 7 q 103 21 108 13 q 98 40 99 29 q 97 63 97 51 q 86 75 96 74 q 74 79 79 76 q 64 94 68 82 q 58 113 53 106 q 76 124 64 119 q 99 135 88 129 q 111 151 111 142 q 129 164 118 161 q 153 167 140 167 q 177 165 165 167 q 199 165 189 164 q 190 178 200 175 q 167 181 181 181 q 141 182 154 182 q 124 188 128 182 m 906 921 q 919 919 915 921 q 920 928 919 924 q 921 936 921 933 l 906 936 l 906 921 m 336 500 q 349 499 343 499 q 364 497 356 499 q 514 498 432 499 q 665 497 596 497 l 717 497 q 720 565 717 531 q 725 632 724 599 q 729 751 729 697 q 655 750 693 750 q 568 749 617 750 q 541 747 553 750 q 518 744 529 744 q 493 751 506 744 q 483 758 489 758 q 469 756 476 758 q 458 748 464 749 q 445 748 451 747 q 432 751 439 749 q 417 750 425 753 q 344 753 382 746 q 342 622 343 689 q 336 500 340 554 m 863 496 q 863 515 863 506 q 861 535 861 525 q 861 554 861 544 l 861 653 q 862 665 861 661 q 861 676 863 668 l 861 690 l 863 701 l 863 731 q 860 723 861 726 q 860 714 860 719 l 858 729 l 857 729 l 854 733 q 847 726 847 733 q 849 704 850 718 q 847 675 849 690 q 847 660 846 668 q 847 644 847 653 l 847 632 q 849 629 847 631 q 847 625 850 628 l 847 606 q 847 549 847 576 q 850 494 847 522 q 851 486 850 492 q 856 479 853 481 q 856 486 856 482 q 857 492 856 490 q 858 510 860 494 q 856 532 856 525 q 858 527 857 532 q 859 516 858 522 q 860 503 860 510 q 863 496 861 497 z "},"\u0000":{"ha":0,"x_min":0,"x_max":0,"o":""},"\r":{"ha":347,"x_min":0,"x_max":0,"o":""}," ":{"ha":347,"x_min":0,"x_max":0,"o":""},"A":{"ha":1074,"x_min":36,"x_max":1046,"o":"m 292 14 q 288 29 288 18 q 288 38 288 31 q 290 55 289 44 q 292 71 292 65 q 290 84 292 78 q 282 90 289 90 q 279 90 281 90 q 276 69 276 81 q 275 44 276 57 q 269 20 274 32 q 254 1 265 8 q 239 -8 246 1 q 226 -27 232 -17 q 216 -46 221 -37 q 204 -54 211 -54 q 192 -46 199 -54 q 177 -37 179 -42 q 175 -25 175 -32 q 163 -15 174 -15 q 141 -12 153 -14 q 123 -7 129 -11 q 117 4 117 -3 q 119 17 117 10 q 118 58 118 38 q 119 88 118 68 q 121 140 119 108 q 88 138 103 139 q 63 133 74 136 q 60 133 61 133 q 43 143 50 133 q 36 171 36 153 q 36 182 36 176 q 38 214 36 200 q 42 242 40 228 q 44 272 43 257 q 46 307 46 288 q 57 315 47 314 q 78 317 67 317 q 103 317 92 317 q 114 319 114 317 q 114 321 114 321 q 104 326 114 324 q 83 330 94 328 q 62 333 72 332 q 50 338 51 335 q 56 343 50 340 q 63 346 58 344 l 46 353 q 72 358 57 356 q 102 363 85 361 q 142 365 119 364 l 153 458 q 156 481 156 469 q 156 503 156 492 q 158 525 156 514 q 167 546 160 536 q 174 554 174 550 q 175 561 175 558 q 174 569 175 565 q 167 580 168 576 q 167 585 167 583 q 169 594 167 589 q 173 606 171 600 q 175 617 175 611 q 175 621 175 618 q 175 629 175 625 q 183 683 175 656 q 196 740 190 711 l 200 761 q 128 753 153 758 q 126 753 126 753 q 110 763 117 753 q 104 789 104 772 q 106 801 104 794 q 107 833 106 819 q 110 862 108 847 q 113 892 111 876 q 114 926 114 907 q 123 935 115 933 q 142 936 131 936 q 163 936 153 936 q 172 939 172 936 q 172 940 172 940 q 164 945 172 943 q 146 949 156 947 q 127 953 136 951 q 117 957 118 954 q 122 963 117 960 q 128 965 124 964 l 114 972 q 140 978 125 975 q 171 983 153 981 q 213 985 189 985 l 253 974 q 256 969 256 971 q 285 969 271 969 q 315 965 300 968 q 349 976 336 976 q 357 976 350 976 q 390 972 364 975 l 703 972 q 776 972 738 972 q 846 968 814 971 q 897 959 878 965 q 917 942 917 953 q 917 940 917 942 q 900 933 911 933 q 896 934 899 933 q 888 935 893 935 q 871 933 879 935 q 874 918 871 929 q 894 919 883 919 q 909 919 899 919 q 928 904 919 918 q 938 888 928 894 q 959 877 949 882 q 973 867 969 872 q 976 860 976 863 q 969 847 976 854 q 962 832 967 835 q 950 828 957 829 q 941 815 942 826 q 940 793 940 804 q 936 775 940 782 q 921 768 932 768 q 914 768 918 768 q 888 764 901 765 q 863 761 875 763 q 872 744 863 750 q 888 717 883 728 q 895 695 893 706 q 897 673 897 685 q 897 643 897 661 q 904 581 900 617 q 913 505 908 544 q 922 424 917 465 q 931 344 926 382 q 976 322 976 338 q 976 321 976 321 q 959 315 971 315 q 933 314 947 315 l 935 299 q 947 299 940 299 q 967 297 956 299 q 989 285 979 296 q 1001 269 989 275 q 1026 258 1014 263 q 1042 248 1038 253 q 1046 240 1046 243 q 1038 228 1046 235 q 1028 213 1033 215 q 1015 208 1022 210 q 1005 196 1006 207 q 1003 174 1004 185 q 999 156 1003 163 q 982 149 994 149 q 974 149 979 149 q 962 147 967 147 q 950 146 957 146 q 953 81 953 110 q 951 40 953 65 q 935 14 950 14 q 933 14 933 14 q 926 32 928 19 q 922 58 924 44 q 917 81 921 72 q 906 90 913 90 q 903 90 904 90 q 905 69 903 81 q 908 48 907 57 q 910 32 910 39 q 908 17 910 26 q 899 1 907 8 q 885 -8 890 1 q 877 -27 881 -17 q 871 -46 874 -37 q 861 -54 868 -54 q 847 -46 856 -54 q 831 -37 833 -42 q 825 -25 828 -32 q 811 -15 822 -15 q 788 -12 800 -14 q 769 -7 776 -11 q 761 11 761 -3 q 761 17 761 14 q 748 74 754 44 q 736 131 742 103 q 647 129 692 129 q 554 128 603 129 q 544 128 549 128 q 522 126 535 128 q 494 124 510 124 q 465 131 478 124 q 455 138 461 138 q 442 135 449 138 q 431 127 436 128 q 424 126 426 126 q 416 127 421 126 q 406 129 411 128 q 399 131 401 131 q 389 129 393 131 q 368 126 378 126 q 358 127 365 126 q 336 129 350 128 q 317 47 328 81 q 293 14 307 14 q 292 14 292 14 m 367 353 l 704 353 q 701 379 703 367 l 694 432 q 692 458 693 446 q 685 497 692 481 q 679 524 679 514 q 685 546 679 535 q 690 554 690 550 q 690 559 690 556 q 686 569 689 563 q 678 582 679 576 q 676 594 676 588 q 677 604 676 600 q 678 610 678 608 q 675 621 678 615 q 669 671 669 646 q 670 686 669 676 q 671 711 671 696 q 669 740 671 726 l 669 749 q 613 749 642 749 q 553 747 583 749 q 544 747 549 747 q 525 745 536 747 q 501 743 514 743 q 475 750 486 743 q 467 757 472 757 q 456 754 463 757 q 446 747 450 747 q 439 746 442 746 q 432 747 436 746 q 424 749 428 747 q 417 750 419 750 q 410 749 414 750 q 396 747 406 747 l 399 744 q 408 718 406 728 q 411 700 411 708 q 410 691 411 697 q 407 673 410 685 q 400 643 404 661 q 393 582 397 617 q 385 508 389 547 q 376 429 381 469 l 367 353 m 839 485 q 836 504 838 494 q 833 522 835 513 q 831 542 832 532 q 826 588 829 558 q 821 639 824 618 q 819 647 819 644 q 820 651 819 650 q 821 653 821 651 q 818 663 821 656 l 818 667 q 817 676 817 672 l 817 688 q 816 699 817 694 q 815 708 815 704 q 814 715 814 713 q 813 700 813 710 l 810 714 l 808 714 l 806 718 q 799 711 799 718 q 801 696 800 707 q 804 672 803 685 q 806 648 806 660 q 807 631 807 636 q 808 618 808 624 q 811 614 811 615 q 810 611 811 613 q 813 593 810 604 q 818 537 815 564 q 826 483 821 510 q 828 476 828 476 q 828 477 828 476 q 829 478 829 478 q 831 472 829 478 q 833 468 831 469 q 832 494 833 482 q 828 519 831 506 q 831 515 829 519 q 832 510 832 513 l 836 492 q 839 485 838 486 m 219 378 q 221 397 221 388 q 223 415 222 406 q 225 435 224 425 q 231 481 228 451 q 238 532 235 511 q 240 544 239 540 q 240 556 240 547 l 240 560 q 242 569 242 565 l 244 581 q 246 592 246 588 q 246 601 246 597 q 247 608 247 606 q 243 593 244 600 l 243 607 l 242 607 l 240 611 q 232 604 232 611 q 232 597 232 601 q 231 581 232 592 q 226 554 229 569 q 224 540 225 547 q 222 524 224 532 q 221 511 221 517 q 222 509 221 510 q 222 508 222 508 q 219 504 222 507 q 219 496 219 501 q 218 486 218 490 q 211 430 214 457 q 207 376 208 403 q 207 371 207 372 q 207 369 207 369 q 208 370 207 369 q 208 371 208 371 q 208 369 208 371 q 208 365 208 368 q 211 361 208 363 q 214 374 211 371 q 217 386 217 376 q 216 392 217 388 q 215 400 215 396 q 217 413 215 408 q 218 408 218 413 l 218 385 q 219 378 218 379 z "},"B":{"ha":1094,"x_min":43,"x_max":1053,"o":"m 983 942 q 965 936 978 936 q 938 935 951 936 q 915 932 925 935 q 906 922 906 929 q 906 919 906 921 q 917 919 911 919 q 931 920 922 919 q 953 921 940 921 q 977 918 965 921 q 996 906 989 915 q 1008 890 996 896 q 1033 878 1021 883 q 1049 869 1044 874 q 1053 861 1053 864 q 1044 849 1053 856 q 1035 833 1040 836 q 1022 829 1029 831 q 1012 817 1013 828 q 1010 794 1011 806 q 1006 776 1010 783 q 989 769 1001 769 q 981 769 986 769 q 951 765 965 767 q 924 763 938 764 q 931 742 931 750 q 929 734 931 740 q 924 708 928 728 q 917 661 921 689 q 910 603 914 633 q 901 544 906 574 q 894 493 897 515 q 958 485 933 490 q 983 467 983 479 q 983 465 983 467 q 965 460 978 460 q 938 459 951 460 q 915 456 925 458 q 906 446 906 453 q 906 443 906 444 q 917 443 911 443 q 931 444 922 443 q 953 444 940 444 q 977 442 965 444 q 996 429 989 439 q 1008 413 996 419 q 1033 402 1021 407 q 1049 392 1044 397 q 1053 385 1053 388 q 1044 372 1053 379 q 1035 357 1040 360 q 1022 353 1029 354 q 1014 347 1015 351 q 1011 335 1013 342 q 1010 222 1010 281 q 1003 126 1010 164 q 1006 88 1004 107 q 1010 46 1008 69 q 1010 35 1010 40 q 1003 7 1010 17 q 986 -3 996 -3 q 983 -3 985 -3 q 958 3 969 1 q 935 6 946 6 q 915 7 924 7 q 891 6 907 7 q 840 3 875 6 q 789 -3 811 0 q 751 -7 767 -7 q 721 -4 736 -7 q 713 -4 717 -4 q 704 -5 710 -4 q 694 -6 699 -6 q 686 -7 689 -7 q 679 -6 683 -7 q 668 1 675 -6 q 655 4 661 4 q 644 -3 649 4 q 615 -10 632 -10 q 588 -8 600 -10 q 565 -6 576 -6 q 556 -6 561 -6 q 413 -4 481 -4 q 274 1 344 -4 q 263 -11 268 -3 q 255 -29 258 -19 q 247 -46 251 -39 q 236 -53 243 -53 q 224 -46 231 -53 q 208 -36 211 -42 q 204 -24 206 -31 q 192 -13 203 -14 q 170 -12 182 -12 q 151 -7 158 -11 q 144 10 144 -3 q 144 14 144 11 q 142 14 143 14 l 139 15 q 136 15 138 15 q 128 15 132 15 q 112 22 117 15 q 106 40 107 29 q 105 63 106 51 q 94 75 104 74 q 82 79 88 76 q 72 94 76 82 q 64 107 64 101 q 68 115 64 110 q 84 124 72 119 q 108 135 96 129 q 121 151 121 142 q 131 160 124 154 q 126 285 126 222 q 94 282 108 283 q 69 278 81 281 q 67 278 68 278 q 50 288 57 278 q 43 315 43 297 q 43 326 43 321 q 45 358 43 344 q 49 387 47 372 q 51 417 50 401 q 53 451 53 432 q 64 460 54 458 q 85 461 74 461 q 110 461 99 461 q 121 464 121 461 q 121 465 121 465 q 111 470 121 468 q 90 474 101 472 q 69 478 79 476 q 57 482 58 479 q 63 488 57 485 q 69 490 65 489 l 53 497 q 71 500 61 499 q 93 504 81 503 q 121 507 106 506 q 118 526 118 517 q 119 536 118 529 q 126 554 119 543 q 133 565 133 558 q 131 578 133 571 q 123 589 124 585 q 122 596 122 593 q 123 603 122 599 q 125 613 124 608 q 126 621 126 618 q 125 631 126 626 q 124 661 124 646 q 126 699 124 676 q 132 751 129 721 q 133 761 132 758 q 97 758 114 760 q 69 754 81 757 q 67 754 68 754 q 50 764 57 754 q 43 792 43 774 q 43 803 43 797 q 45 835 43 821 q 49 863 47 849 q 51 893 50 878 q 53 928 53 908 q 64 936 54 935 q 85 938 74 938 q 110 938 99 938 q 121 940 121 938 q 121 942 121 942 q 111 947 121 944 q 90 951 101 949 q 69 954 79 953 q 57 958 58 956 q 63 964 57 961 q 69 967 65 965 l 53 974 q 83 979 67 976 q 119 984 99 982 q 167 986 140 986 l 179 983 q 210 981 196 983 q 239 978 225 979 q 268 975 253 976 q 303 974 283 974 q 328 978 317 978 q 339 977 331 978 q 374 974 347 976 l 735 974 q 819 973 775 974 q 901 969 864 972 q 960 960 938 967 q 983 943 983 954 q 983 942 983 943 m 349 500 q 360 499 354 499 q 374 497 367 499 l 671 497 l 683 597 q 685 608 685 603 q 683 622 685 617 q 682 631 682 628 q 693 650 682 642 q 700 657 700 651 q 699 664 700 660 q 692 670 693 668 q 692 674 692 672 q 693 680 692 676 q 696 687 694 683 q 697 693 697 690 q 697 696 697 694 q 697 703 697 700 q 701 724 697 713 q 710 750 704 736 q 637 750 674 750 q 561 749 600 750 q 551 749 556 749 q 529 747 542 749 q 501 744 517 744 q 472 751 485 744 q 462 758 468 758 q 449 756 456 758 q 438 748 443 749 q 431 747 433 747 q 423 748 428 747 q 413 750 418 749 q 406 751 408 751 q 396 750 400 751 q 372 747 383 747 q 361 748 369 747 q 338 750 353 749 q 349 724 346 735 q 352 708 351 714 q 353 697 353 701 q 351 681 353 690 q 349 653 350 671 l 349 500 m 261 438 q 261 457 261 447 q 260 476 260 467 l 260 594 q 260 605 260 603 q 261 610 261 607 q 260 618 261 613 l 260 632 l 261 643 l 261 672 q 259 665 260 668 q 258 656 258 661 l 257 671 l 256 671 l 253 675 q 246 668 246 675 q 249 651 249 661 q 248 640 249 649 q 246 617 247 632 q 244 607 244 613 q 245 599 244 604 q 246 586 246 594 l 246 574 q 247 572 246 572 q 247 569 247 571 q 246 567 247 568 l 246 492 q 249 436 246 464 q 250 428 249 433 q 254 421 251 422 q 254 428 254 424 q 256 433 254 432 q 257 440 257 435 q 256 456 257 444 q 254 474 254 467 q 256 469 256 474 q 258 458 257 464 q 259 445 258 451 q 261 438 260 439 m 349 219 l 743 219 q 769 222 758 221 q 790 224 781 224 q 789 243 789 235 l 789 257 q 788 276 789 267 q 677 274 732 274 q 561 272 622 274 q 551 272 556 272 q 529 270 542 272 q 501 268 517 268 q 472 275 485 268 q 462 282 468 282 q 449 279 456 282 q 438 272 443 272 q 431 271 433 271 q 423 272 428 271 q 413 274 418 272 q 406 275 408 275 q 396 274 400 275 q 372 271 385 271 q 349 271 360 271 l 349 219 z "},"C":{"ha":1063,"x_min":43,"x_max":1019,"o":"m 114 188 q 128 204 114 199 q 125 335 125 271 q 124 465 125 399 q 124 474 124 469 q 122 490 124 481 q 120 508 121 500 q 119 522 119 517 q 120 536 119 528 q 126 554 121 544 q 133 565 133 558 q 131 578 133 571 q 123 589 124 585 q 122 596 122 593 q 123 603 122 599 q 125 613 124 608 q 126 621 126 618 q 125 631 126 626 q 124 661 124 646 q 126 699 124 676 q 132 751 129 721 q 133 761 132 758 q 68 754 93 761 q 65 754 67 754 q 49 764 56 754 q 43 790 43 774 q 43 803 43 796 q 44 835 43 821 q 47 863 46 849 q 50 893 49 878 q 51 928 51 908 q 63 936 53 935 q 83 938 72 938 q 107 938 96 938 q 118 940 118 938 q 118 942 118 942 q 109 947 118 944 q 88 951 100 949 q 67 954 76 953 q 56 958 57 956 q 61 964 56 961 q 68 967 64 965 l 51 974 q 82 979 64 976 q 117 984 97 982 q 163 986 138 986 l 172 983 l 178 983 q 235 978 211 982 q 294 974 258 975 q 318 978 307 978 q 329 977 321 978 q 363 974 338 976 l 713 974 q 795 973 753 974 q 873 969 838 972 q 931 960 908 967 q 953 943 953 954 q 953 942 953 943 q 935 936 949 936 q 909 935 922 936 q 887 932 896 935 q 878 922 878 929 q 878 919 878 921 q 889 919 883 919 q 903 920 894 919 q 925 921 913 921 q 948 918 938 921 q 965 906 958 915 q 977 890 965 896 q 1001 878 989 883 q 1016 869 1013 874 q 1019 861 1019 864 q 1013 849 1019 856 q 1003 833 1008 836 q 992 829 999 831 q 981 817 982 828 q 980 794 981 806 q 975 776 979 783 q 960 769 971 769 q 951 769 956 769 q 847 757 897 761 q 747 751 796 753 q 649 750 699 750 q 544 749 599 750 q 535 749 540 749 q 514 747 526 749 q 486 744 501 744 q 458 751 469 744 q 449 758 454 758 q 436 756 443 758 q 426 748 431 749 q 418 747 421 747 q 410 748 415 747 q 401 750 406 749 q 393 751 396 751 q 385 750 389 751 q 367 747 376 747 q 357 748 364 747 q 338 749 350 749 q 349 723 346 733 q 352 706 351 713 q 353 696 353 700 q 351 679 353 689 q 349 653 350 669 l 349 242 q 350 219 349 231 l 690 219 q 716 222 707 221 q 732 224 725 224 q 742 223 736 224 q 759 218 749 222 q 785 206 769 214 q 797 199 790 199 q 808 201 803 199 q 824 210 815 208 q 840 221 833 211 l 885 232 q 930 230 910 232 q 964 225 950 228 q 993 219 981 222 l 976 213 q 983 210 981 211 q 989 204 989 207 q 989 204 989 204 q 978 200 988 201 q 957 197 968 199 q 937 192 946 194 q 928 188 928 190 q 944 183 928 183 q 974 183 958 183 q 993 174 990 183 q 994 139 993 154 q 997 109 996 124 q 1000 81 999 94 q 1001 49 1001 67 q 1003 36 1003 42 q 996 10 1003 19 q 979 0 989 0 q 976 0 978 0 q 889 8 947 8 q 838 7 865 8 q 781 3 810 6 q 732 -3 753 0 q 697 -7 711 -7 q 668 -4 683 -7 q 661 -4 665 -4 q 653 -5 658 -4 q 644 -6 649 -6 q 636 -7 639 -7 q 629 -6 633 -7 q 618 1 625 -6 q 606 4 611 4 q 597 -3 601 4 q 569 -10 585 -10 q 542 -8 554 -10 q 522 -6 531 -6 q 513 -6 517 -6 q 389 -3 447 -4 q 272 0 331 -3 q 263 -13 267 -4 q 254 -31 258 -22 q 246 -47 250 -40 q 236 -53 242 -53 q 224 -46 231 -53 q 208 -36 211 -42 q 204 -24 206 -31 q 192 -13 203 -14 q 171 -12 182 -12 q 151 -8 160 -11 q 143 11 143 -4 q 136 13 140 13 l 124 14 q 117 15 121 15 q 108 15 113 15 q 93 22 97 15 q 89 40 89 29 q 88 63 89 51 q 78 75 88 74 q 65 79 71 76 q 56 94 60 82 q 49 107 49 101 q 53 115 49 110 q 68 124 57 119 q 91 135 79 129 q 103 151 103 142 q 115 161 108 158 q 131 165 122 164 l 129 182 q 114 188 117 185 m 261 438 q 261 457 261 447 q 260 476 260 467 l 260 594 q 260 605 260 603 q 261 610 261 607 q 260 618 261 613 l 260 632 l 261 643 l 261 672 q 259 665 260 668 q 258 656 258 661 l 257 671 l 256 671 l 253 675 q 246 668 246 675 q 249 651 249 661 q 248 640 249 649 q 246 617 247 632 q 244 607 244 613 q 245 599 244 604 q 246 586 246 594 l 246 574 q 247 572 246 572 q 247 569 247 571 q 246 567 247 568 l 246 492 q 249 436 246 464 q 250 428 249 433 q 254 421 251 422 q 254 428 254 424 q 256 433 254 432 q 257 440 257 435 q 256 456 257 444 q 254 474 254 467 q 256 469 256 474 q 258 458 257 464 q 259 445 258 451 q 261 438 260 439 z "},"D":{"ha":1122,"x_min":43,"x_max":1094,"o":"m 1025 940 q 1006 935 1019 935 q 980 934 993 935 q 957 931 967 933 q 947 921 947 928 q 947 918 947 919 q 958 918 953 918 q 973 919 964 918 q 994 919 982 919 q 1019 917 1007 919 q 1038 904 1031 914 q 1050 888 1038 894 q 1074 877 1063 882 q 1090 867 1086 872 q 1094 860 1094 863 q 1086 847 1094 854 q 1076 832 1082 835 q 1064 828 1071 829 q 1053 815 1054 826 q 1052 793 1053 804 q 1047 775 1051 782 q 1031 768 1043 768 q 1022 768 1028 768 q 1008 758 1011 765 q 996 744 1006 750 q 992 736 992 740 q 997 725 992 731 q 1003 696 1003 708 q 996 669 1003 683 q 978 625 989 654 q 959 535 972 596 q 930 406 946 475 q 899 267 914 336 q 874 150 885 197 q 886 134 874 140 q 910 123 899 128 q 926 113 922 118 q 931 106 931 108 q 922 93 931 100 q 913 78 918 81 q 900 74 907 75 q 890 61 890 72 q 888 39 889 50 q 883 21 888 28 q 867 14 879 14 q 858 14 864 14 q 770 3 803 6 q 717 -1 738 0 q 681 -1 696 -1 q 652 -1 665 -1 q 625 0 639 0 q 561 -1 599 0 q 551 -1 556 -1 q 529 -3 542 -1 q 501 -6 517 -6 q 472 1 485 -6 q 462 8 468 8 q 449 6 456 8 q 438 -2 443 -1 q 431 -3 433 -3 q 423 -2 428 -3 q 413 0 418 -1 q 406 1 408 1 q 396 0 400 1 q 368 -3 382 -3 q 333 1 354 -3 q 285 7 313 4 l 281 3 q 267 -6 272 3 q 256 -26 261 -15 q 247 -44 251 -36 q 236 -53 243 -53 q 224 -46 231 -53 q 208 -36 211 -42 q 204 -24 206 -31 q 192 -13 203 -14 q 171 -12 182 -12 q 151 -8 160 -11 q 143 11 143 -4 q 69 4 100 11 q 67 4 68 4 q 50 14 57 4 q 43 42 43 24 q 43 53 43 47 q 45 85 43 71 q 49 113 47 99 q 51 143 50 128 q 53 178 53 158 q 64 186 54 185 q 85 188 74 188 q 110 188 99 188 q 121 190 121 188 q 121 192 121 192 q 111 197 121 194 q 90 201 101 199 q 69 204 79 203 q 57 208 58 206 q 63 214 57 211 q 69 217 65 215 l 53 224 q 72 228 61 225 q 126 235 94 233 q 125 321 125 279 l 125 379 q 124 465 125 422 q 124 474 124 469 q 122 490 124 481 q 120 508 121 500 q 119 522 119 517 q 120 536 119 528 q 126 554 121 544 q 133 565 133 558 q 131 578 133 571 q 123 589 124 585 q 122 596 122 593 q 123 603 122 599 q 125 613 124 608 q 126 621 126 618 q 125 631 126 626 q 124 661 124 646 q 126 699 124 676 q 132 751 129 721 l 132 760 q 97 757 113 758 q 69 753 81 756 q 67 753 68 753 q 50 763 57 753 q 43 790 43 772 q 43 801 43 796 q 45 833 43 819 q 49 862 47 847 q 51 892 50 876 q 53 926 53 907 q 64 935 54 933 q 85 936 74 936 q 110 936 99 936 q 121 939 121 936 q 121 940 121 940 q 111 945 121 943 q 90 949 101 947 q 69 953 79 951 q 57 957 58 954 q 63 963 57 960 q 69 965 65 964 l 53 972 q 83 978 67 975 q 119 983 99 981 q 167 985 140 985 l 171 983 l 178 983 q 210 981 196 983 q 238 978 224 979 q 269 974 253 976 q 306 972 285 972 q 329 976 318 976 q 340 976 332 976 q 374 972 349 975 l 776 972 q 861 972 817 972 q 942 968 906 971 q 1002 959 979 965 q 1025 942 1025 953 q 1025 940 1025 942 m 349 226 q 360 225 354 225 q 374 224 367 225 l 656 224 q 687 380 668 301 q 722 529 706 458 q 726 547 725 538 q 728 567 726 557 q 732 585 729 576 q 743 601 735 594 q 751 614 751 604 q 751 619 751 617 q 746 631 746 625 q 747 633 746 631 q 749 642 747 636 q 754 652 751 647 q 757 664 757 657 q 763 708 760 688 q 771 750 765 729 q 665 749 718 749 q 561 747 613 749 q 551 747 556 747 q 529 745 542 747 q 501 743 517 743 q 472 750 485 743 q 462 757 468 757 q 449 754 456 757 q 438 747 443 747 q 431 746 433 746 q 423 747 428 746 q 413 749 418 747 q 406 750 408 750 q 396 749 400 750 q 372 746 383 746 q 361 747 369 746 q 338 749 353 747 q 349 723 346 733 q 352 706 351 713 q 353 696 353 700 q 351 679 353 689 q 349 653 350 669 l 349 226 m 878 476 q 882 493 879 485 q 889 524 883 506 q 899 563 893 538 q 910 604 906 588 q 913 614 913 611 q 915 624 914 617 q 917 626 917 626 q 918 635 918 632 l 922 643 q 926 660 926 654 q 928 667 928 664 q 925 661 926 664 q 922 654 924 658 l 924 667 l 921 671 q 919 672 921 672 q 913 668 917 672 q 909 650 913 661 q 901 626 906 639 q 898 614 899 619 q 896 601 897 608 q 893 590 893 596 q 893 590 893 590 q 893 588 893 589 q 893 588 893 588 q 892 585 893 586 q 889 577 890 582 q 888 569 888 572 q 865 478 874 524 q 864 474 864 475 q 864 472 864 472 q 865 472 865 472 q 867 472 865 472 q 867 472 867 472 q 865 468 867 471 q 867 465 865 467 q 869 471 868 468 q 872 474 869 474 q 876 489 875 476 q 879 507 878 501 q 881 504 881 507 q 879 492 881 500 q 878 479 878 483 q 878 476 878 478 m 200 383 q 200 403 200 393 q 199 422 199 413 l 199 540 q 199 551 199 549 q 200 556 200 553 q 199 564 200 558 l 199 578 l 200 589 l 200 618 q 198 610 199 614 q 197 601 197 607 l 196 617 l 194 617 l 192 621 q 185 614 185 621 q 188 597 188 607 q 187 586 188 594 q 185 563 186 578 q 183 553 183 558 q 184 545 183 550 q 185 532 185 540 l 185 519 q 185 517 185 518 q 186 515 186 517 q 185 513 186 514 l 185 438 q 188 382 185 410 q 189 374 188 379 q 193 367 190 368 q 193 374 193 369 q 194 379 193 378 q 196 386 196 381 q 194 401 196 390 q 193 419 193 413 q 195 415 194 419 q 197 403 196 410 q 198 391 197 397 q 200 383 199 385 z "},"E":{"ha":1060,"x_min":43,"x_max":1025,"o":"m 908 465 q 890 460 903 460 q 865 459 878 460 q 843 456 853 458 q 833 443 833 453 q 843 443 839 443 q 858 444 849 443 q 879 444 867 444 q 902 442 892 444 q 919 429 913 439 q 931 413 919 419 q 954 402 943 407 q 969 392 965 397 q 972 385 972 388 q 965 372 972 379 q 957 357 963 360 q 944 353 951 354 q 934 340 935 351 q 933 318 933 329 q 929 300 933 307 q 914 293 925 293 q 906 293 910 293 q 807 281 851 285 q 719 275 763 276 q 632 274 676 274 q 535 272 588 274 q 525 272 531 272 q 504 270 517 272 q 478 268 492 268 q 450 275 461 268 q 440 282 446 282 q 428 279 435 282 q 418 272 422 272 q 411 271 414 271 q 403 272 408 271 q 394 274 399 272 q 386 275 389 275 q 378 274 382 275 q 367 272 372 272 l 360 272 q 349 271 354 272 l 349 219 l 692 219 q 719 222 710 221 q 735 224 728 224 q 746 223 739 224 q 763 218 753 222 q 790 206 774 214 q 803 199 796 199 q 813 201 807 199 q 830 210 821 208 q 846 221 839 211 l 892 232 q 938 230 918 232 q 972 225 957 228 q 1001 219 989 222 l 986 213 q 993 210 990 211 q 999 204 999 207 q 999 204 999 204 q 988 200 997 201 q 966 197 978 199 q 945 192 954 194 q 936 188 936 190 q 953 183 936 183 q 984 183 968 183 q 1001 174 1000 183 q 999 113 1001 133 q 997 69 997 92 q 997 47 997 60 q 997 39 997 43 q 984 9 997 19 q 961 -1 971 -1 q 958 -1 960 -1 q 878 7 925 7 q 786 3 843 7 q 737 -3 758 0 q 700 -7 715 -7 q 671 -4 686 -7 q 663 -4 667 -4 q 655 -5 660 -4 q 645 -6 650 -6 q 638 -7 640 -7 q 631 -6 635 -7 q 619 1 626 -6 q 606 4 613 4 q 597 -3 600 4 q 568 -10 585 -10 q 542 -8 554 -10 q 521 -6 531 -6 q 511 -6 515 -6 q 385 -3 440 -4 q 272 0 331 -3 q 263 -13 267 -4 q 255 -31 258 -22 q 247 -47 251 -40 q 238 -54 243 -54 q 224 -46 232 -54 q 208 -36 211 -42 q 204 -24 206 -31 q 192 -13 203 -14 q 171 -12 182 -12 q 152 -7 160 -11 q 144 10 144 -3 q 144 14 144 11 q 142 14 143 14 l 136 15 q 133 15 135 15 q 125 15 129 15 q 110 22 114 15 q 105 40 106 29 q 103 63 104 51 q 93 75 103 74 q 81 79 86 76 q 71 94 75 82 q 64 107 64 101 q 67 115 64 110 q 83 124 71 119 q 106 135 94 129 q 118 151 118 142 q 131 161 122 157 q 126 285 126 224 q 94 282 108 283 q 68 278 79 281 q 65 278 67 278 q 49 288 56 278 q 43 314 43 297 q 43 326 43 319 q 45 358 43 344 q 49 387 47 372 q 51 417 50 401 q 53 451 53 432 q 63 460 54 458 q 83 461 72 461 q 106 461 96 461 q 117 464 117 461 q 117 465 117 465 q 108 470 117 468 q 88 474 99 472 q 67 478 76 476 q 56 482 57 479 q 61 488 56 485 q 68 490 64 489 l 53 497 q 71 501 60 499 q 92 504 79 503 q 119 507 104 506 q 118 524 118 515 q 119 535 118 528 q 126 554 119 543 q 133 565 133 558 q 131 578 133 571 q 123 589 124 585 q 122 596 122 593 q 123 603 122 599 q 125 613 124 608 q 126 621 126 618 q 125 631 126 626 q 124 661 124 646 q 126 699 124 676 q 132 751 129 721 q 133 761 132 758 q 97 758 114 760 q 69 754 81 757 q 67 754 68 754 q 50 764 57 754 q 43 792 43 774 q 43 803 43 797 q 45 835 43 821 q 49 863 47 849 q 51 893 50 878 q 53 928 53 908 q 64 936 54 935 q 85 938 74 938 q 110 938 99 938 q 121 940 121 938 q 121 942 121 942 q 111 947 121 944 q 90 951 101 949 q 69 954 79 953 q 57 958 58 956 q 63 964 57 961 q 69 967 65 965 l 53 974 q 83 979 67 976 q 119 984 99 982 q 167 986 140 986 l 179 983 q 210 981 196 983 q 239 978 225 979 q 268 975 253 976 q 303 974 283 974 q 328 978 317 978 q 339 977 331 978 q 374 974 347 976 l 707 974 q 792 973 747 974 q 873 969 836 972 q 933 960 910 967 q 956 943 956 954 q 956 942 956 943 q 937 936 950 936 q 910 935 924 936 q 888 932 897 935 q 878 922 878 929 q 878 919 878 921 q 889 919 883 919 q 903 920 894 919 q 925 921 913 921 q 949 918 938 921 q 968 906 961 915 q 981 890 968 896 q 1005 878 993 883 q 1021 869 1017 874 q 1025 861 1025 864 q 1017 849 1025 856 q 1007 833 1013 836 q 994 829 1001 831 q 984 817 985 828 q 983 794 983 806 q 978 776 982 783 q 961 769 974 769 q 953 769 958 769 q 849 757 897 761 q 756 751 801 753 q 664 750 711 750 q 561 749 617 750 q 551 749 556 749 q 529 747 542 749 q 501 744 517 744 q 472 751 485 744 q 462 758 468 758 q 449 756 456 758 q 438 748 443 749 q 431 747 433 747 q 423 748 428 747 q 413 750 418 749 q 406 751 408 751 q 396 750 400 751 q 372 747 383 747 q 361 748 369 747 q 338 750 353 749 q 349 724 346 735 q 352 708 351 714 q 353 697 353 701 q 351 681 353 690 q 349 653 350 671 l 349 499 q 357 497 351 497 l 672 497 q 753 497 711 497 q 829 493 794 496 q 886 484 864 490 q 908 465 908 478 m 257 671 l 256 671 l 253 675 q 246 668 246 675 q 249 651 249 661 q 248 640 249 649 q 246 617 247 632 q 244 607 244 613 q 245 599 244 604 q 246 586 246 594 l 246 574 q 247 572 246 572 q 247 569 247 571 q 246 567 247 568 l 246 476 q 260 482 256 476 l 260 594 q 260 605 260 603 q 261 610 261 607 q 260 618 261 613 l 260 632 l 261 643 l 261 672 q 259 665 260 668 q 258 656 258 661 l 257 671 z "},"F":{"ha":1053,"x_min":43,"x_max":1025,"o":"m 317 15 q 311 34 311 21 q 310 60 311 47 q 307 83 310 74 q 297 93 304 93 q 294 93 296 93 q 294 83 294 89 q 295 68 294 78 q 296 46 296 58 q 293 22 296 33 q 281 3 290 10 q 267 -6 272 3 q 256 -26 261 -15 q 247 -44 251 -36 q 236 -53 243 -53 q 224 -46 231 -53 q 208 -36 211 -42 q 204 -24 206 -31 q 192 -13 203 -14 q 169 -12 181 -12 q 151 -7 158 -11 q 144 10 144 -3 q 144 18 144 14 q 136 87 139 53 q 131 156 133 121 q 68 149 93 156 q 65 149 67 149 q 49 158 56 149 q 43 185 43 168 q 43 197 43 190 q 45 229 43 215 q 49 258 47 243 q 51 288 50 272 q 53 322 53 303 q 63 331 54 329 q 83 332 72 332 q 106 332 96 332 q 117 335 117 332 q 117 336 117 336 q 108 341 117 339 q 88 345 99 343 q 67 349 76 347 q 56 353 57 350 q 61 358 56 356 q 68 361 64 360 l 53 368 q 72 372 61 369 q 125 379 94 378 q 125 401 125 390 l 124 443 q 124 465 124 454 q 124 474 124 469 q 122 490 124 481 q 120 508 121 500 q 119 522 119 517 q 120 536 119 528 q 126 554 121 544 q 133 565 133 558 q 131 578 133 571 q 123 589 124 585 q 122 596 122 593 q 123 603 122 599 q 125 613 124 608 q 126 621 126 618 q 125 631 126 626 q 124 661 124 646 q 126 699 124 676 q 132 751 129 721 q 133 761 132 758 q 97 758 114 760 q 69 754 81 757 q 67 754 68 754 q 50 764 57 754 q 43 792 43 774 q 43 803 43 797 q 45 835 43 821 q 49 863 47 849 q 51 893 50 878 q 53 928 53 908 q 64 936 54 935 q 85 938 74 938 q 110 938 99 938 q 121 940 121 938 q 121 942 121 942 q 111 947 121 944 q 90 951 101 949 q 69 954 79 953 q 57 958 58 956 q 63 964 57 961 q 69 967 65 965 l 53 974 q 83 979 67 976 q 119 984 99 982 q 167 986 140 986 l 179 983 q 210 981 196 983 q 239 978 225 979 q 268 975 253 976 q 303 974 283 974 q 328 978 317 978 q 339 977 331 978 q 374 974 347 976 l 707 974 q 792 973 747 974 q 873 969 836 972 q 933 960 910 967 q 956 943 956 954 q 956 942 956 943 q 937 936 950 936 q 910 935 924 936 q 888 932 897 935 q 878 922 878 929 q 878 919 878 921 q 889 919 883 919 q 903 920 894 919 q 925 921 913 921 q 949 918 938 921 q 968 906 961 915 q 981 890 968 896 q 1005 878 993 883 q 1021 869 1017 874 q 1025 861 1025 864 q 1017 849 1025 856 q 1007 833 1013 836 q 994 829 1001 831 q 984 817 985 828 q 983 794 983 806 q 978 776 982 783 q 961 769 974 769 q 953 769 958 769 q 849 757 897 761 q 756 751 801 753 q 664 750 711 750 q 561 749 617 750 q 551 749 556 749 q 529 747 542 749 q 501 744 517 744 q 472 751 485 744 q 462 758 468 758 q 449 756 456 758 q 438 748 443 749 q 431 747 433 747 q 423 748 428 747 q 413 750 418 749 q 406 751 408 751 q 396 750 400 751 q 372 747 383 747 q 361 748 369 747 q 338 750 353 749 q 349 724 346 735 q 352 708 351 714 q 353 697 353 701 q 351 681 353 690 q 349 653 350 671 l 349 369 q 357 368 351 368 l 672 368 q 753 367 711 368 q 829 364 794 367 q 886 355 864 361 q 908 336 908 349 q 890 331 903 331 q 865 330 878 331 q 843 326 853 329 q 833 314 833 324 q 843 314 839 314 q 858 315 849 314 q 879 315 867 315 q 902 313 892 315 q 919 300 913 310 q 931 284 919 290 q 954 273 943 278 q 969 263 965 268 q 972 256 972 258 q 965 243 972 250 q 957 228 963 231 q 944 224 951 225 q 934 211 935 222 q 933 189 933 200 q 929 171 933 178 q 914 164 925 164 q 906 164 910 164 q 807 151 851 156 q 719 146 763 147 q 632 144 676 144 q 535 143 588 144 q 525 143 531 143 q 504 141 517 143 q 478 139 492 139 q 450 146 461 139 q 440 153 446 153 q 428 150 435 153 q 418 142 422 143 q 411 142 414 142 q 403 142 408 142 q 394 144 399 143 q 386 146 389 146 q 378 144 382 146 q 363 143 371 143 q 347 143 354 143 q 338 53 344 90 q 318 15 332 15 q 317 15 317 15 m 261 438 q 261 457 261 447 q 260 476 260 467 l 260 594 q 260 605 260 603 q 261 610 261 607 q 260 618 261 613 l 260 632 l 261 643 l 261 672 q 259 665 260 668 q 258 656 258 661 l 257 671 l 256 671 l 253 675 q 246 668 246 675 q 249 651 249 661 q 248 640 249 649 q 246 617 247 632 q 244 607 244 613 q 245 599 244 604 q 246 586 246 594 l 246 574 q 247 572 246 572 q 247 569 247 571 q 246 567 247 568 l 246 492 q 249 436 246 464 q 250 428 249 433 q 254 421 251 422 q 254 428 254 424 q 256 433 254 432 q 257 440 257 435 q 256 456 257 444 q 254 474 254 467 q 256 469 256 474 q 258 458 257 464 q 259 445 258 451 q 261 438 260 439 z "},"G":{"ha":1088,"x_min":43,"x_max":1053,"o":"m 939 -75 q 929 -60 933 -71 q 922 -42 925 -49 q 915 -31 918 -36 q 896 -4 913 -25 q 902 -26 897 -14 q 910 -49 907 -37 q 914 -72 914 -61 q 907 -92 914 -83 q 895 -103 899 -93 q 890 -123 892 -112 q 887 -142 889 -133 q 878 -151 885 -151 q 864 -146 871 -151 q 847 -139 851 -143 q 839 -128 842 -135 q 821 -118 835 -118 q 804 -119 813 -118 q 790 -121 796 -121 q 782 -120 788 -121 q 770 -115 776 -119 q 763 -97 764 -110 q 738 -39 742 -50 q 724 0 733 -28 q 644 0 683 0 q 561 -1 604 0 q 551 -1 556 -1 q 529 -3 542 -1 q 501 -6 517 -6 q 472 1 485 -6 q 462 8 468 8 q 449 6 456 8 q 438 -2 443 -1 q 431 -3 433 -3 q 423 -2 428 -3 q 413 0 418 -1 q 406 1 408 1 q 396 0 400 1 q 368 -3 382 -3 q 333 1 354 -3 q 285 7 313 4 l 281 3 q 267 -6 272 3 q 256 -26 261 -15 q 247 -44 251 -36 q 236 -53 243 -53 q 224 -46 231 -53 q 208 -36 211 -42 q 204 -24 206 -31 q 192 -13 203 -14 q 171 -12 182 -12 q 151 -8 160 -11 q 143 11 143 -4 q 69 4 100 11 q 67 4 68 4 q 50 14 57 4 q 43 42 43 24 q 43 53 43 47 q 45 85 43 71 q 49 113 47 99 q 51 143 50 128 q 53 178 53 158 q 64 186 54 185 q 85 188 74 188 q 110 188 99 188 q 121 190 121 188 q 121 192 121 192 q 111 197 121 194 q 90 201 101 199 q 69 204 79 203 q 57 208 58 206 q 63 214 57 211 q 69 217 65 215 l 53 224 q 72 228 61 225 q 126 235 94 233 q 125 321 125 279 l 125 379 q 124 465 125 422 q 124 474 124 469 q 122 490 124 481 q 120 508 121 500 q 119 522 119 517 q 120 536 119 528 q 126 554 121 544 q 133 565 133 558 q 131 578 133 571 q 123 589 124 585 q 122 596 122 593 q 123 603 122 599 q 125 613 124 608 q 126 621 126 618 q 125 631 126 626 q 124 661 124 646 q 126 699 124 676 q 132 751 129 721 l 132 760 q 97 757 113 758 q 69 753 81 756 q 67 753 68 753 q 50 763 57 753 q 43 790 43 772 q 43 801 43 796 q 45 833 43 819 q 49 862 47 847 q 51 892 50 876 q 53 926 53 907 q 64 935 54 933 q 85 936 74 936 q 110 936 99 936 q 121 939 121 936 q 121 940 121 940 q 111 945 121 943 q 90 949 101 947 q 69 953 79 951 q 57 957 58 954 q 63 963 57 960 q 69 965 65 964 l 53 972 q 83 978 67 975 q 119 983 99 981 q 167 985 140 985 l 171 983 l 178 983 q 210 981 196 983 q 238 978 224 979 q 269 974 253 976 q 306 972 285 972 q 329 976 318 976 q 340 976 332 976 q 374 972 349 975 l 735 972 q 819 972 775 972 q 901 968 864 971 q 960 959 938 965 q 983 942 983 953 q 983 940 983 942 q 965 935 978 935 q 938 934 951 935 q 915 931 925 933 q 906 921 906 928 q 906 918 906 919 q 917 918 911 918 q 931 919 922 918 q 953 919 940 919 q 977 917 965 919 q 996 904 989 914 q 1008 888 996 894 q 1033 877 1021 882 q 1049 867 1044 872 q 1053 860 1053 863 q 1044 847 1053 854 q 1035 832 1040 835 q 1022 828 1029 829 q 1012 815 1013 826 q 1010 793 1011 804 q 1006 775 1010 782 q 989 768 1001 768 q 981 768 986 768 q 873 756 925 760 q 770 750 821 751 q 668 749 719 749 q 561 747 617 749 q 551 747 556 747 q 529 745 542 747 q 501 743 517 743 q 472 750 485 743 q 462 757 468 757 q 449 754 456 757 q 438 747 443 747 q 431 746 433 746 q 423 747 428 746 q 413 749 418 747 q 406 750 408 750 q 396 749 400 750 q 372 746 383 746 q 361 747 369 746 q 338 749 353 747 q 349 723 346 733 q 352 706 351 713 q 353 696 353 700 q 351 679 353 689 q 349 653 350 669 l 349 226 q 360 225 354 225 q 374 224 367 225 l 663 224 q 656 251 660 239 q 647 282 653 264 q 633 283 642 283 q 589 284 600 283 q 569 285 578 285 q 557 284 563 285 q 547 283 551 283 q 521 285 536 283 q 471 296 506 288 q 465 294 468 294 q 456 301 458 294 q 453 320 453 308 q 452 342 453 332 q 446 354 451 353 q 437 358 440 356 q 431 372 433 360 q 426 385 426 379 q 429 392 426 388 q 439 401 432 396 q 453 413 446 407 q 461 428 461 418 q 474 439 467 436 q 489 442 481 442 q 503 441 497 442 q 513 440 508 440 q 518 440 515 440 q 512 453 518 450 q 497 456 506 456 q 481 457 489 457 q 469 463 474 457 q 483 481 469 475 q 520 489 497 486 q 570 492 543 492 q 622 493 597 493 q 660 492 644 493 q 689 492 675 492 q 718 492 703 492 q 756 493 733 492 q 786 496 774 494 l 832 499 q 861 499 843 499 q 876 499 865 499 q 898 497 886 499 q 922 494 910 496 q 939 489 933 493 q 944 486 942 488 q 950 482 950 485 q 949 481 950 482 q 942 476 949 478 q 928 473 935 475 q 915 469 921 471 q 908 464 908 467 q 913 458 908 460 q 924 455 918 457 q 936 450 931 453 q 942 440 942 447 q 951 389 944 414 q 957 331 957 364 q 940 282 957 282 q 939 282 939 282 q 910 288 928 288 q 872 290 892 289 q 880 263 876 274 q 889 225 883 253 l 890 221 q 957 212 931 218 q 983 193 983 206 q 983 192 983 192 q 965 186 978 186 q 938 185 951 186 q 915 182 925 185 q 906 172 906 179 q 906 169 906 171 q 917 169 911 169 q 931 170 922 169 q 953 171 940 171 q 977 168 965 171 q 996 156 989 165 q 1008 140 996 146 q 1033 128 1021 133 q 1049 119 1044 124 q 1053 111 1053 114 q 1044 99 1053 106 q 1035 83 1040 86 q 1022 79 1029 81 q 1012 67 1013 78 q 1010 44 1011 56 q 1006 26 1010 33 q 989 19 1001 19 q 981 19 986 19 q 964 17 972 18 q 949 15 956 17 q 955 -31 953 -14 q 957 -53 957 -49 q 939 -75 957 -74 m 200 383 q 200 403 200 393 q 199 422 199 413 l 199 540 q 199 551 199 549 q 200 556 200 553 q 199 564 200 558 l 199 578 l 200 589 l 200 618 q 198 610 199 614 q 197 601 197 607 l 196 617 l 194 617 l 192 621 q 185 614 185 621 q 188 597 188 607 q 187 586 188 594 q 185 563 186 578 q 183 553 183 558 q 184 545 183 550 q 185 532 185 540 l 185 519 q 185 517 185 518 q 186 515 186 517 q 185 513 186 514 l 185 438 q 188 382 185 410 q 189 374 188 379 q 193 367 190 368 q 193 374 193 369 q 194 379 193 378 q 196 386 196 381 q 194 401 196 390 q 193 419 193 413 q 195 415 194 419 q 197 403 196 410 q 198 391 197 397 q 200 383 199 385 z "},"H":{"ha":1101,"x_min":43,"x_max":1067,"o":"m 317 15 q 311 34 311 21 q 310 60 311 47 q 307 83 310 74 q 297 93 304 93 q 294 93 296 93 q 294 83 294 89 q 295 68 294 78 q 296 46 296 58 q 293 22 296 33 q 281 3 290 10 q 267 -6 272 3 q 256 -26 261 -15 q 247 -44 251 -36 q 236 -53 243 -53 q 224 -46 231 -53 q 208 -36 211 -42 q 204 -24 206 -31 q 192 -13 203 -14 q 169 -12 181 -12 q 151 -7 158 -11 q 144 10 144 -3 q 144 18 144 14 q 132 140 136 76 q 97 138 113 139 q 69 133 81 136 q 67 133 68 133 q 50 143 57 133 q 43 171 43 153 q 43 182 43 176 q 45 214 43 200 q 49 242 47 228 q 51 272 50 257 q 53 307 53 288 q 64 315 54 314 q 85 317 74 317 q 110 317 99 317 q 121 319 121 317 q 121 321 121 321 q 111 326 121 324 q 90 330 101 328 q 69 333 79 332 q 57 338 58 335 q 63 343 57 340 q 69 346 65 344 l 53 353 q 72 357 61 354 q 95 360 82 358 q 125 363 108 361 q 125 389 125 376 l 124 439 q 124 465 124 453 q 124 474 124 469 q 122 490 124 481 q 120 508 121 500 q 119 522 119 517 q 120 536 119 528 q 126 554 121 544 q 133 565 133 558 q 131 578 133 571 q 123 589 124 585 q 122 596 122 593 q 123 603 122 599 q 125 613 124 608 q 126 621 126 618 q 125 631 126 626 q 124 661 124 646 q 126 699 124 676 q 132 751 129 721 q 138 863 138 813 q 137 898 138 868 q 129 957 136 928 q 129 960 129 958 q 139 976 129 969 q 167 983 149 983 q 178 983 172 983 q 210 981 196 983 q 238 978 224 979 q 268 975 253 976 q 303 974 283 974 q 311 961 310 972 q 313 938 313 950 q 313 917 313 926 q 317 907 313 907 q 322 916 319 907 q 326 937 324 925 q 329 958 328 949 q 333 969 331 968 q 333 969 333 969 q 339 964 336 969 q 342 957 340 961 l 349 974 q 354 943 351 960 q 359 908 357 928 q 361 861 361 888 l 350 814 q 339 797 340 807 q 331 779 338 788 q 328 768 328 774 q 335 756 328 761 q 347 727 343 739 q 352 708 351 715 q 353 697 353 701 q 351 681 353 690 q 349 653 350 671 l 349 356 q 360 354 354 354 q 374 353 367 354 l 746 353 q 746 409 746 381 q 744 465 746 438 q 744 474 744 469 q 743 490 744 481 q 741 508 742 500 q 740 522 740 517 q 741 536 740 528 q 747 554 742 544 q 754 565 754 558 q 751 578 754 571 q 744 589 744 585 q 743 596 743 593 q 744 603 743 599 q 746 613 744 608 q 747 621 747 618 q 746 631 747 626 q 744 661 744 646 q 747 699 744 676 q 753 751 750 721 q 758 863 758 813 q 758 898 758 868 q 750 957 757 928 q 750 960 750 958 q 760 976 750 969 q 788 983 769 983 q 799 983 793 983 q 831 981 817 983 q 859 978 844 979 q 889 975 874 976 q 924 974 904 974 q 932 961 931 972 q 933 938 933 950 q 933 917 933 926 q 938 907 933 907 q 942 916 940 907 q 947 937 944 925 q 950 958 949 949 q 954 969 951 968 q 954 969 954 969 q 960 964 957 969 q 963 957 961 961 l 969 974 q 975 943 972 960 q 980 908 978 928 q 982 861 982 888 l 971 814 q 960 797 961 807 q 951 779 958 788 q 949 768 949 774 q 956 756 949 761 q 968 727 964 739 q 973 708 972 715 q 974 697 974 701 q 972 681 974 690 q 969 653 971 671 l 969 342 q 997 322 997 332 q 997 321 997 321 q 969 315 992 315 l 969 300 q 992 297 982 300 q 1010 285 1003 294 q 1022 269 1010 275 q 1047 258 1035 263 q 1063 248 1058 253 q 1067 240 1067 243 q 1058 228 1067 235 q 1049 213 1054 215 q 1036 208 1043 210 q 1026 196 1026 207 q 1024 174 1025 185 q 1019 156 1024 163 q 1003 149 1015 149 q 994 149 1000 149 q 988 147 992 149 l 975 146 q 968 144 972 146 q 960 53 967 92 q 939 15 954 15 q 938 15 938 15 q 932 34 932 21 q 931 60 932 47 q 928 83 931 74 q 918 93 925 93 q 915 93 917 93 q 915 83 915 89 q 916 68 915 78 q 917 46 917 58 q 914 22 917 33 q 901 3 911 10 q 888 -6 893 3 q 877 -26 882 -15 q 868 -44 872 -36 q 857 -53 864 -53 q 844 -46 851 -53 q 829 -36 832 -42 q 825 -24 826 -31 q 813 -13 824 -14 q 790 -12 801 -12 q 772 -7 779 -11 q 765 10 765 -3 q 765 18 765 14 q 753 131 757 75 q 666 129 710 129 q 575 128 622 129 q 564 128 569 128 q 539 126 554 128 q 506 124 524 124 q 472 131 485 124 q 462 138 468 138 q 449 135 456 138 q 438 127 443 128 q 431 126 433 126 q 423 127 428 126 q 413 129 418 128 q 406 131 408 131 q 396 129 400 131 q 376 126 386 126 q 366 127 374 126 q 346 129 358 128 q 338 48 343 81 q 318 15 332 15 q 317 15 317 15 m 894 549 q 894 568 894 558 q 893 588 893 578 l 893 706 q 894 716 893 714 q 894 721 894 718 q 893 729 894 724 l 893 743 l 894 754 l 894 783 q 892 776 893 779 q 892 767 892 772 l 890 782 l 889 782 l 886 786 q 879 779 879 786 q 882 763 882 772 q 881 751 882 760 q 879 728 881 743 q 878 718 878 724 q 878 710 878 715 q 879 697 879 706 l 879 685 q 880 683 879 683 q 881 681 881 682 q 879 678 881 679 l 879 603 q 882 547 879 575 q 883 539 882 544 q 888 532 885 533 q 888 539 888 535 q 889 544 888 543 q 890 551 890 546 q 889 567 890 556 q 888 585 888 578 q 890 580 889 585 q 891 569 890 575 q 892 556 892 563 q 894 549 893 550 m 200 383 q 200 403 200 393 q 199 422 199 413 l 199 540 q 199 551 199 549 q 200 556 200 553 q 199 564 200 558 l 199 578 l 200 589 l 200 618 q 198 610 199 614 q 197 601 197 607 l 196 617 l 194 617 l 192 621 q 185 614 185 621 q 188 597 188 607 q 187 586 188 594 q 185 563 186 578 q 183 553 183 558 q 184 545 183 550 q 185 532 185 540 l 185 519 q 185 517 185 518 q 186 515 186 517 q 185 513 186 514 l 185 438 q 188 382 185 410 q 189 374 188 379 q 193 367 190 368 q 193 374 193 369 q 194 379 193 378 q 196 386 196 381 q 194 401 196 390 q 193 419 193 413 q 195 415 194 419 q 197 403 196 410 q 198 391 197 397 q 200 383 199 385 z "},"I":{"ha":368,"x_min":64,"x_max":306,"o":"m 261 15 q 256 34 256 21 q 255 60 256 47 q 251 83 254 74 q 242 93 249 93 q 239 93 240 93 q 239 83 239 89 q 240 68 239 78 q 240 46 240 58 q 238 22 240 33 q 225 3 235 10 q 211 -6 217 3 q 201 -26 206 -15 q 192 -44 196 -36 q 181 -53 188 -53 q 168 -46 175 -53 q 153 -36 156 -42 q 149 -24 150 -31 q 136 -13 147 -14 q 114 -12 125 -12 q 96 -7 103 -11 q 89 10 89 -3 q 89 18 89 14 q 72 242 72 131 q 68 465 71 353 q 68 474 68 469 q 67 490 68 481 q 65 508 65 500 q 64 522 64 517 q 65 536 64 528 q 71 554 65 544 q 78 565 78 558 q 75 578 78 571 q 67 589 68 585 q 67 596 67 593 q 67 603 67 599 q 69 613 68 608 q 71 621 71 618 q 69 631 71 626 q 68 661 68 646 q 71 699 68 676 q 76 751 74 721 q 82 863 82 813 q 81 898 82 868 q 74 957 81 928 q 74 960 74 958 q 83 976 74 969 q 111 983 93 983 q 122 983 117 983 q 154 981 140 983 q 183 978 168 979 q 213 975 197 976 q 247 974 228 974 q 256 961 254 972 q 257 938 257 950 q 257 917 257 926 q 261 907 257 907 q 266 916 264 907 q 270 937 268 925 q 274 958 272 949 q 278 969 275 968 q 278 969 278 969 q 283 964 281 969 q 286 957 285 961 l 293 974 q 299 943 296 960 q 303 908 301 928 q 306 861 306 888 l 294 814 q 283 797 285 807 q 275 779 282 788 q 272 768 272 774 q 279 756 272 761 q 292 727 288 739 q 297 708 296 715 q 297 697 297 701 q 296 681 297 690 q 293 653 294 671 l 293 264 q 292 179 293 224 q 289 98 292 135 q 280 38 286 61 q 263 15 274 15 q 261 15 263 15 m 144 383 q 144 403 144 393 q 143 422 143 413 l 143 540 q 144 551 143 549 q 144 556 144 553 q 143 564 144 558 l 143 578 l 144 589 l 144 618 q 142 610 143 614 q 142 601 142 607 l 140 617 l 139 617 l 136 621 q 129 614 129 621 q 132 597 132 607 q 131 586 132 594 q 129 563 131 578 q 128 553 128 558 q 128 545 128 550 q 129 532 129 540 l 129 519 q 130 517 129 518 q 131 515 131 517 q 129 513 131 514 l 129 438 q 132 382 129 410 q 133 374 132 379 q 138 367 135 368 q 138 374 138 369 q 139 379 138 378 q 140 386 140 381 q 139 401 140 390 q 138 419 138 413 q 140 415 139 419 q 141 403 140 410 q 142 391 142 397 q 144 383 143 385 z "},"J":{"ha":897,"x_min":28,"x_max":842,"o":"m 797 -43 q 792 -29 792 -37 q 791 -12 792 -21 q 788 1 790 -4 q 779 6 785 6 q 775 6 776 6 q 775 -4 775 1 q 776 -15 775 -8 q 776 -28 776 -21 q 774 -42 776 -35 q 761 -56 771 -49 q 747 -65 753 -56 q 737 -84 742 -74 q 728 -103 732 -94 q 717 -111 724 -111 q 704 -104 711 -111 q 689 -94 692 -100 q 685 -82 686 -89 q 672 -72 683 -72 q 650 -70 661 -71 q 632 -65 639 -69 q 625 -49 625 -61 q 625 -40 625 -46 q 622 -17 622 -29 q 619 8 621 -4 q 614 8 617 8 l 606 7 q 600 7 603 7 q 549 1 571 4 q 511 -3 526 -3 q 481 0 496 -3 q 471 1 476 1 q 463 0 468 1 q 453 -2 458 -1 q 446 -3 449 -3 q 439 -2 443 -3 q 428 6 435 -1 q 415 8 421 8 q 404 1 408 8 q 351 -6 394 -6 q 283 -2 322 -6 q 208 6 244 1 q 142 14 172 10 q 100 19 113 18 q 92 19 96 19 q 76 26 81 19 q 70 44 71 33 q 69 67 69 56 q 58 79 68 78 q 46 83 51 81 q 36 99 40 86 q 28 111 28 106 q 32 119 28 114 q 48 128 36 124 q 72 140 60 133 q 85 156 85 146 q 103 168 92 165 q 128 171 115 171 q 150 170 140 171 q 165 169 160 169 q 175 169 171 169 q 175 172 175 171 q 165 182 175 179 q 142 185 156 185 q 116 186 129 186 q 97 192 103 186 q 97 193 97 193 q 120 210 97 204 q 180 219 143 217 q 261 223 217 222 q 346 224 306 224 l 503 224 q 531 226 521 225 q 547 228 540 228 q 558 227 551 228 q 576 222 565 226 q 604 210 588 218 q 607 206 607 207 q 606 341 606 275 q 604 465 606 407 q 604 474 604 469 q 603 490 604 481 q 601 508 601 500 q 600 522 600 517 q 601 536 600 528 q 607 554 601 544 q 614 565 614 558 q 611 578 614 571 q 603 589 604 585 q 603 596 603 593 q 603 603 603 599 q 606 613 604 608 q 607 621 607 618 q 606 631 607 626 q 604 661 604 646 q 607 699 604 676 q 613 751 610 721 q 618 863 618 813 q 617 898 618 868 q 610 957 617 928 q 610 960 610 958 q 619 976 610 969 q 647 983 629 983 q 658 983 653 983 q 690 981 676 983 q 719 978 704 979 q 749 975 733 976 q 783 974 764 974 q 792 961 790 972 q 793 938 793 950 q 793 917 793 926 q 797 907 793 907 q 802 916 800 907 q 806 937 804 925 q 810 958 808 949 q 814 969 811 968 q 814 969 814 969 q 819 964 817 969 q 822 957 821 961 l 829 974 q 835 943 832 960 q 840 908 838 928 q 842 861 842 888 l 831 814 q 819 797 821 807 q 811 779 818 788 q 808 768 808 774 q 815 756 808 761 q 828 727 824 739 q 833 708 832 715 q 833 697 833 701 q 832 681 833 690 q 829 653 831 671 l 829 196 q 828 119 829 157 q 831 88 829 104 q 833 53 832 72 q 833 47 833 50 q 819 7 833 17 q 811 -30 817 -17 q 799 -43 806 -43 q 797 -43 799 -43 m 754 549 q 754 568 754 558 q 753 588 753 578 l 753 706 q 753 716 753 714 q 754 721 754 718 q 753 729 754 724 l 753 743 l 754 754 l 754 783 q 752 776 753 779 q 751 767 751 772 l 750 782 l 749 782 l 746 786 q 739 779 739 786 q 742 763 742 772 q 741 751 742 760 q 739 728 740 743 q 738 718 738 724 q 738 710 738 715 q 739 697 739 706 l 739 685 q 740 683 739 683 q 740 681 740 682 q 739 678 740 679 l 739 603 q 742 547 739 575 q 743 539 742 544 q 747 532 744 533 q 747 539 747 535 q 749 544 747 543 q 750 551 750 546 q 749 567 750 556 q 747 585 747 578 q 749 580 749 585 q 751 569 750 575 q 752 556 751 563 q 754 549 753 550 z "},"K":{"ha":1088,"x_min":43,"x_max":1053,"o":"m 317 15 q 311 34 311 21 q 310 60 311 47 q 307 83 310 74 q 297 93 304 93 q 294 93 296 93 q 294 83 294 89 q 295 68 294 78 q 296 46 296 58 q 293 22 296 33 q 281 3 290 10 q 267 -6 272 3 q 256 -26 261 -15 q 247 -44 251 -36 q 236 -53 243 -53 q 224 -46 231 -53 q 208 -36 211 -42 q 204 -24 206 -31 q 192 -13 203 -14 q 169 -12 181 -12 q 151 -7 158 -11 q 144 10 144 -3 q 144 18 144 14 q 132 140 136 76 q 97 138 113 139 q 69 133 81 136 q 67 133 68 133 q 50 143 57 133 q 43 171 43 153 q 43 182 43 176 q 45 214 43 200 q 49 242 47 228 q 51 272 50 257 q 53 307 53 288 q 64 315 54 314 q 85 317 74 317 q 110 317 99 317 q 121 319 121 317 q 121 321 121 321 q 111 326 121 324 q 90 330 101 328 q 69 333 79 332 q 57 338 58 335 q 63 343 57 340 q 69 346 65 344 l 53 353 q 72 357 61 354 q 95 360 82 358 q 125 363 108 361 q 125 389 125 376 l 124 439 q 124 465 124 453 q 124 474 124 469 q 122 490 124 481 q 120 508 121 500 q 119 522 119 517 q 120 536 119 528 q 126 554 121 544 q 133 565 133 558 q 131 578 133 571 q 123 589 124 585 q 122 596 122 593 q 123 603 122 599 q 125 613 124 608 q 126 621 126 618 q 125 631 126 626 q 124 661 124 646 q 126 699 124 676 q 132 751 129 721 q 138 863 138 813 q 137 898 138 868 q 129 957 136 928 q 129 960 129 958 q 139 976 129 969 q 167 983 149 983 q 178 983 172 983 q 210 981 196 983 q 238 978 224 979 q 268 975 253 976 q 303 974 283 974 q 311 961 310 972 q 313 938 313 950 q 313 917 313 926 q 317 907 313 907 q 322 916 319 907 q 326 937 324 925 q 329 958 328 949 q 333 969 331 968 q 333 969 333 969 q 339 964 336 969 q 342 957 340 961 l 349 974 q 354 943 351 960 q 359 908 357 928 q 361 861 361 888 l 350 814 q 339 797 340 807 q 331 779 338 788 q 328 768 328 774 q 335 756 328 761 q 347 727 343 739 q 352 708 351 715 q 353 697 353 701 q 351 681 353 690 q 349 653 350 671 l 349 356 q 360 354 354 354 q 374 353 367 354 q 446 354 406 354 q 510 353 467 354 q 619 353 554 353 q 646 471 631 413 q 675 588 661 529 q 678 606 678 596 q 681 625 679 615 q 685 644 682 635 q 697 658 689 653 q 706 671 706 661 q 706 676 706 674 q 700 688 700 682 q 701 690 700 688 q 703 699 701 693 q 708 709 706 704 q 711 721 711 714 q 725 771 714 747 q 744 818 736 794 q 775 914 764 872 q 786 981 786 956 q 786 986 786 983 q 810 1000 789 1000 q 839 994 824 1000 q 896 975 872 985 q 957 956 919 965 q 963 946 963 953 q 962 939 963 944 q 959 924 961 933 q 956 908 957 914 q 954 901 954 903 q 957 897 954 897 q 958 897 957 897 q 963 903 960 897 q 971 919 967 910 q 979 935 975 928 q 986 944 983 943 q 990 939 988 944 q 992 932 990 936 l 1001 943 q 1000 917 1001 932 q 997 887 999 904 q 989 849 994 869 l 968 813 q 954 802 957 810 q 942 789 951 794 q 938 779 938 785 q 942 769 938 775 q 947 746 946 753 q 949 733 949 739 q 947 722 949 729 q 942 706 946 715 q 932 682 938 697 q 914 611 925 653 l 868 438 q 849 365 857 394 q 847 363 849 364 l 846 354 q 844 351 846 353 q 942 344 901 350 q 983 322 983 338 q 983 321 983 321 q 965 315 978 315 q 938 315 951 315 q 915 311 925 314 q 906 301 906 308 q 906 299 906 300 q 917 299 911 299 q 931 299 922 299 q 953 300 940 300 q 977 297 965 300 q 996 285 989 294 q 1008 269 996 275 q 1033 258 1021 263 q 1049 248 1044 253 q 1053 240 1053 243 q 1044 228 1053 235 q 1035 213 1040 215 q 1022 208 1029 210 q 1012 196 1013 207 q 1010 174 1011 185 q 1006 156 1010 163 q 989 149 1001 149 q 981 149 986 149 l 979 149 q 971 54 976 93 q 950 15 965 15 q 949 15 949 15 q 943 34 943 21 q 942 60 943 47 q 939 83 942 74 q 929 93 936 93 q 926 93 928 93 q 926 83 926 89 q 927 68 926 78 q 928 46 928 58 q 925 22 928 33 q 913 3 922 10 q 899 -6 904 3 q 888 -26 893 -15 q 879 -44 883 -36 q 868 -53 875 -53 q 856 -46 863 -53 q 840 -36 843 -42 q 836 -24 838 -31 q 824 -13 835 -14 q 801 -12 813 -12 q 783 -7 790 -11 q 776 10 776 -3 q 776 18 776 14 q 767 81 771 54 q 761 131 764 108 q 663 129 713 129 q 561 128 614 129 q 551 128 556 128 q 529 126 542 128 q 501 124 517 124 q 472 131 485 124 q 462 138 468 138 q 449 135 456 138 q 438 127 443 128 q 431 126 433 126 q 423 127 428 126 q 413 129 418 128 q 406 131 408 131 q 396 129 400 131 q 376 126 386 126 q 366 127 374 126 q 346 129 358 128 q 338 48 343 81 q 318 15 332 15 q 317 15 317 15 m 838 617 q 842 633 839 625 q 849 664 843 646 q 859 703 853 678 q 869 744 865 728 q 873 754 872 751 q 875 764 874 757 q 876 767 876 767 q 878 775 878 772 l 882 783 q 886 800 886 794 q 888 807 888 804 q 885 801 886 804 q 882 794 883 799 l 883 807 l 881 811 q 879 813 881 813 q 872 808 876 813 q 869 790 872 801 q 861 767 865 779 q 858 754 858 760 q 856 742 857 749 q 853 731 853 736 q 853 731 853 731 q 853 728 853 729 q 853 728 853 728 q 851 725 853 726 q 849 717 850 722 q 847 710 847 713 q 825 618 833 664 q 824 614 824 615 q 824 613 824 613 q 825 613 825 613 q 826 613 825 613 q 826 613 826 613 q 825 608 826 611 q 826 606 825 607 q 828 611 828 608 q 832 614 829 614 q 836 629 835 617 q 839 647 838 642 q 840 644 840 647 q 839 632 840 640 q 838 619 838 624 q 838 617 838 618 m 200 383 q 200 403 200 393 q 199 422 199 413 l 199 540 q 199 551 199 549 q 200 556 200 553 q 199 564 200 558 l 199 578 l 200 589 l 200 618 q 198 610 199 614 q 197 601 197 607 l 196 617 l 194 617 l 192 621 q 185 614 185 621 q 188 597 188 607 q 187 586 188 594 q 185 563 186 578 q 183 553 183 558 q 184 545 183 550 q 185 532 185 540 l 185 519 q 185 517 185 518 q 186 515 186 517 q 185 513 186 514 l 185 438 q 188 382 185 410 q 189 374 188 379 q 193 367 190 368 q 193 374 193 369 q 194 379 193 378 q 196 386 196 381 q 194 401 196 390 q 193 419 193 413 q 195 415 194 419 q 197 403 196 410 q 198 391 197 397 q 200 383 199 385 z "},"L":{"ha":928,"x_min":43,"x_max":900,"o":"m 831 190 q 812 185 825 185 q 785 184 799 185 q 763 181 772 183 q 753 171 753 178 q 753 168 753 169 q 764 168 758 168 q 778 169 769 168 q 800 169 788 169 q 824 167 813 169 q 843 154 836 164 q 856 138 843 144 q 880 127 868 132 q 896 117 892 122 q 900 110 900 113 q 892 97 900 104 q 882 82 888 85 q 869 78 876 79 q 859 63 860 76 q 858 36 858 50 q 853 14 857 22 q 836 6 849 6 q 828 6 832 6 q 692 -1 764 -1 q 561 -3 619 -1 q 551 -3 556 -3 q 529 -5 542 -3 q 501 -7 517 -7 q 472 0 485 -7 q 462 7 468 7 q 449 4 456 7 q 438 -3 443 -3 q 431 -4 433 -4 q 423 -3 428 -4 q 413 -1 418 -3 q 406 0 408 0 q 396 -1 400 0 q 368 -4 382 -4 q 333 -1 354 -4 q 283 6 311 3 l 281 3 q 267 -6 272 3 q 256 -26 261 -15 q 247 -44 251 -36 q 236 -53 243 -53 q 224 -46 231 -53 q 208 -36 211 -42 q 204 -24 206 -31 q 192 -13 203 -14 q 172 -12 182 -12 q 152 -8 161 -11 q 143 10 143 -4 q 69 3 100 10 q 67 3 68 3 q 50 13 57 3 q 43 40 43 22 q 43 51 43 46 q 45 83 43 69 q 49 112 47 97 q 51 142 50 126 q 53 176 53 157 q 64 185 54 183 q 85 186 74 186 q 110 186 99 186 q 121 189 121 186 q 121 190 121 190 q 111 195 121 193 q 90 199 101 197 q 69 203 79 201 q 57 207 58 204 q 63 213 57 210 q 69 215 65 214 l 53 222 q 72 226 61 224 q 126 233 94 232 q 125 321 125 278 l 125 378 q 124 465 125 422 q 124 474 124 469 q 122 490 124 481 q 120 508 121 500 q 119 522 119 517 q 120 536 119 528 q 126 554 121 544 q 133 565 133 558 q 131 578 133 571 q 123 589 124 585 q 122 596 122 593 q 123 603 122 599 q 125 613 124 608 q 126 621 126 618 q 125 631 126 626 q 124 661 124 646 q 126 699 124 676 q 132 751 129 721 q 138 863 138 813 q 137 898 138 868 q 129 957 136 928 q 129 960 129 958 q 139 976 129 969 q 167 983 149 983 q 178 983 172 983 q 210 981 196 983 q 238 978 224 979 q 268 975 253 976 q 303 974 283 974 q 311 961 310 972 q 313 938 313 950 q 313 917 313 926 q 317 907 313 907 q 322 916 319 907 q 326 937 324 925 q 329 958 328 949 q 333 969 331 968 q 333 969 333 969 q 339 964 336 969 q 342 957 340 961 l 349 974 q 354 943 351 960 q 359 908 357 928 q 361 861 361 888 l 350 814 q 339 797 340 807 q 331 779 338 788 q 328 768 328 774 q 335 756 328 761 q 347 727 343 739 q 352 708 351 715 q 353 697 353 701 q 351 681 353 690 q 349 653 350 671 l 349 225 q 360 224 354 224 q 374 222 367 224 l 582 222 q 667 222 622 222 q 748 218 711 221 q 808 209 785 215 q 831 192 831 203 q 831 190 831 192 m 200 383 q 200 403 200 393 q 199 422 199 413 l 199 540 q 199 551 199 549 q 200 556 200 553 q 199 564 200 558 l 199 578 l 200 589 l 200 618 q 198 610 199 614 q 197 601 197 607 l 196 617 l 194 617 l 192 621 q 185 614 185 621 q 188 597 188 607 q 187 586 188 594 q 185 563 186 578 q 183 553 183 558 q 184 545 183 550 q 185 532 185 540 l 185 519 q 185 517 185 518 q 186 515 186 517 q 185 513 186 514 l 185 438 q 188 382 185 410 q 189 374 188 379 q 193 367 190 368 q 193 374 193 369 q 194 379 193 378 q 196 386 196 381 q 194 401 196 390 q 193 419 193 413 q 195 415 194 419 q 197 403 196 410 q 198 391 197 397 q 200 383 199 385 z "},"M":{"ha":1156,"x_min":64,"x_max":1093,"o":"m 261 15 q 256 34 256 21 q 255 60 256 47 q 251 83 254 74 q 242 93 249 93 q 239 93 240 93 q 239 83 239 89 q 240 68 239 78 q 240 46 240 58 q 238 22 240 33 q 225 3 235 10 q 211 -6 217 3 q 201 -26 206 -15 q 192 -44 196 -36 q 181 -53 188 -53 q 168 -46 175 -53 q 153 -36 156 -42 q 149 -24 150 -31 q 136 -13 147 -14 q 114 -12 125 -12 q 96 -7 103 -11 q 89 10 89 -3 q 89 18 89 14 q 72 242 72 131 q 68 465 71 353 q 68 474 68 469 q 67 490 68 481 q 65 508 65 500 q 64 522 64 517 q 65 536 64 528 q 71 554 65 544 q 78 565 78 558 q 75 578 78 571 q 67 589 68 585 q 67 596 67 593 q 67 603 67 599 q 69 613 68 608 q 71 621 71 618 q 69 631 71 626 q 68 661 68 646 q 71 699 68 676 q 76 751 74 721 q 82 863 82 813 q 81 898 82 868 q 74 957 81 928 q 74 960 74 958 q 83 976 74 969 q 111 983 93 983 q 122 983 117 983 q 168 980 149 982 q 211 975 188 978 l 271 975 q 292 976 279 975 q 315 979 303 979 q 346 979 326 979 q 363 968 356 979 q 376 942 371 957 q 386 913 382 928 q 394 892 390 899 l 407 842 q 404 829 404 835 q 407 818 404 824 q 410 806 410 813 q 408 797 410 801 q 412 783 408 790 q 422 776 415 776 q 447 755 438 764 q 460 735 456 746 q 470 713 465 725 q 482 682 475 701 q 510 628 500 647 q 528 594 519 610 q 545 559 536 578 q 571 506 554 540 q 574 501 572 504 l 576 494 q 579 490 578 493 q 582 498 581 494 q 586 506 583 501 q 612 559 603 540 q 629 594 621 578 q 647 628 638 610 q 675 682 657 647 q 687 713 682 701 q 697 735 692 725 q 710 755 701 746 q 735 776 719 764 q 745 783 742 776 q 749 797 749 790 q 747 806 747 801 q 750 818 747 813 q 753 829 753 824 q 750 842 753 835 l 763 892 q 799 959 788 943 q 817 976 811 975 q 849 980 828 978 q 886 982 869 982 q 894 984 890 983 q 901 985 899 985 q 910 983 906 985 q 942 981 928 983 q 970 978 956 979 q 1000 975 985 976 q 1035 974 1015 974 q 1043 961 1042 972 q 1044 938 1044 950 q 1044 917 1044 926 q 1049 907 1044 907 q 1053 916 1051 907 q 1058 937 1056 925 q 1061 958 1060 949 q 1065 969 1063 968 q 1065 969 1065 969 q 1071 964 1068 969 q 1074 957 1072 961 l 1081 974 q 1086 943 1083 960 q 1091 908 1089 928 q 1093 861 1093 888 l 1082 814 q 1071 797 1072 807 q 1063 779 1069 788 q 1060 768 1060 774 q 1067 756 1060 761 q 1079 727 1075 739 q 1084 708 1083 715 q 1085 697 1085 701 q 1083 681 1085 690 q 1081 653 1082 671 l 1081 264 q 1080 179 1081 224 q 1076 98 1079 135 q 1067 38 1074 61 q 1050 15 1061 15 q 1049 15 1050 15 q 1043 34 1043 21 q 1042 60 1043 47 q 1039 83 1042 74 q 1029 93 1036 93 q 1026 93 1028 93 q 1026 83 1026 89 q 1027 68 1026 78 q 1028 46 1028 58 q 1025 22 1028 33 q 1013 3 1022 10 q 999 -6 1004 3 q 988 -26 993 -15 q 979 -44 983 -36 q 968 -53 975 -53 q 956 -46 963 -53 q 940 -36 943 -42 q 936 -24 938 -31 q 924 -13 935 -14 q 901 -12 913 -12 q 883 -7 890 -11 q 876 10 876 -3 q 876 18 876 14 q 859 242 860 131 q 856 465 858 353 q 856 474 856 469 q 854 490 856 481 q 852 508 853 500 q 851 522 851 517 q 852 536 851 528 q 858 554 853 544 q 865 563 865 557 q 864 574 865 568 l 854 558 q 847 547 849 553 q 845 538 846 542 q 842 529 844 533 q 829 522 839 525 q 822 510 824 515 q 819 503 819 506 q 821 496 819 500 q 821 490 821 493 q 817 470 821 481 q 808 449 814 460 q 794 428 801 439 q 782 407 786 418 q 753 349 764 371 q 733 312 742 326 q 719 286 725 297 q 703 260 713 275 q 679 226 693 246 q 643 171 665 206 q 631 151 639 156 q 627 142 629 144 q 622 140 625 140 q 611 143 618 140 q 606 143 608 143 q 594 146 599 143 q 586 156 590 149 q 579 161 582 160 q 571 156 575 160 q 563 146 567 149 q 551 143 558 143 q 546 143 549 143 q 535 140 539 140 q 531 142 533 140 q 526 151 528 144 q 514 171 518 156 q 478 226 492 206 q 454 260 464 246 q 438 286 444 275 q 424 312 432 297 q 404 349 415 326 q 375 407 393 371 q 351 449 365 431 q 336 492 336 468 q 336 496 336 493 q 338 503 338 500 q 335 510 338 506 q 328 522 333 515 q 315 529 318 525 q 312 538 313 533 q 310 547 311 542 q 303 558 308 553 q 298 566 300 563 q 293 575 296 569 l 293 264 q 292 179 293 224 q 289 98 292 135 q 280 38 286 61 q 263 15 274 15 q 261 15 263 15 m 1006 549 q 1006 568 1006 558 q 1004 588 1004 578 l 1004 706 q 1005 716 1004 714 q 1006 721 1006 718 q 1004 729 1006 724 l 1004 743 l 1006 754 l 1006 783 q 1003 776 1004 779 q 1003 767 1003 772 l 1001 782 l 1000 782 l 997 786 q 990 779 990 786 q 993 763 993 772 q 992 751 993 760 q 990 728 992 743 q 989 718 989 724 q 990 710 989 715 q 990 697 990 706 l 990 685 q 991 683 990 683 q 992 681 992 682 q 990 678 992 679 l 990 603 q 993 547 990 575 q 994 539 993 544 q 999 532 996 533 q 999 539 999 535 q 1000 544 999 543 q 1001 551 1001 546 q 1000 567 1001 556 q 999 585 999 578 q 1001 580 1000 585 q 1002 569 1001 575 q 1003 556 1003 563 q 1006 549 1004 550 m 144 383 q 144 403 144 393 q 143 422 143 413 l 143 540 q 144 551 143 549 q 144 556 144 553 q 143 564 144 558 l 143 578 l 144 589 l 144 618 q 142 610 143 614 q 142 601 142 607 l 140 617 l 139 617 l 136 621 q 129 614 129 621 q 132 597 132 607 q 131 586 132 594 q 129 563 131 578 q 128 553 128 558 q 128 545 128 550 q 129 532 129 540 l 129 519 q 130 517 129 518 q 131 515 131 517 q 129 513 131 514 l 129 438 q 132 382 129 410 q 133 374 132 379 q 138 367 135 368 q 138 374 138 369 q 139 379 138 378 q 140 386 140 381 q 139 401 140 390 q 138 419 138 413 q 140 415 139 419 q 141 403 140 410 q 142 391 142 397 q 144 383 143 385 z "},"N":{"ha":1029,"x_min":49,"x_max":972,"o":"m 272 15 q 267 34 267 21 q 266 60 267 47 q 263 83 265 74 q 253 93 260 93 q 250 93 251 93 q 250 83 250 89 q 251 68 250 78 q 251 46 251 58 q 249 22 251 33 q 236 3 246 10 q 222 -6 228 3 q 212 -26 217 -15 q 203 -44 207 -36 q 192 -53 199 -53 q 179 -46 186 -53 q 164 -36 167 -42 q 160 -24 161 -31 q 147 -13 158 -14 q 125 -12 136 -12 q 107 -7 114 -11 q 100 10 100 -3 q 100 18 100 14 q 83 242 83 131 q 79 465 82 353 q 79 474 79 469 q 78 490 79 481 q 76 508 76 500 q 75 522 75 517 q 76 536 75 528 q 82 554 76 544 q 89 565 89 558 q 86 578 89 571 q 78 589 79 585 q 78 596 78 593 q 78 603 78 599 q 81 613 79 608 q 82 621 82 618 q 81 631 82 626 q 79 657 79 644 q 81 688 79 669 q 86 733 83 707 q 73 740 79 738 q 60 744 67 742 q 49 758 50 751 q 49 767 49 765 q 64 800 49 781 q 78 819 71 811 q 92 836 85 828 q 93 874 93 857 q 92 915 93 892 q 85 957 90 938 q 85 960 85 958 q 94 976 85 969 q 122 983 104 983 q 133 983 128 983 q 165 981 151 983 q 194 978 179 979 q 224 975 208 976 q 258 974 239 974 q 267 961 265 972 q 268 938 268 950 q 268 917 268 926 q 272 907 268 907 q 277 916 275 907 q 281 937 279 925 q 285 958 283 949 q 289 969 286 968 q 289 969 289 969 q 294 964 292 969 q 297 957 296 961 l 304 974 q 310 943 307 960 q 315 908 313 928 q 317 861 317 888 l 310 833 q 316 826 313 829 q 321 817 319 822 q 328 808 324 810 q 335 806 332 806 q 342 807 339 806 q 372 803 361 806 q 392 794 383 800 q 411 781 401 789 q 435 763 421 774 q 494 727 460 747 q 565 685 528 707 q 641 641 603 664 q 713 599 679 618 q 715 611 714 606 q 717 619 717 617 q 715 631 717 625 q 714 661 714 646 q 717 699 714 676 q 722 751 719 721 q 728 863 728 813 q 727 898 728 868 q 719 957 726 928 q 719 960 719 958 q 729 976 719 969 q 757 983 739 983 q 768 983 763 983 q 800 981 786 983 q 828 978 814 979 q 858 975 843 976 q 893 974 874 974 q 901 961 900 972 q 903 938 903 950 q 903 917 903 926 q 907 907 903 907 q 912 916 910 907 q 916 937 914 925 q 919 958 918 949 q 924 969 921 968 q 924 969 924 969 q 929 964 926 969 q 932 957 931 961 l 939 974 q 944 943 942 960 q 949 908 947 928 q 951 861 951 888 l 940 814 q 929 797 931 807 q 921 779 928 788 q 918 768 918 774 q 925 756 918 761 q 938 727 933 739 q 942 708 942 715 q 943 697 943 701 q 942 681 943 690 q 939 653 940 671 q 940 593 940 626 q 940 538 940 576 q 939 440 939 500 q 958 411 958 424 q 956 404 958 407 q 954 404 956 404 q 939 408 950 404 l 939 386 q 947 367 947 375 q 944 358 944 363 q 950 344 944 353 q 963 324 956 335 q 972 308 971 313 q 972 303 972 303 q 957 292 972 294 q 947 286 950 288 q 939 282 943 285 l 939 264 q 938 179 939 224 q 935 98 938 135 q 926 38 932 61 q 908 15 919 15 q 907 15 908 15 q 901 34 901 21 q 901 60 901 47 q 897 83 900 74 q 888 93 894 93 q 885 93 886 93 q 885 83 885 89 q 885 68 885 78 q 886 46 886 58 q 883 22 886 33 q 871 3 881 10 q 857 -6 863 3 q 847 -26 851 -15 q 838 -44 842 -36 q 826 -53 833 -53 q 814 -46 821 -53 q 799 -36 801 -42 q 794 -24 796 -31 q 782 -13 793 -14 q 760 -12 771 -12 q 742 -7 749 -11 q 735 10 735 -3 q 735 18 735 14 q 720 175 724 97 q 715 331 717 253 q 592 399 653 364 q 469 472 531 433 q 429 494 451 486 q 396 524 407 501 q 396 526 396 525 q 391 534 396 532 q 379 539 386 536 q 372 539 375 539 q 363 540 367 539 q 353 547 358 542 q 344 556 349 551 q 332 564 339 561 q 318 571 325 567 q 304 579 311 575 l 304 264 q 303 179 304 224 q 300 98 303 135 q 291 38 297 61 q 274 15 285 15 q 272 15 274 15 m 864 549 q 864 568 864 558 q 863 588 863 578 l 863 706 q 863 716 863 714 q 864 721 864 718 q 863 729 864 724 l 863 743 l 864 754 l 864 783 q 862 776 863 779 q 861 767 861 772 l 860 782 l 858 782 l 856 786 q 849 779 849 786 q 851 763 851 772 q 851 751 851 760 q 849 728 850 743 q 847 718 847 724 q 848 710 847 715 q 849 697 849 706 l 849 685 q 849 683 849 683 q 850 681 850 682 q 849 678 850 679 l 849 603 q 851 547 849 575 q 853 539 851 544 q 857 532 854 533 q 857 539 857 535 q 858 544 857 543 q 860 551 860 546 q 858 567 860 556 q 857 585 857 578 q 859 580 858 585 q 860 569 860 575 q 862 556 861 563 q 864 549 863 550 m 156 383 q 156 403 156 393 q 154 422 154 413 l 154 540 q 155 551 154 549 q 156 556 156 553 q 154 564 156 558 l 154 578 l 156 589 l 156 618 q 153 610 154 614 q 153 601 153 607 l 151 617 l 150 617 l 147 621 q 140 614 140 621 q 143 597 143 607 q 142 586 143 594 q 140 563 142 578 q 139 553 139 558 q 140 545 139 550 q 140 532 140 540 l 140 519 q 141 517 140 518 q 142 515 142 517 q 140 513 142 514 l 140 438 q 143 382 140 410 q 144 374 143 379 q 149 367 146 368 q 149 374 149 369 q 150 379 149 378 q 151 386 151 381 q 150 401 151 390 q 149 419 149 413 q 151 415 150 419 q 152 403 151 410 q 153 391 153 397 q 156 383 154 385 z "},"O":{"ha":1094,"x_min":43,"x_max":1053,"o":"m 951 15 q 938 13 944 14 q 924 13 931 13 q 915 3 921 8 q 901 -6 907 3 q 891 -26 896 -15 q 882 -44 886 -36 q 871 -53 878 -53 q 858 -46 865 -53 q 843 -36 846 -42 q 840 -26 842 -32 l 839 -22 q 829 -14 836 -15 q 810 -12 821 -12 q 791 -10 800 -12 q 779 1 782 -8 q 673 0 726 0 q 561 -1 619 0 q 551 -1 556 -1 q 529 -3 542 -1 q 501 -6 517 -6 q 472 1 485 -6 q 462 8 468 8 q 449 6 456 8 q 438 -2 443 -1 q 431 -3 433 -3 q 423 -2 428 -3 q 413 0 418 -1 q 406 1 408 1 q 396 0 400 1 q 365 -3 381 -3 q 328 1 350 -3 q 276 7 306 4 q 272 7 275 7 l 263 8 q 258 8 261 8 q 256 6 257 7 q 253 3 256 4 q 239 -6 244 3 q 228 -26 233 -15 q 219 -44 224 -36 q 208 -53 215 -53 q 196 -46 203 -53 q 181 -36 183 -42 q 176 -24 178 -31 q 165 -13 175 -14 q 144 -12 154 -12 q 124 -8 133 -11 q 115 11 115 -4 q 90 8 101 10 q 69 4 79 7 q 67 4 68 4 q 50 14 57 4 q 43 42 43 24 q 43 53 43 47 q 45 85 43 71 q 49 113 47 99 q 51 143 50 128 q 53 178 53 158 q 71 187 56 186 q 101 188 86 188 l 100 199 q 74 203 88 201 q 57 208 60 206 q 63 214 57 211 q 69 217 65 215 l 53 224 l 72 228 q 79 229 75 229 q 99 232 88 231 q 97 319 97 276 l 97 378 q 96 465 97 422 q 96 474 96 469 q 94 490 96 481 q 92 508 93 500 q 92 522 92 517 q 92 536 92 528 q 99 554 93 544 q 106 565 106 558 q 103 578 106 571 q 95 589 96 585 q 94 596 94 593 q 95 603 94 599 q 97 613 96 608 q 99 621 99 618 q 97 631 99 626 q 96 661 96 646 q 99 699 96 676 q 104 751 101 721 l 104 758 q 69 753 81 756 q 67 753 68 753 q 50 763 57 753 q 43 790 43 772 q 43 801 43 796 q 45 833 43 819 q 49 862 47 847 q 51 892 50 876 q 53 926 53 907 q 73 936 56 936 q 106 936 90 936 q 104 947 104 940 q 75 952 90 950 q 57 957 60 954 q 63 963 57 960 q 69 965 65 964 l 53 972 q 74 976 63 974 q 99 981 85 979 q 132 983 114 982 l 139 983 q 153 985 146 985 q 167 985 160 985 l 181 982 q 224 976 204 979 q 275 974 244 974 q 283 964 282 971 q 306 973 296 971 q 322 976 315 975 q 332 976 328 976 q 348 975 339 976 q 374 972 357 974 l 768 972 q 801 983 778 983 q 813 983 807 983 q 844 981 831 983 q 873 978 858 979 q 903 975 888 976 q 938 974 918 974 q 946 963 943 972 q 964 958 953 961 q 968 969 967 968 q 968 969 968 969 q 974 964 971 969 q 976 957 975 961 l 983 974 q 988 956 985 967 q 990 935 989 947 q 993 907 992 922 l 996 904 q 1008 888 996 894 q 1033 877 1021 882 q 1049 867 1044 872 q 1053 860 1053 863 q 1044 847 1053 854 q 1035 832 1040 835 q 1022 828 1029 829 q 1012 815 1013 826 q 1010 793 1011 804 q 1006 775 1010 782 q 989 768 1001 768 q 981 768 986 768 q 974 767 978 767 l 969 767 q 963 765 965 767 q 969 756 965 758 q 982 727 978 739 q 987 708 986 715 q 988 697 988 701 q 986 681 988 690 q 983 653 985 671 l 983 192 q 982 178 982 185 q 982 165 982 172 q 996 156 988 164 q 1008 140 996 146 q 1033 128 1021 133 q 1049 119 1044 124 q 1053 111 1053 114 q 1044 99 1053 106 q 1035 83 1040 86 q 1022 79 1029 81 q 1012 67 1013 78 q 1010 44 1011 56 q 1006 26 1010 33 q 989 19 1001 19 q 981 19 986 19 q 968 17 974 18 q 957 17 963 17 q 951 15 954 15 m 947 918 q 957 919 950 919 q 960 935 960 928 q 947 933 951 935 l 947 918 m 908 521 q 908 540 908 531 q 907 560 907 550 l 907 678 q 908 688 907 686 q 908 693 908 690 q 907 701 908 696 l 907 715 l 908 726 l 908 756 q 906 748 907 751 q 906 739 906 744 l 904 754 l 903 754 l 900 758 q 893 751 893 757 q 896 735 896 744 q 895 724 896 732 q 893 700 894 715 q 892 690 892 696 q 892 683 892 688 q 893 669 893 678 l 893 657 q 894 655 893 656 q 894 653 894 654 q 893 650 894 651 l 893 575 q 896 519 893 547 q 897 511 896 517 q 901 504 899 506 q 901 511 901 507 q 903 517 901 515 q 904 524 904 518 q 903 539 904 528 q 901 557 901 550 q 903 552 903 557 q 905 541 904 547 q 906 528 906 535 q 908 521 907 522 m 321 228 q 343 227 332 228 q 374 224 354 226 l 763 224 q 760 344 760 285 q 758 465 760 404 q 758 474 758 469 q 757 490 758 481 q 755 508 756 500 q 754 522 754 517 q 755 536 754 528 q 761 554 756 544 q 768 565 768 558 q 765 578 768 571 q 758 589 758 585 q 757 596 757 593 q 758 603 757 599 q 760 613 758 608 q 761 621 761 618 q 760 631 761 626 q 758 661 758 646 q 761 698 758 676 q 767 750 764 719 q 667 749 717 749 q 561 747 617 749 q 551 747 556 747 q 529 745 542 747 q 501 743 517 743 q 472 750 485 743 q 462 757 468 757 q 449 754 456 757 q 438 747 443 747 q 431 746 433 746 q 423 747 428 746 q 413 749 418 747 q 406 750 408 750 q 396 749 400 750 q 371 747 383 747 q 346 749 361 747 q 308 753 331 750 q 320 726 317 736 q 324 708 324 715 q 325 697 325 701 q 324 681 325 690 q 321 653 322 671 l 321 228 m 172 383 q 172 403 172 393 q 171 422 171 413 l 171 540 q 172 551 171 549 q 172 556 172 553 q 171 564 172 558 l 171 578 l 172 589 l 172 618 q 170 610 171 614 q 169 601 169 607 l 168 617 l 167 617 l 164 621 q 157 614 157 621 q 160 597 160 607 q 159 586 160 594 q 157 563 158 578 q 156 553 156 558 q 156 545 156 550 q 157 532 157 540 l 157 519 q 158 517 157 518 q 158 515 158 517 q 157 513 158 514 l 157 438 q 160 382 157 410 q 161 374 160 379 q 165 367 163 368 q 165 374 165 369 q 167 379 165 378 q 168 386 168 381 q 167 401 168 390 q 165 419 165 413 q 167 415 167 419 q 169 403 168 410 q 170 391 169 397 q 172 383 171 385 z "},"P":{"ha":1081,"x_min":43,"x_max":1053,"o":"m 317 15 q 311 34 311 21 q 310 60 311 47 q 307 83 310 74 q 297 93 304 93 q 294 93 296 93 q 294 83 294 89 q 295 68 294 78 q 296 46 296 58 q 293 22 296 33 q 281 3 290 10 q 267 -6 272 3 q 256 -26 261 -15 q 247 -44 251 -36 q 236 -53 243 -53 q 224 -46 231 -53 q 208 -36 211 -42 q 204 -24 206 -31 q 192 -13 203 -14 q 169 -12 181 -12 q 151 -7 158 -11 q 144 10 144 -3 q 144 18 144 14 q 132 140 136 76 q 97 138 113 139 q 69 133 81 136 q 67 133 68 133 q 50 143 57 133 q 43 171 43 153 q 43 182 43 176 q 45 214 43 200 q 49 242 47 228 q 51 272 50 257 q 53 307 53 288 q 64 315 54 314 q 85 317 74 317 q 110 317 99 317 q 121 319 121 317 q 121 321 121 321 q 111 326 121 324 q 90 330 101 328 q 69 333 79 332 q 57 338 58 335 q 63 343 57 340 q 69 346 65 344 l 53 353 q 72 357 61 354 q 95 360 82 358 q 125 363 108 361 q 125 389 125 376 l 124 439 q 124 465 124 453 q 124 474 124 469 q 122 490 124 481 q 120 508 121 500 q 119 522 119 517 q 120 536 119 528 q 126 554 121 544 q 133 565 133 558 q 131 578 133 571 q 123 589 124 585 q 122 596 122 593 q 123 603 122 599 q 125 613 124 608 q 126 621 126 618 q 125 631 126 626 q 124 661 124 646 q 126 699 124 676 q 132 751 129 721 l 132 760 q 97 757 113 758 q 69 753 81 756 q 67 753 68 753 q 50 763 57 753 q 43 790 43 772 q 43 801 43 796 q 45 833 43 819 q 49 862 47 847 q 51 892 50 876 q 53 926 53 907 q 64 935 54 933 q 85 936 74 936 q 110 936 99 936 q 121 939 121 936 q 121 940 121 940 q 111 945 121 943 q 90 949 101 947 q 69 953 79 951 q 57 957 58 954 q 63 963 57 960 q 69 965 65 964 l 53 972 q 83 978 67 975 q 119 983 99 981 q 167 985 140 985 l 171 983 l 178 983 q 210 981 196 983 q 238 978 224 979 q 269 974 253 976 q 306 972 285 972 q 329 976 318 976 q 340 976 332 976 q 374 972 349 975 l 735 972 q 819 972 775 972 q 901 968 864 971 q 960 959 938 965 q 983 942 983 953 q 983 940 983 942 q 965 935 978 935 q 938 934 951 935 q 915 931 925 933 q 906 921 906 928 q 906 918 906 919 q 917 918 911 918 q 931 919 922 918 q 953 919 940 919 q 977 917 965 919 q 996 904 989 914 q 1008 888 996 894 q 1033 877 1021 882 q 1049 867 1044 872 q 1053 860 1053 863 q 1044 847 1053 854 q 1035 832 1040 835 q 1022 828 1029 829 q 1012 815 1013 826 q 1010 793 1011 804 q 1006 775 1010 782 q 989 768 1001 768 q 981 768 986 768 q 972 767 976 767 l 968 767 q 960 765 964 767 l 956 757 q 942 747 944 754 q 929 733 939 739 q 925 724 925 729 q 929 714 925 719 q 935 690 933 697 q 936 678 936 683 q 935 667 936 674 q 929 651 933 660 q 919 626 925 642 q 901 556 913 597 l 856 382 q 836 310 844 339 q 832 297 833 303 q 829 283 831 290 q 831 281 831 282 q 832 279 831 281 q 844 263 832 269 q 869 252 857 257 q 885 242 881 247 q 889 235 889 238 q 881 222 889 229 q 871 207 876 210 q 858 203 865 204 q 848 190 849 201 q 847 168 847 179 q 842 150 846 157 q 825 143 838 143 q 817 143 822 143 q 735 132 761 135 q 693 128 708 129 q 667 128 678 128 q 644 128 656 128 q 622 129 633 129 q 561 128 599 129 q 551 128 556 128 q 529 126 542 128 q 501 124 517 124 q 472 131 485 124 q 462 138 468 138 q 449 135 456 138 q 438 127 443 128 q 431 126 433 126 q 423 127 428 126 q 413 129 418 128 q 406 131 408 131 q 396 129 400 131 q 376 126 386 126 q 366 127 374 126 q 346 129 358 128 q 338 48 343 81 q 318 15 332 15 q 317 15 317 15 m 349 356 q 360 354 354 354 q 374 353 367 354 q 446 354 406 354 q 510 353 467 354 q 618 353 554 353 q 639 438 628 396 q 663 532 650 479 q 666 550 665 540 q 668 569 667 560 q 673 588 669 579 q 685 603 676 597 q 693 615 693 606 q 693 621 693 618 q 688 632 688 626 q 688 635 688 632 q 691 643 689 638 q 696 653 693 649 q 699 665 699 658 q 710 709 701 689 q 726 750 719 729 q 646 749 686 749 q 561 747 606 749 q 551 747 556 747 q 529 745 542 747 q 501 743 517 743 q 472 750 485 743 q 462 757 468 757 q 449 754 456 757 q 438 747 443 747 q 431 746 433 746 q 423 747 428 746 q 413 749 418 747 q 406 750 408 750 q 396 749 400 750 q 372 746 383 746 q 361 747 369 746 q 338 749 353 747 q 349 723 346 733 q 352 706 351 713 q 353 696 353 700 q 351 679 353 689 q 349 653 350 669 l 349 356 m 817 510 q 821 526 818 518 q 828 557 822 539 q 838 596 832 571 q 849 638 844 621 q 852 647 851 644 q 854 657 853 650 q 856 660 856 660 q 857 668 857 665 l 861 676 q 865 693 865 688 q 867 700 867 697 q 864 694 865 697 q 861 688 863 692 l 863 700 l 860 704 q 858 706 860 706 q 851 701 856 706 q 848 683 851 694 q 840 660 844 672 q 837 647 838 653 q 835 635 836 642 q 832 624 832 629 q 832 624 832 624 q 832 622 832 622 q 832 621 832 621 q 831 618 832 619 q 828 610 829 615 q 826 603 826 606 q 804 511 813 557 q 803 507 803 508 q 803 506 803 506 q 804 506 804 506 q 806 506 804 506 q 806 506 806 506 q 804 501 806 504 q 806 499 804 500 q 808 504 807 501 q 811 507 808 507 q 815 522 814 510 q 818 540 817 535 q 819 538 819 540 q 818 525 819 533 q 817 513 817 517 q 817 510 817 511 m 200 383 q 200 403 200 393 q 199 422 199 413 l 199 540 q 199 551 199 549 q 200 556 200 553 q 199 564 200 558 l 199 578 l 200 589 l 200 618 q 198 610 199 614 q 197 601 197 607 l 196 617 l 194 617 l 192 621 q 185 614 185 621 q 188 597 188 607 q 187 586 188 594 q 185 563 186 578 q 183 553 183 558 q 184 545 183 550 q 185 532 185 540 l 185 519 q 185 517 185 518 q 186 515 186 517 q 185 513 186 514 l 185 438 q 188 382 185 410 q 189 374 188 379 q 193 367 190 368 q 193 374 193 369 q 194 379 193 378 q 196 386 196 381 q 194 401 196 390 q 193 419 193 413 q 195 415 194 419 q 197 403 196 410 q 198 391 197 397 q 200 383 199 385 z "},"Q":{"ha":1094,"x_min":43,"x_max":1053,"o":"m 699 -126 q 690 -119 693 -125 q 685 -106 688 -112 q 680 -97 683 -100 q 672 -93 676 -93 q 667 -94 669 -93 q 669 -106 667 -100 q 674 -117 672 -111 q 676 -128 676 -122 q 676 -133 676 -129 q 668 -143 675 -137 q 656 -153 660 -146 q 650 -169 653 -161 q 644 -181 647 -176 q 635 -185 640 -185 q 626 -183 631 -185 q 617 -185 619 -185 q 611 -183 614 -185 q 606 -178 608 -182 q 599 -175 604 -175 q 581 -180 593 -175 q 558 -185 569 -185 q 547 -175 547 -185 q 502 -85 519 -131 q 468 7 485 -40 q 463 8 465 8 q 458 8 461 8 q 449 6 454 7 q 438 -2 443 -1 q 431 -3 433 -3 q 423 -2 428 -3 q 413 0 418 -1 q 406 1 408 1 q 396 0 400 1 q 365 -3 381 -3 q 328 1 350 -3 q 276 7 306 4 q 272 7 275 7 l 263 8 q 258 8 261 8 q 256 6 257 7 q 253 3 256 4 q 239 -6 244 3 q 228 -26 233 -15 q 219 -44 224 -36 q 208 -53 215 -53 q 196 -46 203 -53 q 181 -36 183 -42 q 176 -24 178 -31 q 165 -13 175 -14 q 144 -12 154 -12 q 124 -8 133 -11 q 115 11 115 -4 q 90 8 101 10 q 69 4 79 7 q 67 4 68 4 q 50 14 57 4 q 43 42 43 24 q 43 53 43 47 q 45 85 43 71 q 49 113 47 99 q 51 143 50 128 q 53 178 53 158 q 71 187 56 186 q 101 188 86 188 l 100 199 q 74 203 88 201 q 57 208 60 206 q 63 214 57 211 q 69 217 65 215 l 53 224 l 72 228 q 79 229 75 229 q 99 232 88 231 q 97 319 97 276 l 97 378 q 96 465 97 422 q 96 474 96 469 q 94 490 96 481 q 92 508 93 500 q 92 522 92 517 q 92 536 92 528 q 99 554 93 544 q 106 565 106 558 q 103 578 106 571 q 95 589 96 585 q 94 596 94 593 q 95 603 94 599 q 97 613 96 608 q 99 621 99 618 q 97 631 99 626 q 96 661 96 646 q 99 699 96 676 q 104 751 101 721 l 104 758 q 69 753 81 756 q 67 753 68 753 q 50 763 57 753 q 43 790 43 772 q 43 801 43 796 q 45 833 43 819 q 49 862 47 847 q 51 892 50 876 q 53 926 53 907 q 73 936 56 936 q 106 936 90 936 q 104 947 104 940 q 75 952 90 950 q 57 957 60 954 q 63 963 57 960 q 69 965 65 964 l 53 972 q 74 976 63 974 q 99 981 85 979 q 132 983 114 982 l 139 983 q 153 985 146 985 q 167 985 160 985 l 181 982 q 224 976 204 979 q 275 974 244 974 q 283 964 282 971 q 306 973 296 971 q 322 976 315 975 q 332 976 328 976 q 348 975 339 976 q 374 972 357 974 l 768 972 q 801 983 778 983 q 813 983 807 983 q 844 981 831 983 q 873 978 858 979 q 903 975 888 976 q 938 974 918 974 q 946 963 943 972 q 964 958 953 961 q 968 969 967 968 q 968 969 968 969 q 974 964 971 969 q 976 957 975 961 l 983 974 q 988 956 985 967 q 990 935 989 947 q 993 907 992 922 l 996 904 q 1008 888 996 894 q 1033 877 1021 882 q 1049 867 1044 872 q 1053 860 1053 863 q 1044 847 1053 854 q 1035 832 1040 835 q 1022 828 1029 829 q 1012 815 1013 826 q 1010 793 1011 804 q 1006 775 1010 782 q 989 768 1001 768 q 981 768 986 768 q 974 767 978 767 l 969 767 q 963 765 965 767 q 969 756 965 758 q 982 727 978 739 q 987 708 986 715 q 988 697 988 701 q 986 681 988 690 q 983 653 985 671 l 983 192 q 982 178 982 185 q 982 165 982 172 q 996 156 988 164 q 1008 140 996 146 q 1033 128 1021 133 q 1049 119 1044 124 q 1053 111 1053 114 q 1044 99 1053 106 q 1035 83 1040 86 q 1022 79 1029 81 q 1012 67 1013 78 q 1010 44 1011 56 q 1006 26 1010 33 q 989 19 1001 19 q 981 19 986 19 q 968 17 974 18 q 957 17 963 17 q 951 15 954 15 q 938 13 944 14 q 924 13 931 13 q 915 3 921 8 q 901 -6 907 3 q 891 -26 896 -15 q 882 -44 886 -36 q 871 -53 878 -53 q 858 -46 865 -53 q 843 -36 846 -42 q 840 -26 842 -32 l 839 -22 q 829 -14 836 -15 q 810 -12 821 -12 q 791 -10 800 -12 q 779 1 782 -8 q 756 1 768 1 l 711 0 q 688 0 700 0 q 701 -40 694 -19 q 709 -76 707 -61 q 711 -101 711 -92 q 710 -115 711 -106 q 699 -126 710 -124 m 947 918 q 957 919 950 919 q 960 935 960 928 q 947 933 951 935 l 947 918 m 908 521 q 908 540 908 531 q 907 560 907 550 l 907 678 q 908 688 907 686 q 908 693 908 690 q 907 701 908 696 l 907 715 l 908 726 l 908 756 q 906 748 907 751 q 906 739 906 744 l 904 754 l 903 754 l 900 758 q 893 751 893 757 q 896 735 896 744 q 895 724 896 732 q 893 700 894 715 q 892 690 892 696 q 892 683 892 688 q 893 669 893 678 l 893 657 q 894 655 893 656 q 894 653 894 654 q 893 650 894 651 l 893 575 q 896 519 893 547 q 897 511 896 517 q 901 504 899 506 q 901 511 901 507 q 903 517 901 515 q 904 524 904 518 q 903 539 904 528 q 901 557 901 550 q 903 552 903 557 q 905 541 904 547 q 906 528 906 535 q 908 521 907 522 m 569 353 q 579 340 574 347 q 589 324 583 333 q 599 301 594 314 l 597 275 q 590 264 590 268 q 586 253 590 260 q 585 249 585 250 q 593 243 585 243 q 615 224 613 231 l 763 224 q 760 344 760 285 q 758 465 760 404 q 758 474 758 469 q 757 490 758 481 q 755 508 756 500 q 754 522 754 517 q 755 536 754 528 q 761 554 756 544 q 768 565 768 558 q 765 578 768 571 q 758 589 758 585 q 757 596 757 593 q 758 603 757 599 q 760 613 758 608 q 761 621 761 618 q 760 631 761 626 q 758 661 758 646 q 761 698 758 676 q 767 750 764 719 q 667 749 717 749 q 561 747 617 749 q 551 747 556 747 q 529 745 542 747 q 501 743 517 743 q 472 750 485 743 q 462 757 468 757 q 449 754 456 757 q 438 747 443 747 q 431 746 433 746 q 423 747 428 746 q 413 749 418 747 q 406 750 408 750 q 396 749 400 750 q 371 747 383 747 q 346 749 361 747 q 308 753 331 750 q 320 726 317 736 q 324 708 324 715 q 325 697 325 701 q 324 681 325 690 q 321 653 322 671 l 321 228 q 343 227 332 228 q 374 224 354 226 l 407 224 q 381 281 397 263 q 381 283 381 282 q 388 294 381 288 q 419 308 396 301 q 472 324 450 318 q 529 340 494 329 q 532 340 531 340 q 539 336 536 340 q 544 326 542 332 q 547 315 546 319 q 551 311 549 311 q 553 311 551 311 q 556 318 556 313 l 556 339 q 557 346 556 344 q 560 347 558 347 q 563 344 561 347 q 567 343 565 344 l 569 353 m 172 383 q 172 403 172 393 q 171 422 171 413 l 171 540 q 172 551 171 549 q 172 556 172 553 q 171 564 172 558 l 171 578 l 172 589 l 172 618 q 170 610 171 614 q 169 601 169 607 l 168 617 l 167 617 l 164 621 q 157 614 157 621 q 160 597 160 607 q 159 586 160 594 q 157 563 158 578 q 156 553 156 558 q 156 545 156 550 q 157 532 157 540 l 157 519 q 158 517 157 518 q 158 515 158 517 q 157 513 158 514 l 157 438 q 160 382 157 410 q 161 374 160 379 q 165 367 163 368 q 165 374 165 369 q 167 379 165 378 q 168 386 168 381 q 167 401 168 390 q 165 419 165 413 q 167 415 167 419 q 169 403 168 410 q 170 391 169 397 q 172 383 171 385 z "},"R":{"ha":1094,"x_min":43,"x_max":1053,"o":"m 317 15 q 311 34 311 21 q 310 60 311 47 q 307 83 310 74 q 297 93 304 93 q 294 93 296 93 q 294 83 294 89 q 295 68 294 78 q 296 46 296 58 q 293 22 296 33 q 281 3 290 10 q 267 -6 272 3 q 256 -26 261 -15 q 247 -44 251 -36 q 236 -53 243 -53 q 224 -46 231 -53 q 208 -36 211 -42 q 204 -24 206 -31 q 192 -13 203 -14 q 169 -12 181 -12 q 151 -7 158 -11 q 144 10 144 -3 q 144 18 144 14 q 132 140 136 76 q 97 138 113 139 q 69 133 81 136 q 67 133 68 133 q 50 143 57 133 q 43 171 43 153 q 43 182 43 176 q 45 214 43 200 q 49 242 47 228 q 51 272 50 257 q 53 307 53 288 q 64 315 54 314 q 85 317 74 317 q 110 317 99 317 q 121 319 121 317 q 121 321 121 321 q 111 326 121 324 q 90 330 101 328 q 69 333 79 332 q 57 338 58 335 q 63 343 57 340 q 69 346 65 344 l 53 353 q 72 357 61 354 q 95 360 82 358 q 125 363 108 361 q 125 389 125 376 l 124 439 q 124 465 124 453 q 124 474 124 469 q 122 490 124 481 q 120 508 121 500 q 119 522 119 517 q 120 536 119 528 q 126 554 121 544 q 133 565 133 558 q 131 578 133 571 q 123 589 124 585 q 122 596 122 593 q 123 603 122 599 q 125 613 124 608 q 126 621 126 618 q 125 631 126 626 q 124 661 124 646 q 126 699 124 676 q 132 751 129 721 l 132 760 q 97 757 113 758 q 69 753 81 756 q 67 753 68 753 q 50 763 57 753 q 43 790 43 772 q 43 801 43 796 q 45 833 43 819 q 49 862 47 847 q 51 892 50 876 q 53 926 53 907 q 64 935 54 933 q 85 936 74 936 q 110 936 99 936 q 121 939 121 936 q 121 940 121 940 q 111 945 121 943 q 90 949 101 947 q 69 953 79 951 q 57 957 58 954 q 63 963 57 960 q 69 965 65 964 l 53 972 q 83 978 67 975 q 119 983 99 981 q 167 985 140 985 l 171 983 l 178 983 q 210 981 196 983 q 238 978 224 979 q 269 974 253 976 q 306 972 285 972 q 329 976 318 976 q 340 976 332 976 q 374 972 349 975 l 735 972 q 819 972 775 972 q 901 968 864 971 q 960 959 938 965 q 983 942 983 953 q 983 940 983 942 q 965 935 978 935 q 938 934 951 935 q 915 931 925 933 q 906 921 906 928 q 906 918 906 919 q 917 918 911 918 q 931 919 922 918 q 953 919 940 919 q 977 917 965 919 q 996 904 989 914 q 1008 888 996 894 q 1033 877 1021 882 q 1049 867 1044 872 q 1053 860 1053 863 q 1044 847 1053 854 q 1035 832 1040 835 q 1022 828 1029 829 q 1012 815 1013 826 q 1010 793 1011 804 q 1006 775 1010 782 q 989 768 1001 768 q 981 768 986 768 q 972 767 976 767 l 968 767 q 960 765 964 767 l 956 757 q 942 747 944 754 q 929 733 939 739 q 925 724 925 729 q 929 714 925 719 q 935 690 933 697 q 936 678 936 683 q 935 667 936 674 q 929 651 933 660 q 919 626 925 642 q 905 567 914 601 q 886 494 896 532 q 866 419 876 457 q 847 351 856 382 q 900 349 875 350 q 944 344 925 347 q 973 335 963 340 q 983 321 983 329 q 965 315 978 315 q 938 315 951 315 q 915 311 925 314 q 906 301 906 308 q 906 299 906 300 q 917 299 911 299 q 931 299 922 299 q 953 300 940 300 q 977 297 965 300 q 996 285 989 294 q 1008 269 996 275 q 1033 258 1021 263 q 1049 248 1044 253 q 1053 240 1053 243 q 1044 228 1053 235 q 1035 213 1040 215 q 1022 208 1029 210 q 1012 196 1013 207 q 1010 174 1011 185 q 1006 156 1010 163 q 989 149 1001 149 q 981 149 986 149 l 979 149 q 971 54 976 93 q 950 15 965 15 q 949 15 949 15 q 943 34 943 21 q 942 60 943 47 q 939 83 942 74 q 929 93 936 93 q 926 93 928 93 q 926 83 926 89 q 927 68 926 78 q 928 46 928 58 q 925 22 928 33 q 913 3 922 10 q 899 -6 904 3 q 888 -26 893 -15 q 879 -44 883 -36 q 868 -53 875 -53 q 856 -46 863 -53 q 840 -36 843 -42 q 836 -24 838 -31 q 824 -13 835 -14 q 801 -12 813 -12 q 783 -7 790 -11 q 776 10 776 -3 q 776 18 776 14 q 767 81 771 54 q 761 131 764 108 q 663 129 713 129 q 561 128 614 129 q 551 128 556 128 q 529 126 542 128 q 501 124 517 124 q 472 131 485 124 q 462 138 468 138 q 449 135 456 138 q 438 127 443 128 q 431 126 433 126 q 423 127 428 126 q 413 129 418 128 q 406 131 408 131 q 396 129 400 131 q 376 126 386 126 q 366 127 374 126 q 346 129 358 128 q 338 48 343 81 q 318 15 332 15 q 317 15 317 15 m 349 356 q 360 354 354 354 q 374 353 367 354 q 446 354 406 354 q 510 353 467 354 q 618 353 554 353 q 639 438 628 396 q 663 532 650 479 q 666 550 665 540 q 668 569 667 560 q 673 588 669 579 q 685 603 676 597 q 693 615 693 606 q 693 621 693 618 q 688 632 688 626 q 688 635 688 632 q 691 643 689 638 q 696 653 693 649 q 699 665 699 658 q 710 709 701 689 q 726 750 719 729 q 646 749 686 749 q 561 747 606 749 q 551 747 556 747 q 529 745 542 747 q 501 743 517 743 q 472 750 485 743 q 462 757 468 757 q 449 754 456 757 q 438 747 443 747 q 431 746 433 746 q 423 747 428 746 q 413 749 418 747 q 406 750 408 750 q 396 749 400 750 q 372 746 383 746 q 361 747 369 746 q 338 749 353 747 q 349 723 346 733 q 352 706 351 713 q 353 696 353 700 q 351 679 353 689 q 349 653 350 669 l 349 356 m 817 524 q 821 540 818 532 q 828 571 822 553 q 838 610 832 585 q 849 651 844 635 q 852 661 851 658 q 854 671 853 664 q 856 674 856 674 q 857 682 857 679 l 861 690 q 865 707 865 701 q 867 714 867 711 q 864 708 865 711 q 861 701 863 706 l 863 714 l 860 718 q 858 719 860 719 q 851 715 856 719 q 848 697 851 708 q 840 674 844 686 q 837 661 838 667 q 835 649 836 656 q 832 638 832 643 q 832 638 832 638 q 832 635 832 636 q 832 635 832 635 q 831 632 832 633 q 828 624 829 629 q 826 617 826 619 q 804 525 813 571 q 803 521 803 522 q 803 519 803 519 q 804 519 804 519 q 806 519 804 519 q 806 519 806 519 q 804 515 806 518 q 806 513 804 514 q 808 518 807 515 q 811 521 808 521 q 815 536 814 524 q 818 554 817 549 q 819 551 819 554 q 818 539 819 547 q 817 526 817 531 q 817 524 817 525 m 200 383 q 200 403 200 393 q 199 422 199 413 l 199 540 q 199 551 199 549 q 200 556 200 553 q 199 564 200 558 l 199 578 l 200 589 l 200 618 q 198 610 199 614 q 197 601 197 607 l 196 617 l 194 617 l 192 621 q 185 614 185 621 q 188 597 188 607 q 187 586 188 594 q 185 563 186 578 q 183 553 183 558 q 184 545 183 550 q 185 532 185 540 l 185 519 q 185 517 185 518 q 186 515 186 517 q 185 513 186 514 l 185 438 q 188 382 185 410 q 189 374 188 379 q 193 367 190 368 q 193 374 193 369 q 194 379 193 378 q 196 386 196 381 q 194 401 196 390 q 193 419 193 413 q 195 415 194 419 q 197 403 196 410 q 198 391 197 397 q 200 383 199 385 z "},"S":{"ha":1039,"x_min":43,"x_max":997,"o":"m 115 468 q 99 475 111 472 q 83 482 86 478 q 89 488 83 485 q 96 490 92 489 l 81 497 q 88 500 83 499 q 113 506 93 503 q 110 526 110 517 q 110 536 110 529 q 118 554 111 543 q 125 565 125 558 q 122 578 125 571 q 115 589 115 585 q 114 596 114 593 q 115 603 114 599 q 117 613 115 608 q 118 621 118 618 q 117 631 118 626 q 115 661 115 646 q 118 699 115 676 q 124 751 121 721 q 125 761 124 758 q 94 758 107 760 q 69 754 81 757 q 67 754 68 754 q 50 764 57 754 q 43 792 43 774 q 43 803 43 797 q 45 835 43 821 q 49 863 47 849 q 51 893 50 878 q 53 928 53 908 q 64 936 54 935 q 85 938 74 938 q 110 938 99 938 q 121 940 121 938 q 121 942 121 942 q 111 947 121 944 q 90 951 101 949 q 69 954 79 953 q 57 958 58 956 q 63 964 57 961 q 69 967 65 965 l 53 974 q 83 979 67 976 q 119 984 99 982 q 167 986 140 986 l 181 983 q 235 977 211 981 q 294 974 258 974 q 297 973 296 974 q 299 972 297 972 q 326 978 314 978 q 338 977 329 978 q 374 974 346 976 q 474 975 422 975 q 553 974 500 975 q 679 974 607 974 q 764 973 719 974 q 845 969 808 972 q 905 960 882 967 q 928 943 928 954 q 928 942 928 943 q 909 936 922 936 q 883 935 896 936 q 860 932 869 935 q 850 922 850 929 q 850 919 850 921 q 861 919 856 919 q 876 920 867 919 q 897 921 885 921 q 922 918 910 921 q 940 906 933 915 q 953 890 940 896 q 977 878 965 883 q 993 869 989 874 q 997 861 997 864 q 989 849 997 856 q 979 833 985 836 q 967 829 974 831 q 956 817 957 828 q 955 794 956 806 q 950 776 954 783 q 933 769 946 769 q 925 769 931 769 q 824 757 869 761 q 735 751 778 753 q 648 750 693 750 q 547 749 603 750 q 538 749 542 749 q 518 747 528 749 q 497 744 508 744 q 472 751 485 744 q 462 758 468 758 q 449 756 456 758 q 438 748 443 749 q 431 747 433 747 q 423 748 428 747 q 413 750 418 749 q 406 751 408 751 q 396 750 400 751 q 369 747 382 747 q 356 748 365 747 q 329 751 346 749 q 340 725 338 736 q 344 708 343 714 q 344 697 344 701 q 343 681 344 690 q 340 653 342 671 q 342 583 340 624 q 343 499 343 542 q 349 498 346 499 q 357 497 353 497 l 672 497 q 753 497 711 497 q 829 493 794 496 q 886 484 864 490 q 908 465 908 478 q 890 460 903 460 q 865 459 878 460 q 843 456 853 458 q 833 443 833 453 q 843 443 839 443 q 858 444 849 443 q 879 444 867 444 q 902 442 892 444 q 919 429 913 439 q 931 413 919 419 q 954 402 943 407 q 969 392 965 397 q 972 385 972 388 q 965 372 972 379 q 965 300 965 340 q 963 219 964 260 q 960 140 963 178 q 954 72 958 101 q 955 61 954 67 q 956 49 956 56 q 957 36 957 42 q 950 10 957 19 q 933 0 943 0 q 931 0 932 0 q 915 3 924 3 q 899 6 907 4 q 896 3 899 6 q 882 -6 888 3 q 872 -26 876 -15 q 863 -44 867 -36 q 851 -53 858 -53 q 839 -46 846 -53 q 824 -36 826 -42 q 821 -26 822 -32 l 819 -22 q 810 -14 817 -15 q 791 -12 801 -12 q 772 -10 781 -12 q 760 1 763 -8 q 716 -4 735 -1 q 686 -7 697 -7 q 657 -4 671 -7 q 649 -4 653 -4 q 641 -5 646 -4 q 631 -6 636 -6 q 624 -7 626 -7 q 617 -6 621 -7 q 606 1 613 -6 q 592 4 599 4 q 583 -3 586 4 q 558 -10 571 -10 q 538 -8 547 -10 q 519 -6 529 -6 q 511 -6 515 -6 q 409 -4 457 -4 q 315 -3 361 -4 q 222 3 269 -1 q 119 15 174 7 q 111 15 115 15 q 96 22 100 15 q 91 40 92 29 q 90 63 90 51 q 79 75 89 74 q 67 79 72 76 q 57 94 61 82 q 50 107 50 101 q 53 115 50 110 q 69 124 57 119 q 92 135 81 129 q 104 151 104 142 q 122 164 111 161 q 146 167 133 167 q 167 166 158 167 q 182 165 176 165 q 192 165 188 165 q 192 168 192 167 q 183 178 192 175 q 160 181 174 181 q 134 182 147 182 q 117 188 121 182 q 117 189 117 189 q 139 206 117 200 q 197 215 161 213 q 275 219 232 218 q 357 219 318 219 l 678 219 q 709 223 701 222 q 719 224 717 224 q 740 221 729 224 l 740 276 q 635 274 688 274 q 521 272 583 274 q 513 272 517 272 q 494 270 503 272 q 474 268 485 268 q 450 275 461 268 q 440 282 446 282 q 428 279 435 282 q 418 272 422 272 q 411 271 414 271 q 403 272 408 271 q 394 274 399 272 q 386 275 389 275 q 378 274 382 275 q 349 272 364 272 q 313 275 335 272 q 264 281 292 278 q 211 285 235 283 q 168 286 188 286 q 96 278 128 286 q 93 278 94 278 q 77 288 83 278 q 71 314 71 297 q 71 326 71 319 q 73 358 71 344 q 76 387 75 372 q 79 417 78 401 q 81 451 81 432 q 94 461 83 461 q 99 461 96 461 q 106 461 101 461 q 115 463 113 461 l 115 468 m 261 496 q 261 515 261 506 q 260 535 260 525 l 260 653 q 260 663 260 661 q 261 668 261 665 q 260 676 261 671 l 260 690 l 261 701 l 261 731 q 259 723 260 726 q 258 714 258 719 l 257 729 l 256 729 l 253 733 q 246 726 246 733 q 249 710 249 719 q 248 699 249 707 q 246 675 247 690 q 244 665 244 671 q 245 658 244 663 q 246 644 246 653 l 246 632 q 247 630 246 631 q 247 628 247 629 q 246 625 247 626 l 246 550 q 249 494 246 522 q 250 486 249 492 q 254 479 251 481 q 254 486 254 482 q 256 492 254 490 q 257 499 257 493 q 256 514 257 503 q 254 532 254 525 q 256 527 256 532 q 258 516 257 522 q 259 503 258 510 q 261 496 260 497 z "},"T":{"ha":1115,"x_min":43,"x_max":1081,"o":"m 613 15 q 607 34 607 21 q 606 60 607 47 q 603 83 606 74 q 593 93 600 93 q 590 93 592 93 q 590 83 590 89 q 591 68 590 78 q 592 46 592 58 q 589 22 592 33 q 576 3 586 10 q 563 -6 568 3 q 552 -26 557 -15 q 543 -44 547 -36 q 532 -53 539 -53 q 519 -46 526 -53 q 504 -36 507 -42 q 500 -24 501 -31 q 488 -13 499 -14 q 465 -12 476 -12 q 447 -7 454 -11 q 440 10 440 -3 q 440 18 440 14 q 423 242 424 131 q 419 465 422 353 q 419 474 419 469 q 418 490 419 481 q 416 508 417 500 q 415 522 415 517 q 416 536 415 528 q 422 554 417 544 q 429 565 429 558 q 426 578 429 571 q 419 589 419 585 q 418 596 418 593 q 419 603 418 599 q 421 613 419 608 q 422 621 422 618 q 421 631 422 626 q 419 661 419 646 q 422 699 419 676 q 428 751 425 721 l 428 758 q 415 761 421 760 q 407 763 410 763 q 396 761 401 763 q 365 760 381 760 q 328 763 350 760 q 276 768 306 765 q 216 772 244 771 q 163 774 188 774 q 69 765 101 774 q 67 765 68 765 q 50 775 57 765 q 43 803 43 785 q 43 814 43 808 q 45 846 43 832 q 49 874 47 860 q 51 904 50 889 q 53 939 53 919 q 64 947 54 946 q 85 949 74 949 q 110 949 99 949 q 121 951 121 949 q 121 953 121 953 q 111 958 121 956 q 90 962 101 960 q 69 965 79 964 q 57 969 58 967 q 63 975 57 972 q 69 978 65 976 l 53 985 q 83 990 67 988 q 119 995 99 993 q 167 997 140 997 l 214 986 q 231 975 221 976 q 249 967 240 974 q 260 964 254 964 q 272 971 267 964 q 300 983 289 979 q 318 988 311 988 q 329 989 325 989 q 346 988 336 989 q 374 985 356 986 l 763 985 q 847 984 803 985 q 928 981 892 983 q 988 972 965 978 q 1011 954 1011 965 q 1011 953 1011 954 q 992 947 1006 947 q 966 947 979 947 q 943 943 953 946 q 933 933 933 940 q 933 931 933 932 q 944 931 939 931 q 959 931 950 931 q 981 932 968 932 q 1005 929 993 932 q 1024 917 1017 926 q 1036 901 1024 907 q 1060 890 1049 894 q 1076 880 1072 885 q 1081 872 1081 875 q 1072 860 1081 867 q 1063 844 1068 847 q 1050 840 1057 842 q 1040 828 1040 839 q 1038 806 1039 817 q 1033 788 1038 794 q 1017 781 1029 781 q 1008 781 1014 781 q 817 764 913 765 q 626 761 722 763 q 631 756 626 758 q 643 727 639 739 q 648 708 647 715 q 649 697 649 701 q 647 681 649 690 q 644 653 646 671 l 644 264 q 644 179 644 224 q 640 98 643 135 q 631 38 638 61 q 614 15 625 15 q 613 15 614 15 m 722 828 q 703 828 713 828 q 685 826 694 826 l 651 826 l 644 813 q 684 813 664 813 q 724 815 704 814 q 732 817 726 815 q 739 821 738 818 q 732 821 736 821 q 726 822 728 821 q 719 824 725 824 q 704 822 715 824 q 686 821 693 821 q 691 823 686 822 q 702 824 696 824 q 715 826 708 825 q 722 828 721 826 m 488 304 q 488 324 488 314 q 486 343 486 333 l 486 461 q 487 472 486 469 q 488 476 488 474 q 486 485 488 479 l 486 499 l 488 510 l 488 539 q 485 531 486 535 q 485 522 485 528 l 483 538 l 482 538 l 479 542 q 472 535 472 542 q 475 518 475 528 q 474 507 475 515 q 472 483 474 499 q 471 474 471 479 q 472 466 471 471 q 472 453 472 461 l 472 440 q 473 438 472 439 q 474 436 474 438 q 472 433 474 435 l 472 358 q 475 303 472 331 q 476 294 475 300 q 481 288 478 289 q 481 294 481 290 q 482 300 481 299 q 483 307 483 301 q 482 322 483 311 q 481 340 481 333 q 483 335 482 340 q 484 324 483 331 q 485 312 485 318 q 488 304 486 306 z "},"U":{"ha":1088,"x_min":43,"x_max":1053,"o":"m 924 -43 q 917 -22 917 -36 q 917 -17 917 -21 q 918 -7 918 -12 q 917 14 918 4 l 901 13 q 903 -26 903 -7 q 888 -56 903 -44 q 874 -65 879 -56 q 863 -84 868 -74 q 854 -103 858 -94 q 843 -111 850 -111 q 831 -104 838 -111 q 815 -94 818 -100 q 811 -82 813 -89 q 799 -72 810 -72 q 776 -70 788 -71 q 758 -65 765 -69 q 751 -49 751 -61 q 751 -40 751 -46 q 748 -18 749 -29 q 746 4 747 -7 q 656 3 701 3 q 561 1 610 3 q 551 1 556 1 q 529 -1 542 1 q 501 -3 517 -3 q 472 4 485 -3 q 462 11 468 11 q 449 8 456 11 q 438 1 443 1 q 431 0 433 0 q 423 1 428 0 q 413 3 418 1 q 406 4 408 4 q 396 3 400 4 q 365 1 381 1 q 328 4 350 1 q 276 10 306 7 q 216 14 244 13 q 163 15 188 15 q 69 7 101 15 q 67 7 68 7 q 50 17 57 7 q 43 44 43 26 q 43 56 43 50 q 45 88 43 74 q 49 116 47 101 q 51 146 50 131 q 53 181 53 161 q 64 189 54 188 q 85 190 74 190 q 110 190 99 190 q 121 193 121 190 q 121 194 121 194 q 111 199 121 197 q 90 203 101 201 q 69 207 79 206 q 57 211 58 208 q 63 217 57 214 q 69 219 65 218 l 53 226 q 67 231 58 228 q 101 238 81 236 q 98 342 99 290 q 96 465 97 393 q 96 474 96 469 q 94 490 96 481 q 92 508 93 500 q 92 522 92 517 q 92 536 92 528 q 99 554 93 544 q 106 565 106 558 q 103 578 106 571 q 95 589 96 585 q 94 596 94 593 q 95 603 94 599 q 97 613 96 608 q 99 621 99 618 q 97 631 99 626 q 96 661 96 646 q 99 699 96 676 q 104 751 101 721 q 110 863 110 813 q 109 898 110 868 q 101 957 108 928 q 101 960 101 958 q 111 976 101 969 q 139 983 121 983 q 150 983 144 983 q 182 981 168 983 q 210 978 196 979 q 240 975 225 976 q 275 974 256 974 q 283 961 282 972 q 285 938 285 950 q 285 917 285 926 q 289 907 285 907 q 294 916 292 907 q 298 937 296 925 q 301 958 300 949 q 306 969 303 968 q 306 969 306 969 q 311 964 308 969 q 314 957 313 961 l 321 974 q 326 943 324 960 q 331 908 329 928 q 333 861 333 888 l 322 814 q 311 797 313 807 q 303 779 310 788 q 300 768 300 774 q 307 756 300 761 q 319 727 315 739 q 324 708 324 715 q 325 697 325 701 q 324 681 325 690 q 321 653 322 671 l 321 229 q 333 228 326 228 q 346 226 339 228 l 733 226 q 732 351 732 290 q 731 465 732 413 q 731 474 731 469 q 729 490 731 481 q 727 508 728 500 q 726 522 726 517 q 727 536 726 528 q 733 554 728 544 q 740 565 740 558 q 738 578 740 571 q 730 589 731 585 q 729 596 729 593 q 730 603 729 599 q 732 613 731 608 q 733 621 733 618 q 732 631 733 626 q 731 661 731 646 q 733 699 731 676 q 739 751 736 721 q 744 863 744 813 q 744 898 744 868 q 736 957 743 928 q 736 960 736 958 q 746 976 736 969 q 774 983 756 983 q 785 983 779 983 q 817 981 803 983 q 845 978 831 979 q 875 975 860 976 q 910 974 890 974 q 918 961 917 972 q 919 938 919 950 q 919 917 919 926 q 924 907 919 907 q 928 916 926 907 q 933 937 931 925 q 936 958 935 949 q 940 969 938 968 q 940 969 940 969 q 946 964 943 969 q 949 957 947 961 l 956 974 q 961 943 958 960 q 966 908 964 928 q 968 861 968 888 l 957 814 q 946 797 947 807 q 938 779 944 788 q 935 768 935 774 q 942 756 935 761 q 954 727 950 739 q 959 708 958 715 q 960 697 960 701 q 958 681 960 690 q 956 653 957 671 l 956 215 q 983 196 983 206 q 983 194 983 194 q 972 190 981 192 q 954 189 964 189 l 954 174 q 978 171 967 174 q 996 158 989 168 q 1008 142 996 149 q 1033 131 1021 136 q 1049 122 1044 126 q 1053 114 1053 117 q 1044 101 1053 108 q 1035 86 1040 89 q 1022 82 1029 83 q 1012 69 1013 81 q 1010 47 1011 58 q 1006 29 1010 36 q 989 22 1001 22 q 981 22 986 22 l 947 18 q 938 -26 944 -10 q 925 -43 932 -43 q 924 -43 924 -43 m 881 549 q 881 568 881 558 q 879 588 879 578 l 879 706 q 880 716 879 714 q 881 721 881 718 q 879 729 881 724 l 879 743 l 881 754 l 881 783 q 878 776 879 779 q 878 767 878 772 l 876 782 l 875 782 l 872 786 q 865 779 865 786 q 868 763 868 772 q 867 751 868 760 q 865 728 867 743 q 864 718 864 724 q 865 710 864 715 q 865 697 865 706 l 865 685 q 866 683 865 683 q 867 681 867 682 q 865 678 867 679 l 865 603 q 868 547 865 575 q 869 539 868 544 q 874 532 871 533 q 874 539 874 535 q 875 544 874 543 q 876 551 876 546 q 875 567 876 556 q 874 585 874 578 q 876 580 875 585 q 877 569 876 575 q 878 556 878 563 q 881 549 879 550 m 172 383 q 172 403 172 393 q 171 422 171 413 l 171 540 q 172 551 171 549 q 172 556 172 553 q 171 564 172 558 l 171 578 l 172 589 l 172 618 q 170 610 171 614 q 169 601 169 607 l 168 617 l 167 617 l 164 621 q 157 614 157 621 q 160 597 160 607 q 159 586 160 594 q 157 563 158 578 q 156 553 156 558 q 156 545 156 550 q 157 532 157 540 l 157 519 q 158 517 157 518 q 158 515 158 517 q 157 513 158 514 l 157 438 q 160 382 157 410 q 161 374 160 379 q 165 367 163 368 q 165 374 165 369 q 167 379 165 378 q 168 386 168 381 q 167 401 168 390 q 165 419 165 413 q 167 415 167 419 q 169 403 168 410 q 170 391 169 397 q 172 383 171 385 z "},"V":{"ha":1004,"x_min":43,"x_max":961,"o":"m 900 193 q 884 188 896 188 q 860 187 872 188 q 840 183 849 186 q 831 171 831 181 q 840 171 835 171 q 853 172 844 171 q 874 172 863 172 q 895 169 885 172 q 911 157 906 167 q 922 141 911 147 q 944 130 933 135 q 958 120 954 125 q 961 113 961 115 q 954 100 961 107 q 946 85 950 88 q 935 81 942 82 q 926 68 926 79 q 924 46 925 57 q 920 28 924 35 q 906 21 917 21 q 899 21 903 21 q 703 3 797 4 q 510 0 610 3 q 501 0 506 0 q 482 -2 493 0 q 457 -4 471 -4 q 431 3 442 -4 q 422 10 428 10 q 408 7 415 10 q 400 -1 404 0 q 393 -1 396 -1 q 386 -1 390 -1 q 378 1 382 0 q 371 3 374 3 q 363 1 367 3 q 338 0 350 0 q 315 1 329 0 q 278 6 300 3 q 274 7 275 6 q 269 7 272 7 l 260 8 q 256 8 258 8 q 202 13 228 11 q 154 14 176 14 q 72 6 101 14 q 69 6 71 6 q 53 15 60 6 q 47 42 47 25 q 49 54 47 47 q 53 115 50 90 q 56 179 56 139 q 66 188 57 186 q 86 189 75 189 q 108 189 97 189 q 118 192 118 189 q 118 193 118 193 q 110 198 118 196 q 91 202 101 200 q 71 206 81 204 q 60 210 61 207 q 65 215 60 213 q 72 218 68 217 l 56 225 q 79 229 65 228 q 105 233 90 232 q 139 236 119 235 q 119 367 128 303 q 100 494 110 431 q 97 516 100 506 q 90 538 93 526 q 87 555 88 549 q 86 563 86 561 q 90 579 86 571 q 96 588 96 583 q 95 591 96 588 q 92 601 94 594 q 83 612 85 607 q 81 621 81 617 q 81 626 81 622 q 82 637 82 631 q 79 651 82 643 q 72 703 72 676 q 73 710 72 706 q 74 719 74 714 q 71 765 74 742 q 61 881 68 831 q 43 958 54 931 q 43 963 43 961 q 51 978 43 971 q 75 985 58 985 q 88 983 81 985 q 149 978 124 982 q 214 975 174 975 q 224 963 221 974 q 228 941 226 953 q 231 920 229 929 q 236 911 232 911 q 240 921 239 911 q 242 935 242 926 l 242 950 q 243 960 242 956 q 246 971 243 969 q 251 965 246 971 q 256 958 253 963 l 260 975 q 269 946 264 963 q 278 911 274 931 q 286 868 283 892 l 282 824 q 274 808 274 817 q 267 792 274 799 q 265 783 265 788 q 274 768 265 774 q 290 741 285 751 q 298 721 296 731 q 300 700 300 711 q 300 672 300 689 q 333 449 317 560 q 360 225 349 338 q 438 226 394 226 q 506 226 460 226 q 613 225 553 225 q 629 360 619 293 q 649 494 639 426 q 651 516 651 506 q 651 538 651 526 q 653 559 651 549 q 664 579 656 569 q 672 588 672 582 q 671 601 672 594 q 665 613 665 607 q 667 624 665 618 q 672 636 669 631 q 674 646 674 642 q 674 651 674 649 q 683 708 674 679 q 699 765 692 736 q 720 874 714 831 q 726 940 726 917 q 725 958 726 950 q 738 977 726 969 q 765 985 749 985 q 778 983 771 985 q 810 982 796 983 q 838 979 824 981 q 867 976 851 978 q 901 975 882 975 q 908 965 908 974 q 908 958 908 964 q 906 941 907 953 q 903 924 904 929 q 903 917 903 918 q 906 911 903 911 q 912 920 908 911 q 919 940 915 929 q 925 960 922 950 q 931 971 928 969 q 931 971 931 971 q 935 965 932 971 q 938 958 936 963 l 947 975 q 949 946 949 963 q 947 911 949 931 q 943 868 946 892 l 925 824 q 912 808 914 817 q 900 790 910 799 q 897 781 897 785 q 896 778 896 778 q 901 768 896 772 q 910 743 908 751 q 911 729 911 735 q 910 718 911 725 q 907 700 910 711 q 900 672 904 689 q 867 446 885 558 q 831 221 850 333 q 881 212 863 218 q 900 194 900 206 q 900 193 900 194 m 810 574 q 811 593 811 583 l 817 629 q 824 674 819 644 q 832 722 829 703 q 834 733 833 729 q 835 744 835 736 q 836 747 835 746 q 838 757 836 754 l 840 768 q 842 779 842 775 q 843 788 843 783 q 844 794 844 792 q 839 779 840 789 l 840 793 l 839 793 l 836 797 q 828 790 832 797 q 828 785 828 788 q 826 769 828 779 q 821 743 824 758 q 818 728 818 736 q 817 714 818 721 q 815 701 815 707 q 815 700 815 701 q 815 699 815 700 q 815 699 815 699 q 814 696 815 697 q 811 676 811 685 q 803 624 807 649 q 797 572 800 599 q 797 567 797 569 q 797 565 797 565 q 798 566 797 565 q 799 567 799 567 q 799 565 799 567 q 799 561 799 564 l 799 560 q 801 558 800 560 q 804 569 801 567 q 807 587 807 572 q 808 607 807 601 q 810 603 810 607 l 810 574 m 186 418 l 178 472 q 172 517 175 488 q 165 565 168 546 q 164 574 164 571 q 165 577 164 576 q 165 579 165 578 q 163 588 165 582 q 161 592 161 589 q 160 601 161 599 l 160 611 q 159 623 160 618 q 158 632 158 628 q 157 639 157 636 q 156 632 156 635 q 156 631 156 632 q 156 626 156 629 l 156 624 q 156 626 156 625 l 153 638 l 151 638 l 147 642 q 142 635 142 642 q 146 615 144 628 q 149 586 147 601 q 149 572 149 579 q 151 558 150 565 q 153 551 153 553 q 154 546 153 549 q 155 544 154 544 q 156 542 156 543 q 154 539 156 540 q 157 521 157 531 q 165 467 161 493 q 174 417 168 442 q 175 410 175 410 q 176 410 175 410 q 176 411 176 411 q 178 406 176 411 q 181 401 178 403 q 175 451 181 428 q 181 436 178 451 q 186 418 183 421 z "},"W":{"ha":1246,"x_min":36,"x_max":1211,"o":"m 1131 185 q 1128 172 1128 178 q 1128 160 1128 165 q 1144 149 1140 156 q 1159 133 1144 139 q 1188 122 1174 126 q 1206 112 1201 117 q 1211 104 1211 107 q 1201 92 1211 99 q 1191 76 1197 79 q 1176 72 1185 74 q 1163 60 1164 71 q 1162 38 1163 49 q 1156 19 1161 26 q 1136 13 1150 13 q 1126 13 1132 13 q 1095 8 1111 10 q 1064 6 1079 7 q 1061 3 1064 6 q 1047 -6 1053 3 q 1037 -26 1042 -15 q 1028 -44 1032 -36 q 1017 -53 1024 -53 q 1004 -46 1011 -53 q 989 -36 992 -42 q 985 -24 986 -31 q 976 -14 983 -15 q 959 -12 968 -12 q 941 -10 950 -11 q 928 -4 932 -10 q 784 -7 856 -7 q 633 -8 713 -7 q 622 -8 628 -8 q 596 -10 611 -8 q 563 -12 581 -12 q 528 -6 542 -12 q 516 1 524 1 q 500 -1 508 1 q 490 -9 493 -8 q 483 -10 486 -10 q 476 -9 481 -10 q 468 -8 472 -8 q 460 -7 464 -7 q 451 -7 457 -7 q 415 -10 433 -10 q 372 -6 399 -10 q 311 0 346 -3 q 290 1 300 1 q 271 3 281 1 q 258 -8 263 1 q 249 -27 253 -17 q 240 -45 244 -37 q 229 -53 236 -53 q 217 -46 224 -53 q 201 -36 204 -42 q 197 -24 199 -31 q 187 -14 196 -15 q 167 -12 178 -12 q 149 -9 157 -11 q 138 4 140 -7 q 98 1 115 3 q 68 -3 81 0 q 65 -3 67 -3 q 44 7 53 -3 q 36 35 36 17 q 36 46 36 40 q 40 78 38 64 q 44 106 42 92 q 47 136 46 121 q 49 171 49 151 q 59 178 50 176 q 80 181 68 181 q 99 180 92 181 q 111 179 107 179 q 122 181 118 179 l 122 189 q 104 192 115 190 q 82 194 93 193 q 63 198 71 196 q 53 201 54 200 q 60 207 53 204 q 68 210 64 208 l 49 217 q 68 219 57 218 q 121 226 90 225 q 118 346 118 286 q 117 465 118 406 q 117 474 117 469 q 115 490 117 481 q 113 508 114 500 q 113 522 113 517 q 113 536 113 528 q 119 554 114 544 q 126 565 126 558 q 124 578 126 571 q 116 589 117 585 q 115 596 115 593 q 116 603 115 599 q 118 613 117 608 q 119 621 119 618 q 118 631 119 626 q 117 661 117 646 q 119 699 117 676 q 125 751 122 721 q 131 863 131 813 q 130 898 131 868 q 122 957 129 928 q 122 960 122 958 q 132 976 122 969 q 160 983 142 983 q 171 983 165 983 q 203 981 189 983 q 231 978 217 979 q 261 975 246 976 q 296 974 276 974 q 304 961 303 972 q 306 938 306 950 q 306 917 306 926 q 310 907 306 907 q 315 916 313 907 q 319 937 317 925 q 322 958 321 949 q 326 969 324 968 q 326 969 326 969 q 332 964 329 969 q 335 957 333 961 l 342 974 q 347 943 344 960 q 352 908 350 928 q 354 861 354 888 l 343 814 q 332 797 333 807 q 324 779 331 788 q 321 768 321 774 q 328 756 321 761 q 340 727 336 739 q 345 708 344 715 q 346 697 346 701 q 344 681 346 690 q 342 653 343 671 l 342 217 q 371 221 357 221 q 385 220 375 221 q 426 217 394 219 l 518 217 q 518 219 518 218 l 519 222 q 519 225 519 224 q 521 231 521 228 q 519 237 521 233 q 517 244 518 240 q 517 249 517 247 q 517 255 517 251 q 525 263 518 258 q 528 272 528 268 q 521 279 528 276 q 515 292 515 286 q 514 301 514 297 q 515 312 514 306 q 517 324 515 318 q 518 335 518 331 q 518 342 518 339 q 520 402 519 381 q 523 437 521 424 q 527 460 525 450 q 533 486 529 469 q 533 492 533 489 q 541 505 533 501 q 561 509 549 508 q 585 510 574 510 q 599 518 597 511 q 603 526 600 524 q 618 532 606 529 q 632 538 625 538 q 643 532 639 538 q 651 519 647 526 q 661 505 656 511 q 675 499 667 499 q 688 485 685 493 q 690 469 690 478 q 690 453 690 460 q 689 443 689 447 q 689 436 689 440 q 692 436 690 436 q 701 442 699 436 q 705 458 704 449 q 706 477 706 468 q 711 489 706 486 q 713 489 713 489 q 730 473 724 489 q 739 431 736 457 q 742 374 742 406 q 743 314 743 343 l 743 217 l 908 217 q 906 341 906 279 q 904 465 906 403 q 904 474 904 469 q 903 490 904 481 q 901 508 901 500 q 900 522 900 517 q 901 536 900 528 q 907 554 901 544 q 914 565 914 558 q 911 578 914 571 q 903 589 904 585 q 903 596 903 593 q 903 603 903 599 q 906 613 904 608 q 907 621 907 618 q 906 631 907 626 q 904 661 904 646 q 907 699 904 676 q 913 751 910 721 q 918 863 918 813 q 917 898 918 868 q 910 957 917 928 q 910 960 910 958 q 919 976 910 969 q 947 983 929 983 q 958 983 953 983 q 990 981 976 983 q 1019 978 1004 979 q 1049 975 1033 976 q 1083 974 1064 974 q 1092 961 1090 972 q 1093 938 1093 950 q 1093 917 1093 926 q 1097 907 1093 907 q 1102 916 1100 907 q 1106 937 1104 925 q 1110 958 1108 949 q 1114 969 1111 968 q 1114 969 1114 969 q 1119 964 1117 969 q 1122 957 1121 961 l 1129 974 q 1135 943 1132 960 q 1140 908 1138 928 q 1142 861 1142 888 l 1131 814 q 1119 797 1121 807 q 1111 779 1118 788 q 1108 768 1108 774 q 1115 756 1108 761 q 1128 727 1124 739 q 1133 708 1132 715 q 1133 697 1133 701 q 1132 681 1133 690 q 1129 653 1131 671 l 1129 229 q 1128 192 1129 211 q 1131 185 1131 189 m 1054 549 q 1054 568 1054 558 q 1053 588 1053 578 l 1053 706 q 1053 716 1053 714 q 1054 721 1054 718 q 1053 729 1054 724 l 1053 743 l 1054 754 l 1054 783 q 1052 776 1053 779 q 1051 767 1051 772 l 1050 782 l 1049 782 l 1046 786 q 1039 779 1039 786 q 1042 763 1042 772 q 1041 751 1042 760 q 1039 728 1040 743 q 1038 718 1038 724 q 1038 710 1038 715 q 1039 697 1039 706 l 1039 685 q 1040 683 1039 683 q 1040 681 1040 682 q 1039 678 1040 679 l 1039 603 q 1042 547 1039 575 q 1043 539 1042 544 q 1047 532 1044 533 q 1047 539 1047 535 q 1049 544 1047 543 q 1050 551 1050 546 q 1049 567 1050 556 q 1047 585 1047 578 q 1049 580 1049 585 q 1051 569 1050 575 q 1052 556 1051 563 q 1054 549 1053 550 m 193 383 q 193 403 193 393 q 192 422 192 413 l 192 540 q 192 551 192 549 q 193 556 193 553 q 192 564 193 558 l 192 578 l 193 589 l 193 618 q 191 610 192 614 q 190 601 190 607 l 189 617 l 188 617 l 185 621 q 178 614 178 621 q 181 597 181 607 q 180 586 181 594 q 178 563 179 578 q 176 553 176 558 q 177 545 176 550 q 178 532 178 540 l 178 519 q 178 517 178 518 q 179 515 179 517 q 178 513 179 514 l 178 438 q 181 382 178 410 q 182 374 181 379 q 186 367 183 368 q 186 374 186 369 q 188 379 186 378 q 189 386 189 381 q 188 401 189 390 q 186 419 186 413 q 188 415 188 419 q 190 403 189 410 q 191 391 190 397 q 193 383 192 385 z "},"X":{"ha":1081,"x_min":43,"x_max":1053,"o":"m 983 321 q 965 315 978 315 q 938 315 951 315 q 915 311 925 314 q 906 301 906 308 q 906 299 906 300 q 917 299 911 299 q 931 299 922 299 q 953 300 940 300 q 977 297 965 300 q 996 285 989 294 q 1008 269 996 275 q 1033 258 1021 263 q 1049 248 1044 253 q 1053 240 1053 243 q 1044 228 1053 235 q 1035 213 1040 215 q 1022 208 1029 210 q 1012 196 1013 207 q 1010 174 1011 185 q 1006 156 1010 163 q 989 149 1001 149 q 981 149 986 149 l 979 149 q 971 54 976 93 q 950 15 965 15 q 949 15 949 15 q 943 34 943 21 q 942 60 943 47 q 939 83 942 74 q 929 93 936 93 q 926 93 928 93 q 926 83 926 89 q 927 68 926 78 q 928 46 928 58 q 925 22 928 33 q 913 3 922 10 q 899 -6 904 3 q 888 -26 893 -15 q 879 -44 883 -36 q 868 -53 875 -53 q 856 -46 863 -53 q 840 -36 843 -42 q 836 -24 838 -31 q 824 -13 835 -14 q 801 -12 813 -12 q 783 -7 790 -11 q 776 10 776 -3 q 776 18 776 14 q 767 81 771 54 q 761 131 764 108 q 663 129 713 129 q 561 128 614 129 q 551 128 556 128 q 529 126 542 128 q 501 124 517 124 q 472 131 485 124 q 462 138 468 138 q 449 135 456 138 q 438 127 443 128 q 431 126 433 126 q 423 127 428 126 q 413 129 418 128 q 406 131 408 131 q 396 129 400 131 q 365 126 381 126 q 351 127 363 126 q 321 131 340 128 q 313 49 319 82 q 293 15 307 15 q 292 15 292 15 q 286 34 286 21 q 285 60 286 47 q 282 83 285 74 q 272 93 279 93 q 269 93 271 93 q 269 83 269 89 q 270 68 269 78 q 271 46 271 58 q 268 22 271 33 q 256 3 265 10 q 242 -6 247 3 q 231 -26 236 -15 q 222 -44 226 -36 q 211 -53 218 -53 q 199 -46 206 -53 q 183 -36 186 -42 q 179 -24 181 -31 q 167 -13 178 -14 q 144 -12 156 -12 q 126 -7 133 -11 q 119 10 119 -3 q 119 18 119 14 q 108 93 113 67 q 101 139 104 119 q 69 133 79 136 q 67 133 68 133 q 50 143 57 133 q 43 171 43 153 q 43 182 43 176 q 45 214 43 200 q 49 242 47 228 q 51 272 50 257 q 53 307 53 288 q 64 315 54 314 q 85 317 74 317 q 110 317 99 317 q 121 319 121 317 q 121 321 121 321 q 111 326 121 324 q 90 330 101 328 q 69 333 79 332 q 57 338 58 335 q 63 343 57 340 q 69 346 65 344 q 58 349 64 349 q 53 353 53 349 q 69 358 53 357 q 107 360 85 360 q 140 360 121 360 q 161 359 147 360 q 190 357 175 358 q 217 353 204 356 q 233 346 229 350 q 214 419 225 378 q 192 503 203 460 q 171 585 181 546 q 154 653 161 625 q 144 678 149 668 q 140 694 140 688 q 139 706 139 701 q 140 719 139 711 q 144 743 140 726 q 150 753 150 749 q 144 763 150 758 q 132 776 135 768 q 118 788 129 783 l 97 824 q 90 863 92 846 q 86 893 88 881 q 85 921 85 908 l 94 910 q 96 917 96 914 q 100 922 99 922 q 107 913 103 921 q 115 896 111 906 q 123 880 119 886 q 128 874 126 874 q 129 874 129 874 q 132 878 132 874 q 131 885 132 879 q 127 901 129 890 q 124 917 125 911 q 124 922 124 922 q 129 933 124 931 q 190 953 167 943 q 247 974 214 963 q 276 979 263 979 q 300 965 297 979 q 300 960 300 963 q 311 891 300 933 q 342 793 322 849 q 361 744 350 768 q 375 693 372 721 q 378 681 375 686 q 383 670 381 675 q 385 663 385 665 q 386 658 386 660 q 381 647 386 653 q 381 642 381 644 q 389 629 381 632 q 406 595 406 617 q 411 557 406 574 q 437 449 425 497 q 458 353 449 401 q 510 354 483 354 q 549 353 522 354 q 615 353 576 353 q 637 449 625 401 q 663 557 649 497 q 666 575 665 565 q 668 595 667 585 q 673 615 669 606 q 685 629 676 624 q 693 642 693 632 q 693 647 693 644 q 688 658 688 653 q 688 663 688 660 q 691 670 689 665 q 696 681 693 675 q 699 693 699 686 q 713 744 701 721 q 732 793 724 768 q 763 891 751 849 q 774 960 774 933 q 774 965 774 963 q 797 979 776 979 q 826 974 811 979 q 883 953 860 963 q 944 933 907 943 q 950 924 950 931 q 949 917 950 922 q 947 901 949 911 q 943 885 944 890 q 942 878 942 879 q 944 874 942 874 q 946 874 944 874 q 951 880 947 874 q 958 896 954 886 q 967 913 963 906 q 974 922 971 921 q 978 917 975 922 q 979 910 978 914 l 989 921 q 988 893 989 908 q 984 863 986 881 q 976 824 982 846 l 956 788 q 942 776 944 783 q 929 763 939 768 q 925 753 925 758 q 929 743 925 749 q 935 719 933 726 q 936 706 936 711 q 935 694 936 701 q 929 678 933 688 q 919 653 925 668 q 903 586 914 625 q 883 506 893 547 q 861 423 872 464 q 842 351 850 382 q 897 349 871 351 q 942 344 922 347 q 972 335 961 340 q 983 321 983 329 m 257 524 q 257 526 257 525 q 256 539 257 531 q 254 551 254 547 q 256 554 254 554 q 258 536 257 549 q 263 521 260 524 q 266 518 265 521 q 268 513 267 515 q 269 515 269 514 q 268 519 268 518 q 268 519 268 519 q 269 519 269 519 q 271 519 269 519 q 271 521 271 519 q 269 525 271 522 q 247 617 261 571 q 246 624 247 619 q 243 632 244 629 q 242 635 242 633 q 242 635 242 635 q 243 638 243 636 q 242 638 243 638 q 239 649 242 643 q 237 661 238 656 q 233 674 236 667 q 226 697 229 686 q 222 715 222 708 q 215 719 218 719 l 213 715 q 211 714 213 714 l 213 701 q 210 708 211 706 q 207 714 208 711 q 208 707 207 711 q 213 690 211 701 l 217 682 q 218 674 217 679 q 219 671 219 672 q 222 661 221 664 q 225 651 222 658 q 235 610 229 635 q 246 571 242 585 q 249 560 249 565 l 251 551 q 254 540 253 546 q 257 524 256 532 m 817 524 q 821 540 818 532 q 828 571 822 553 q 838 610 832 585 q 849 651 844 635 q 852 661 851 658 q 854 671 853 664 q 856 674 856 674 q 857 682 857 679 l 861 690 q 865 707 865 701 q 867 714 867 711 q 864 708 865 711 q 861 701 863 706 l 863 714 l 860 718 q 858 719 860 719 q 851 715 856 719 q 848 697 851 708 q 840 674 844 686 q 837 661 838 667 q 835 649 836 656 q 832 638 832 643 q 832 638 832 638 q 832 635 832 636 q 832 635 832 635 q 831 632 832 633 q 828 624 829 629 q 826 617 826 619 q 804 525 813 571 q 803 521 803 522 q 803 519 803 519 q 804 519 804 519 q 806 519 804 519 q 806 519 806 519 q 804 515 806 518 q 806 513 804 514 q 808 518 807 515 q 811 521 808 521 q 815 536 814 524 q 818 554 817 549 q 819 551 819 554 q 818 539 819 547 q 817 526 817 531 q 817 524 817 525 z "},"Y":{"ha":1031,"x_min":35,"x_max":975,"o":"m 774 15 q 771 26 771 19 q 772 38 771 29 q 775 58 774 47 q 776 75 776 68 q 776 87 776 81 q 768 93 775 93 q 765 93 767 93 q 760 71 761 83 q 758 46 760 58 q 751 22 756 33 q 735 3 746 10 q 719 -6 726 3 q 706 -26 713 -15 q 694 -44 700 -36 q 681 -53 688 -53 q 669 -46 675 -53 q 656 -36 658 -42 q 654 -24 654 -31 q 643 -13 654 -14 q 621 -12 632 -12 q 604 -8 610 -11 q 599 4 599 -4 q 601 18 599 10 q 605 84 603 51 q 611 150 607 117 q 556 147 583 147 q 499 143 528 146 q 489 144 493 144 q 469 141 481 144 q 443 138 457 138 q 419 144 431 138 q 411 151 415 151 q 408 151 411 151 q 399 147 406 150 q 389 140 393 140 q 382 139 385 139 q 375 140 379 139 q 367 141 371 140 q 360 142 363 142 q 351 140 356 142 q 319 138 336 138 q 290 140 308 138 q 244 144 271 143 q 178 146 208 146 q 120 144 154 146 q 60 135 86 143 q 56 135 57 135 q 41 144 47 135 q 35 169 35 153 q 36 182 35 175 q 38 214 36 200 q 40 242 39 228 q 43 272 42 257 q 44 307 44 288 q 55 316 46 314 q 74 319 64 318 q 93 320 85 319 q 101 325 101 321 q 94 330 101 328 q 76 333 86 332 q 58 335 67 333 q 49 338 50 336 q 54 343 49 340 q 60 347 56 346 l 44 353 q 60 357 51 356 q 79 362 68 360 q 104 365 90 364 q 104 408 104 385 q 103 465 104 432 q 103 474 103 469 q 101 490 103 481 q 99 508 100 500 q 99 522 99 517 q 99 536 99 528 q 106 554 100 544 q 113 565 113 558 q 110 578 113 571 q 102 589 103 585 q 101 596 101 593 q 102 603 101 599 q 104 613 103 608 q 106 621 106 618 q 104 631 106 626 q 103 661 103 646 q 106 699 103 676 q 111 751 108 721 q 117 863 117 813 q 116 898 117 868 q 108 957 115 928 q 108 960 108 958 q 118 976 108 969 q 146 983 128 983 q 157 983 151 983 q 189 981 175 983 q 217 978 203 979 q 247 975 232 976 q 282 974 263 974 q 290 961 289 972 q 292 938 292 950 q 292 917 292 926 q 296 907 292 907 q 301 916 299 907 q 305 937 303 925 q 308 958 307 949 q 313 969 310 968 q 313 969 313 969 q 318 964 315 969 q 321 957 319 961 l 328 974 q 333 943 331 960 q 338 908 336 928 q 340 861 340 888 l 329 814 q 318 797 319 807 q 310 779 317 788 q 307 768 307 774 q 314 756 307 761 q 326 727 322 739 q 331 708 331 715 q 332 697 332 701 q 331 681 332 690 q 328 653 329 671 l 328 363 l 332 363 q 403 367 363 365 q 487 370 444 368 q 571 374 529 372 q 644 375 613 375 q 653 420 649 399 q 660 465 657 442 q 663 488 663 476 q 665 511 664 500 q 667 533 665 522 q 678 554 669 544 q 687 563 686 558 q 688 569 688 567 q 686 578 688 574 q 681 590 681 585 q 683 602 681 596 q 688 615 685 608 q 690 631 690 622 q 701 691 692 661 q 718 751 711 721 q 744 868 736 821 q 751 942 751 915 q 751 957 751 950 q 765 976 753 968 q 794 983 776 983 q 806 983 800 983 q 836 981 822 983 q 864 978 850 979 q 893 975 878 976 q 928 974 908 974 q 935 963 935 972 q 934 956 935 963 q 931 938 933 950 q 928 920 929 926 q 928 913 928 914 q 931 907 928 907 q 937 916 933 907 q 944 937 940 925 q 952 958 949 949 q 958 969 956 968 q 958 969 958 969 q 963 964 960 969 q 964 957 963 961 l 974 974 q 975 943 975 960 q 972 908 974 928 q 967 861 971 888 l 947 814 q 933 797 936 807 q 922 779 931 788 q 917 769 918 772 q 917 764 917 765 q 922 756 917 760 q 929 729 928 739 q 931 714 931 719 q 930 702 931 710 q 926 683 929 694 q 918 653 922 671 q 908 592 914 626 q 894 519 901 558 q 881 441 888 481 q 867 364 874 401 q 878 350 878 360 q 864 344 875 347 l 861 328 q 889 315 881 328 q 900 300 889 306 q 922 290 911 294 q 935 281 932 285 q 939 274 939 276 q 932 260 939 268 q 923 244 928 247 q 911 239 918 242 q 902 226 903 238 q 901 204 901 215 q 897 185 901 193 q 879 178 893 178 q 875 178 878 178 q 864 175 869 176 l 843 172 q 832 169 838 171 q 820 110 826 139 q 806 61 814 82 q 790 28 799 40 q 774 15 782 15 m 825 549 l 833 607 q 842 654 836 624 q 850 706 847 685 q 853 717 853 714 q 854 729 854 721 q 856 733 856 731 q 857 743 857 739 l 861 754 q 863 766 863 761 q 864 775 864 771 q 865 783 865 779 q 863 776 864 779 q 860 767 861 772 l 861 782 l 860 782 l 858 786 q 850 779 850 786 q 848 763 850 774 q 844 740 846 753 q 839 716 842 728 q 835 697 836 704 q 834 687 835 694 q 832 678 833 679 l 828 658 q 819 602 824 629 q 811 547 814 575 q 811 542 811 543 q 811 540 811 540 q 812 541 811 540 q 813 542 813 542 q 813 540 813 542 q 813 536 813 539 q 814 532 813 533 q 814 529 814 529 q 815 536 814 529 q 818 544 817 543 q 822 563 821 547 q 824 585 822 578 q 825 580 825 585 q 824 569 825 575 q 824 556 824 563 q 825 549 824 550 m 179 383 q 179 403 179 393 q 178 422 178 413 l 178 540 q 178 551 178 549 q 179 556 179 553 q 178 564 179 558 l 178 578 l 179 589 l 179 618 q 177 610 178 614 q 176 601 176 607 l 175 617 l 174 617 l 171 621 q 164 614 164 621 q 167 597 167 607 q 166 586 167 594 q 164 563 165 578 q 163 553 163 558 q 163 545 163 550 q 164 532 164 540 l 164 519 q 165 517 164 518 q 165 515 165 517 q 164 513 165 514 l 164 438 q 167 382 164 410 q 168 374 167 379 q 172 367 169 368 q 172 374 172 369 q 174 379 172 378 q 175 386 175 381 q 174 401 175 390 q 172 419 172 413 q 174 415 174 419 q 176 403 175 410 q 177 391 176 397 q 179 383 178 385 z "},"Z":{"ha":1088,"x_min":43,"x_max":1053,"o":"m 117 188 q 117 189 117 189 q 139 206 117 200 q 197 216 161 213 q 275 219 232 219 q 315 219 296 219 q 328 251 321 236 q 339 279 333 265 q 325 281 332 281 q 281 285 301 283 q 242 286 260 286 q 174 278 197 286 q 172 278 172 278 q 158 287 164 278 q 153 311 153 296 q 154 326 153 318 q 158 387 154 363 q 161 451 161 411 q 169 460 163 458 q 185 461 176 461 q 203 461 194 461 q 211 465 211 461 q 204 470 211 468 q 189 474 197 472 q 173 478 181 476 q 164 482 165 479 q 168 488 164 486 q 174 490 171 489 l 161 497 q 183 503 171 500 q 210 508 194 506 q 244 510 225 510 l 279 499 q 292 488 285 489 q 304 479 299 486 q 313 476 308 476 q 322 483 319 476 q 342 496 335 492 q 355 501 350 500 q 363 501 360 501 q 376 500 368 501 q 396 497 383 499 l 422 497 q 426 514 425 506 q 435 536 429 525 q 450 557 440 547 q 462 567 460 561 q 464 581 464 574 q 461 590 461 586 q 462 595 461 592 q 467 605 463 599 q 475 617 471 611 q 481 631 479 624 q 504 692 488 663 q 533 747 519 719 q 532 747 533 747 q 501 744 518 744 q 472 751 485 744 q 462 758 468 758 q 449 756 456 758 q 438 748 443 749 q 431 747 433 747 q 423 748 428 747 q 413 750 418 749 q 406 751 408 751 q 396 750 400 751 q 365 749 381 749 q 328 751 350 749 q 276 757 306 754 q 216 761 244 760 q 163 763 188 763 q 69 754 101 763 q 67 754 68 754 q 50 764 57 754 q 43 792 43 774 q 43 803 43 797 q 45 835 43 821 q 49 863 47 849 q 51 893 50 878 q 53 928 53 908 q 64 936 54 935 q 85 938 74 938 q 110 938 99 938 q 121 940 121 938 q 121 942 121 942 q 111 947 121 944 q 90 951 101 949 q 69 954 79 953 q 57 958 58 956 q 63 964 57 961 q 69 967 65 965 l 53 974 q 83 979 67 976 q 119 984 99 982 q 167 986 140 986 l 214 975 q 231 964 221 965 q 249 956 240 963 q 260 953 254 953 q 272 960 267 953 q 300 972 289 968 q 318 977 311 976 q 329 978 325 978 q 346 976 336 978 q 374 974 356 975 l 636 974 q 660 979 646 979 q 672 978 665 979 q 683 978 678 978 q 704 976 694 978 q 719 974 713 975 l 735 974 q 819 973 775 974 q 901 969 864 972 q 960 960 938 967 q 983 943 983 954 q 983 942 983 943 q 965 936 978 936 q 938 935 951 936 q 915 932 925 935 q 906 922 906 929 q 906 919 906 921 q 917 919 911 919 q 931 920 922 919 q 953 921 940 921 q 977 918 965 921 q 996 906 989 915 q 1008 890 996 896 q 1033 878 1021 883 q 1049 869 1044 874 q 1053 861 1053 864 q 1044 849 1053 856 q 1035 833 1040 836 q 1022 829 1029 831 q 1012 817 1013 828 q 1010 794 1011 806 q 1006 776 1010 783 q 989 769 1001 769 q 981 769 986 769 q 874 757 925 761 q 771 751 822 753 q 754 751 763 751 q 744 718 753 735 q 711 653 731 690 q 697 615 706 636 l 650 497 l 663 497 q 724 497 692 497 q 784 493 757 496 q 828 484 811 490 q 844 465 844 478 q 831 460 840 460 q 811 459 821 460 q 794 456 801 458 q 786 443 786 453 q 794 443 790 443 q 806 444 799 443 q 822 444 813 444 q 839 442 831 444 q 853 429 847 439 q 862 413 853 419 q 880 402 871 407 q 892 392 889 397 q 894 385 894 388 q 889 372 894 379 q 883 357 886 360 q 872 353 879 354 q 865 340 865 351 q 864 318 864 329 q 861 300 864 307 q 850 293 858 293 q 843 293 847 293 q 763 281 801 285 q 688 275 725 276 q 613 274 650 274 q 558 274 586 274 q 558 272 558 274 q 536 219 547 247 l 706 219 q 733 222 724 221 q 749 224 742 224 q 760 223 753 224 q 777 218 767 222 q 804 206 788 214 q 817 199 810 199 q 826 201 821 199 q 844 210 835 208 q 860 221 853 211 l 906 232 q 951 230 932 232 q 986 225 971 228 q 1015 219 1003 222 l 1000 213 q 1007 210 1004 211 q 1013 204 1013 207 q 1013 204 1013 204 q 1001 200 1011 201 q 980 197 992 199 q 959 192 968 194 q 950 188 950 190 q 967 183 950 183 q 998 183 982 183 q 1015 174 1014 183 q 1017 139 1015 154 q 1019 109 1018 124 q 1023 81 1021 94 q 1025 49 1025 67 q 1026 36 1026 42 q 1019 10 1026 19 q 1003 0 1013 0 q 1000 0 1001 0 q 911 8 969 8 q 858 7 886 8 q 800 3 831 6 q 751 -3 772 0 q 714 -7 729 -7 q 685 -4 700 -7 q 676 -4 681 -4 q 669 -5 674 -4 q 659 -6 664 -6 q 651 -7 654 -7 q 644 -6 649 -7 q 633 1 640 -6 q 620 4 626 4 q 611 -3 614 4 q 582 -10 599 -10 q 556 -8 568 -10 q 535 -6 544 -6 q 525 -6 529 -6 q 421 -4 471 -4 q 360 -4 390 -4 q 351 -14 356 -10 q 335 -33 343 -25 q 319 -40 326 -40 q 310 -32 314 -40 q 299 -23 299 -28 q 300 -11 299 -18 q 301 -7 301 -8 q 297 -1 301 -3 q 224 3 261 0 q 119 15 174 7 q 111 15 115 15 q 96 22 100 15 q 91 40 92 29 q 90 63 90 51 q 79 75 89 74 q 67 79 72 76 q 57 94 61 82 q 50 107 50 101 q 53 115 50 110 q 69 124 57 119 q 92 135 81 129 q 104 151 104 142 q 122 164 111 161 q 146 167 133 167 q 167 166 158 167 q 182 165 176 165 q 192 165 188 165 q 192 168 192 167 q 183 178 192 175 q 160 181 174 181 q 134 182 147 182 q 117 188 121 182 m 581 469 l 600 528 q 617 574 606 543 q 635 625 628 604 q 639 637 638 633 q 642 647 640 640 q 643 651 643 649 q 646 657 646 656 q 647 661 646 658 l 653 672 l 663 701 q 658 694 660 697 q 654 685 657 690 l 658 700 q 656 701 656 700 q 656 702 656 701 q 657 703 657 703 q 654 704 657 704 q 646 697 650 704 q 640 675 644 689 q 628 646 635 661 q 622 632 625 639 q 617 617 619 625 q 615 609 615 611 q 613 604 614 607 q 613 602 613 603 q 614 601 614 601 q 611 597 614 600 q 604 578 607 589 q 584 522 593 549 q 568 468 575 496 q 567 463 567 464 l 567 461 q 567 460 567 461 q 568 460 568 460 q 567 457 568 458 q 568 453 567 454 q 568 450 568 451 q 568 450 568 450 q 570 457 568 450 q 574 465 572 464 q 580 483 576 468 q 586 506 583 499 q 588 504 588 506 q 586 499 588 503 q 583 490 585 496 q 581 477 582 483 q 581 469 581 471 z "},".":{"ha":779,"x_min":14,"x_max":765,"o":"m 511 336 q 523 295 511 303 q 540 288 535 288 q 501 278 526 278 q 456 292 476 278 q 435 342 435 306 q 410 298 429 318 q 363 278 390 278 q 326 289 342 278 q 301 317 311 300 q 288 354 292 335 q 283 390 283 374 q 303 467 283 432 q 372 503 322 503 q 435 485 406 503 l 435 538 l 422 532 l 403 582 l 511 582 l 511 336 m 751 576 l 751 567 l 736 567 l 736 576 l 739 576 l 739 571 l 742 571 l 742 575 l 746 575 l 746 571 l 749 571 l 749 576 l 751 576 m 671 349 l 718 349 l 685 288 q 661 278 674 281 q 636 275 649 275 q 576 294 606 275 q 547 360 547 313 l 547 464 l 524 464 l 524 499 l 547 499 l 547 513 q 536 547 547 539 q 518 554 525 554 q 558 563 531 563 q 603 551 582 563 q 624 501 624 539 l 624 499 l 711 499 l 711 464 l 624 464 l 624 382 q 631 333 624 353 q 658 314 638 314 q 675 317 669 314 l 671 349 m 751 546 l 751 543 l 736 543 l 736 549 q 740 554 736 554 q 746 549 746 554 l 746 546 l 751 546 m 751 521 l 746 521 l 736 515 l 736 521 l 743 524 l 736 526 l 736 531 l 746 525 l 751 525 l 751 521 m 739 497 l 739 493 l 736 493 l 736 506 l 739 506 l 739 501 l 751 501 l 751 497 l 739 497 m 183 503 q 253 467 233 503 q 272 390 272 432 q 268 354 272 374 q 255 317 264 335 q 231 289 246 300 q 193 278 215 278 q 146 297 165 278 q 121 339 126 317 l 121 257 q 100 208 121 221 q 54 194 79 194 q 33 197 43 194 q 15 203 22 200 q 33 211 22 203 q 44 253 44 219 l 44 453 l 33 449 l 14 499 l 121 499 l 121 485 q 183 503 150 503 m 743 467 q 736 475 736 467 q 742 482 736 481 l 742 478 q 740 476 740 478 q 739 475 739 476 q 743 469 739 469 q 749 475 749 469 q 749 476 749 476 q 746 478 749 478 l 746 482 q 751 475 751 481 q 743 467 751 467 m 435 449 q 419 454 428 451 q 403 457 411 457 q 374 440 383 457 q 364 399 364 424 q 372 358 364 378 q 397 338 381 338 q 424 356 414 338 q 435 385 433 374 l 435 449 m 158 338 q 183 358 175 338 q 192 399 192 378 q 181 440 192 424 q 151 457 171 457 q 136 454 144 457 q 121 449 128 451 l 121 385 q 132 356 122 374 q 158 338 142 338 m 746 454 q 751 447 751 454 q 746 442 751 442 l 736 442 l 736 444 l 746 444 q 749 447 749 444 q 746 450 749 450 l 736 450 l 736 454 l 746 454 m 743 429 q 751 421 751 429 l 751 415 l 736 415 l 736 421 q 743 429 736 429 m 749 418 l 749 421 q 743 425 749 425 q 739 421 739 425 l 739 418 l 749 418 m 743 386 q 736 394 736 386 q 743 403 736 403 q 751 394 751 403 q 743 386 751 386 m 751 371 l 746 367 l 751 367 l 751 363 l 736 363 l 736 368 q 740 375 736 375 q 746 371 744 375 l 751 375 l 751 371 m 740 350 q 746 344 746 350 l 746 342 l 751 342 l 751 339 l 736 339 l 736 344 q 740 350 736 350 m 743 325 q 765 301 765 325 q 743 279 765 279 q 719 301 719 279 q 743 325 719 325 z "},"a":{"ha":1081,"x_min":28,"x_max":1038,"o":"m 926 -22 q 921 -9 921 -18 q 920 10 921 0 q 917 26 919 19 q 907 33 914 33 q 904 33 906 33 q 904 26 904 31 q 905 15 904 22 q 906 -1 906 8 q 903 -17 906 -10 q 890 -31 900 -25 q 876 -37 882 -31 q 867 -51 871 -44 q 858 -65 863 -58 q 847 -71 854 -71 q 833 -65 840 -71 q 818 -59 821 -62 q 814 -50 815 -56 q 801 -42 813 -43 q 779 -41 790 -42 q 761 -37 768 -40 q 754 -26 754 -35 q 754 -19 754 -24 q 746 28 749 4 q 740 75 743 51 q 638 20 704 42 q 503 -1 572 -1 q 472 0 488 -1 q 440 4 456 1 q 432 10 438 10 q 428 9 432 10 q 418 6 425 8 q 406 -3 413 -1 q 394 -4 400 -4 q 384 -3 388 -4 q 379 -3 381 -3 q 368 -6 374 -3 q 349 -9 357 -8 q 331 -10 340 -10 q 287 -6 307 -10 q 247 -1 267 -1 q 214 -7 229 -1 q 210 -7 211 -7 q 195 1 201 -7 q 189 26 189 10 q 189 39 189 32 q 180 72 189 57 q 159 100 171 86 q 138 130 147 114 q 128 165 128 146 q 139 175 129 172 q 159 178 149 178 q 177 181 169 179 q 185 186 185 182 q 177 190 185 189 q 160 192 169 192 q 142 194 150 193 q 132 196 133 194 q 148 210 138 207 q 181 215 158 213 q 163 284 171 250 q 147 349 154 318 q 138 373 142 364 q 133 389 133 382 q 132 400 132 396 q 133 413 132 406 q 138 436 133 419 q 143 446 143 442 q 138 456 143 451 q 125 469 128 461 q 111 479 122 476 l 106 489 q 100 490 103 490 q 92 490 96 490 q 76 497 81 490 q 70 515 71 504 q 69 538 69 526 q 58 550 68 549 q 46 554 51 551 q 36 569 40 557 q 28 582 28 576 q 32 590 28 585 q 48 599 36 594 q 72 610 60 604 q 85 626 85 617 q 103 639 92 636 q 128 642 115 642 q 150 641 140 642 q 165 640 160 640 q 175 640 171 640 q 175 643 175 642 q 165 653 175 650 q 142 656 156 656 q 116 657 129 657 q 97 663 103 657 q 97 664 97 664 q 120 681 97 675 q 180 690 143 688 q 261 694 217 693 q 346 694 306 694 l 707 694 q 735 697 725 696 q 751 699 744 699 q 763 698 756 699 q 781 693 769 697 q 808 681 792 689 q 821 674 814 674 q 832 676 826 674 q 850 685 840 683 q 867 696 860 686 l 914 707 q 961 705 940 707 q 997 700 982 703 q 1028 694 1014 697 l 1011 688 q 1018 685 1015 686 q 1024 679 1024 682 q 1024 679 1024 679 q 1013 675 1022 676 q 991 672 1003 674 q 970 668 979 669 q 960 664 961 667 q 961 660 960 663 q 974 658 964 658 q 996 658 985 658 q 1017 657 1007 658 q 1028 649 1026 656 q 1029 614 1028 629 q 1032 584 1031 599 q 1035 556 1033 569 q 1038 524 1038 542 q 1038 513 1038 518 q 1031 485 1038 494 q 1014 475 1024 475 q 1011 475 1013 475 q 961 482 989 481 q 963 469 963 475 q 962 459 963 465 q 958 436 961 453 l 958 157 q 958 96 958 128 q 954 38 957 64 q 945 -6 951 11 q 926 -22 939 -22 m 404 254 q 409 235 407 243 q 414 218 411 226 q 640 254 565 224 q 729 353 714 285 q 736 365 732 361 q 743 372 743 368 q 740 383 743 376 q 733 391 733 388 q 732 396 732 394 q 733 402 732 399 q 735 409 733 406 q 736 415 736 413 q 735 421 736 418 q 732 440 732 431 q 733 451 732 443 q 736 471 733 458 q 716 469 724 469 q 706 468 708 468 q 685 471 694 468 q 675 472 681 472 q 667 471 672 472 q 658 469 663 469 q 650 468 653 468 q 643 469 647 468 q 632 476 639 469 q 619 479 625 479 q 608 472 613 479 q 579 465 596 465 q 552 467 564 465 q 529 469 540 469 q 519 469 525 469 q 427 471 471 471 q 339 472 383 471 q 356 431 347 451 q 368 388 365 411 q 371 376 368 381 q 376 365 374 371 q 378 357 378 360 q 379 354 379 354 q 374 343 379 349 q 374 338 374 340 q 382 325 374 328 q 399 292 399 313 q 404 254 399 271 m 885 283 q 888 299 888 286 q 889 311 888 311 l 889 269 q 893 275 892 271 q 894 282 894 279 q 896 325 896 303 l 896 400 q 897 410 896 407 q 897 415 897 414 q 896 424 897 419 q 894 447 894 438 q 896 464 894 457 q 892 469 896 469 q 889 467 889 469 q 888 465 889 465 l 888 454 q 885 467 888 463 l 885 444 l 888 436 l 888 425 q 886 418 886 421 q 887 415 886 417 q 888 407 888 414 l 888 314 q 886 299 888 306 q 885 283 886 290 m 233 244 q 233 247 233 246 q 232 259 233 251 q 231 271 231 267 q 232 274 231 274 q 235 256 233 268 q 238 242 236 244 q 241 240 240 242 q 244 236 242 238 q 243 240 243 239 q 243 240 243 240 q 244 240 244 240 q 246 240 244 240 q 246 242 246 240 q 244 246 246 243 q 235 288 240 268 q 224 332 231 308 q 222 339 224 335 q 219 346 221 343 q 218 349 218 347 q 219 349 218 349 q 219 351 219 350 q 218 351 219 351 q 217 361 218 357 q 215 374 215 368 q 211 385 214 379 q 203 407 207 397 q 200 424 200 417 q 194 428 196 428 q 192 425 192 426 q 192 425 192 425 q 193 425 193 425 q 190 424 193 424 l 192 411 q 189 418 190 415 q 186 424 188 421 q 188 417 186 421 q 192 401 189 413 l 196 393 l 196 385 q 197 382 197 383 q 199 373 199 375 q 203 364 200 371 q 213 325 207 349 q 222 289 218 301 q 225 278 225 283 l 228 271 q 231 260 229 265 q 233 244 232 253 z "},"b":{"ha":1081,"x_min":43,"x_max":1053,"o":"m 983 663 q 965 657 978 657 q 938 656 951 657 q 915 653 925 656 q 906 643 906 650 q 906 640 906 642 q 917 640 911 640 q 931 641 922 640 q 953 642 940 642 q 977 639 965 642 q 996 626 989 636 q 1008 610 996 617 q 1033 599 1021 604 q 1049 590 1044 594 q 1053 582 1053 585 q 1044 569 1053 576 q 1035 554 1040 557 q 1022 550 1029 551 q 1012 538 1013 549 q 1010 515 1011 526 q 1006 497 1010 504 q 989 490 1001 490 q 981 490 986 490 q 972 489 976 489 l 968 489 q 960 488 964 489 l 956 479 q 942 469 944 476 q 929 456 939 461 q 925 446 925 451 q 929 436 925 442 q 935 413 933 419 q 936 400 936 406 q 935 389 936 396 q 929 373 933 382 q 919 349 925 364 q 892 238 908 299 q 861 124 876 178 q 883 114 876 118 q 889 106 889 110 q 881 92 889 100 q 871 76 876 79 q 858 72 865 74 q 848 60 849 71 q 847 38 847 49 q 842 19 846 26 q 825 13 838 13 q 817 13 822 13 q 735 1 761 4 q 693 -2 708 -1 q 667 -3 678 -3 q 644 -2 656 -3 q 622 -1 633 -1 q 561 -3 599 -1 q 551 -3 556 -3 q 529 -5 542 -3 q 501 -7 517 -7 q 472 0 485 -7 q 462 7 468 7 q 449 4 456 7 q 438 -3 443 -3 q 431 -4 433 -4 q 423 -3 428 -4 q 413 -1 418 -3 q 406 0 408 0 q 396 -1 400 0 q 367 -4 381 -4 q 335 -1 354 -4 q 290 4 317 1 q 281 -8 289 0 q 267 -17 272 -8 q 256 -37 261 -26 q 247 -56 251 -47 q 236 -64 243 -64 q 224 -57 231 -64 q 208 -47 211 -53 q 204 -35 206 -42 q 192 -24 203 -25 q 169 -23 181 -24 q 151 -18 158 -22 q 144 -1 144 -14 q 144 7 144 3 l 144 10 q 69 3 100 10 q 67 3 68 3 q 50 13 57 3 q 43 40 43 22 q 43 51 43 46 q 45 83 43 69 q 49 112 47 97 q 51 142 50 126 q 53 176 53 157 q 64 185 54 183 q 85 186 74 186 q 110 186 99 186 q 121 189 121 186 q 121 190 121 190 q 111 195 121 193 q 90 199 101 197 q 69 203 79 201 q 57 207 58 204 q 63 213 57 210 q 69 215 65 214 l 53 222 q 72 226 61 224 q 126 233 94 232 q 125 317 125 275 l 125 371 q 124 454 125 413 q 125 464 125 458 q 124 470 125 465 q 122 482 124 475 q 94 479 107 481 q 69 475 81 478 q 67 475 68 475 q 50 485 57 475 q 43 513 43 494 q 43 524 43 518 q 45 556 43 542 q 49 584 47 569 q 51 614 50 599 q 53 649 53 629 q 64 657 54 656 q 85 658 74 658 q 110 658 99 658 q 121 661 121 658 q 121 663 121 663 q 111 667 121 665 q 90 672 101 669 q 69 675 79 674 q 57 679 58 676 q 63 685 57 682 q 69 688 65 686 l 53 694 q 74 699 61 696 q 128 706 96 704 q 129 714 129 710 l 131 732 q 132 740 132 736 q 138 851 138 801 q 137 887 138 857 q 129 946 136 917 q 129 949 129 947 q 139 965 129 958 q 167 972 149 972 q 178 972 172 972 q 210 970 196 972 q 238 967 224 968 q 268 964 253 965 q 303 963 283 963 q 311 950 310 961 q 313 927 313 939 q 313 906 313 915 q 317 896 313 896 q 322 905 319 896 q 326 926 324 914 q 329 947 328 938 q 333 958 331 957 q 333 958 333 958 q 339 953 336 958 q 342 946 340 950 l 349 963 q 354 932 351 949 q 359 897 357 917 q 361 850 361 876 l 350 803 q 339 786 340 796 q 331 768 338 776 q 328 757 328 763 q 335 744 328 750 q 347 717 343 728 q 351 697 350 707 q 362 696 357 696 q 374 694 367 696 l 735 694 q 819 694 775 694 q 901 690 864 693 q 960 681 938 688 q 983 664 983 675 q 983 663 983 664 m 349 225 q 360 224 354 224 q 374 222 367 224 l 654 222 q 658 238 657 229 q 663 254 660 246 q 666 272 665 263 q 668 292 667 282 q 673 310 669 301 q 685 325 676 319 q 693 338 693 328 q 693 343 693 340 q 688 354 688 349 q 688 357 688 354 q 691 365 689 360 q 696 376 693 371 q 699 388 699 381 q 710 431 701 411 q 726 472 719 451 q 646 471 686 471 q 561 469 606 471 q 551 469 556 469 q 529 467 542 469 q 501 465 517 465 q 472 472 485 465 q 462 479 468 479 q 449 476 456 479 q 438 469 443 469 q 431 468 433 468 q 423 469 428 468 q 413 471 418 469 q 406 472 408 472 q 396 471 400 472 q 378 468 388 468 q 368 469 375 468 q 349 469 361 469 l 349 225 m 196 283 q 194 299 194 290 q 194 306 194 303 l 193 322 q 193 329 193 326 l 193 407 q 194 415 193 414 q 194 418 194 417 q 193 425 194 421 l 193 436 l 196 444 l 196 467 q 193 454 193 463 l 193 465 q 192 467 192 465 q 189 469 192 469 q 185 464 185 469 q 186 447 186 457 q 185 424 186 438 q 183 415 183 419 q 184 410 183 414 q 185 400 185 407 l 185 388 q 186 388 186 388 q 185 385 186 386 l 185 325 q 186 282 185 303 q 188 275 186 279 q 192 269 189 271 l 192 311 q 193 299 193 311 q 196 283 193 286 m 833 244 q 838 260 835 253 q 844 289 840 275 q 854 325 849 301 q 864 364 860 349 q 867 373 867 371 q 869 382 868 375 q 871 385 871 385 l 871 393 l 875 401 q 879 417 879 413 q 881 424 881 421 q 878 418 879 421 q 875 411 876 415 l 876 424 q 874 425 874 424 q 874 425 874 425 q 875 425 875 425 q 872 428 875 426 q 867 424 871 428 q 863 407 867 417 q 856 385 860 397 q 852 374 853 379 q 850 361 851 368 q 849 351 849 357 q 849 351 849 351 q 849 349 849 350 q 849 349 849 349 q 847 346 849 347 q 844 339 846 343 q 843 332 843 335 q 831 288 836 308 q 822 246 826 268 q 821 242 821 243 q 821 240 821 240 q 822 240 822 240 q 824 240 822 240 q 824 240 824 240 q 822 236 824 239 l 824 233 q 829 242 826 242 q 832 256 831 244 q 835 274 833 268 q 836 271 836 274 q 835 259 836 267 q 833 247 833 251 q 833 244 833 246 z "},"c":{"ha":1008,"x_min":43,"x_max":972,"o":"m 111 188 q 129 206 111 200 q 129 263 129 235 q 128 321 129 292 q 128 328 128 324 q 126 339 128 332 q 124 352 125 346 q 124 363 124 358 q 124 373 124 367 q 131 386 125 379 q 138 394 138 389 q 135 404 138 399 q 127 412 128 408 q 126 417 126 415 q 127 423 126 419 q 129 430 128 426 q 131 436 131 433 q 129 442 131 439 q 126 458 126 450 q 127 467 126 461 q 129 482 128 472 q 68 475 92 482 q 65 475 67 475 q 43 518 43 475 q 43 524 43 521 q 44 556 43 542 q 47 584 46 569 q 50 614 49 599 q 51 649 51 629 q 62 657 53 656 q 82 658 71 658 q 105 658 94 658 q 115 661 115 658 q 115 663 115 663 q 106 667 115 665 q 87 672 97 669 q 67 675 76 674 q 56 679 57 676 q 61 685 56 682 q 68 688 64 686 l 51 694 q 81 700 64 697 q 114 705 94 703 q 157 707 133 707 l 178 701 l 182 701 q 232 698 211 700 q 281 693 253 696 q 304 699 293 699 q 315 698 307 699 q 347 694 322 697 l 679 694 q 758 694 717 694 q 833 690 799 693 q 888 681 867 688 q 908 664 908 675 q 908 663 908 664 q 892 657 904 657 q 867 656 879 657 q 845 653 854 656 q 836 640 836 650 q 846 640 842 640 q 860 641 851 640 q 881 642 869 642 q 903 639 893 642 q 919 626 914 636 q 931 610 919 617 q 953 599 942 604 q 968 590 964 594 q 972 582 972 585 q 965 569 972 576 q 956 554 961 557 q 944 550 951 551 q 934 538 935 549 q 933 515 933 526 q 928 497 932 504 q 914 490 925 490 q 907 490 911 490 q 808 478 856 482 q 713 472 760 474 q 618 471 665 471 q 519 469 571 471 q 511 469 515 469 q 491 467 503 469 q 465 465 479 465 q 438 472 449 465 q 429 479 435 479 q 417 476 424 479 q 407 469 411 469 q 400 468 403 468 q 392 469 397 468 q 383 471 388 469 q 376 472 379 472 q 368 471 372 472 q 354 469 364 469 q 353 344 354 407 q 351 219 353 282 l 658 219 q 684 222 675 221 q 699 224 693 224 q 708 223 701 224 q 724 218 714 222 q 749 206 733 214 q 761 199 754 199 q 771 201 765 199 q 786 210 778 208 q 801 221 794 211 l 843 232 q 886 230 867 232 q 918 225 906 228 q 946 219 933 222 l 931 213 q 936 210 935 211 q 943 206 943 208 q 942 204 943 206 q 931 200 940 201 q 912 197 922 199 q 893 192 901 194 q 885 188 885 190 q 900 183 885 183 q 928 183 913 183 q 946 174 943 183 q 947 139 946 154 q 950 109 949 124 q 953 81 951 94 q 954 49 954 67 q 956 36 956 42 q 949 10 956 19 q 933 0 943 0 q 931 0 932 0 q 847 8 901 8 q 798 7 824 8 q 744 3 772 6 q 699 -3 718 0 q 665 -7 679 -7 q 638 -4 651 -7 q 632 -4 635 -4 q 624 -5 629 -4 q 615 -6 619 -6 q 607 -7 610 -7 q 600 -6 604 -7 q 590 1 596 -6 q 578 4 583 4 q 569 -3 574 4 q 556 -8 563 -7 q 543 -10 550 -10 q 518 -8 529 -10 q 499 -6 507 -6 q 490 -6 494 -6 q 410 -4 449 -4 q 333 -3 371 -4 q 321 -8 328 -8 q 317 -3 318 -6 l 297 -3 q 285 -19 294 -14 q 271 -26 276 -19 q 261 -40 265 -33 q 253 -53 257 -47 q 242 -60 249 -60 q 228 -54 235 -60 q 213 -48 215 -51 q 208 -39 210 -44 q 196 -31 207 -32 q 174 -30 185 -31 q 156 -26 163 -29 q 149 -14 149 -22 q 149 -7 149 -11 q 146 11 146 4 q 138 13 142 13 l 122 14 q 114 15 118 15 q 107 15 110 15 q 92 22 96 15 q 87 40 88 29 q 85 63 86 51 q 76 75 85 74 q 65 79 69 76 q 56 94 60 82 q 49 107 49 101 q 52 115 49 110 q 67 124 56 119 q 89 135 78 129 q 100 151 100 142 q 131 165 110 165 l 131 182 q 111 188 115 182 m 200 283 q 199 299 199 290 q 199 306 199 303 l 197 322 q 197 329 197 326 l 197 407 q 198 415 197 414 q 199 418 199 417 q 197 425 199 421 l 197 436 l 200 444 l 200 467 q 197 454 197 463 l 197 465 q 196 467 196 465 q 193 469 196 469 q 189 464 189 469 q 190 447 190 457 q 189 424 190 438 q 188 415 188 419 q 188 410 188 414 q 189 400 189 407 l 189 388 q 190 388 190 388 q 189 385 190 386 l 189 325 q 190 282 189 303 q 192 275 190 279 q 196 269 193 271 l 196 311 q 197 299 197 311 q 200 283 197 286 z "},"d":{"ha":1081,"x_min":28,"x_max":1038,"o":"m 926 4 q 925 6 926 6 l 924 8 q 922 10 924 10 q 914 11 918 11 q 903 10 908 11 q 890 -8 899 -3 q 876 -17 882 -8 q 866 -37 871 -26 q 857 -56 861 -47 q 846 -64 853 -64 q 833 -57 840 -64 q 818 -47 821 -53 q 814 -35 815 -42 q 802 -24 813 -25 q 781 -23 792 -24 q 762 -19 771 -22 q 753 0 753 -15 q 726 -3 736 -3 q 713 -4 717 -4 q 685 -1 699 -4 q 675 0 681 0 q 667 -1 672 0 q 658 -3 663 -3 q 650 -4 653 -4 q 643 -3 647 -4 q 632 4 639 -3 q 619 7 625 7 q 608 0 613 7 q 579 -7 596 -7 q 552 -5 564 -7 q 529 -3 540 -3 q 519 -3 525 -3 l 392 -3 q 363 -1 379 -3 q 324 4 347 1 q 264 13 301 7 q 256 13 260 13 q 240 19 244 13 q 234 38 235 26 q 233 60 233 49 q 222 72 232 71 q 210 76 215 74 q 200 92 204 79 q 192 106 192 100 q 198 114 192 110 q 219 124 204 118 q 188 238 204 178 q 161 349 172 299 q 151 373 156 364 q 147 389 147 382 q 146 400 146 396 q 147 413 146 406 q 151 436 147 419 q 157 446 157 442 q 151 456 157 451 q 139 469 142 461 q 125 479 136 476 l 121 488 q 113 489 117 489 l 108 489 q 100 490 104 489 q 92 490 96 490 q 76 497 81 490 q 70 515 71 504 q 69 538 69 526 q 58 550 68 549 q 46 554 51 551 q 36 569 40 557 q 28 582 28 576 q 32 590 28 585 q 48 599 36 594 q 72 610 60 604 q 85 626 85 617 q 103 639 92 636 q 128 642 115 642 q 150 641 140 642 q 165 640 160 640 q 175 640 171 640 q 175 643 175 642 q 165 653 175 650 q 142 656 156 656 q 116 657 129 657 q 97 663 103 657 q 97 664 97 664 q 120 681 97 675 q 180 690 143 688 q 261 694 217 693 q 346 694 306 694 l 707 694 q 724 697 717 696 q 738 697 731 697 q 739 708 739 703 l 740 729 q 742 740 742 735 q 747 851 747 801 q 747 887 747 857 q 739 946 746 917 q 739 949 739 947 q 749 965 739 958 q 776 972 758 972 q 788 972 782 972 q 819 970 806 972 q 848 967 833 968 q 878 964 863 965 q 913 963 893 963 q 921 950 919 961 q 922 927 922 939 q 922 906 922 915 q 926 896 922 896 q 931 905 929 896 q 935 926 933 914 q 939 947 938 938 q 943 958 940 957 q 943 958 943 958 q 949 953 946 958 q 951 946 950 950 l 958 963 q 964 932 961 949 q 969 897 967 917 q 971 850 971 876 l 960 803 q 949 786 950 796 q 940 768 947 776 q 938 757 938 763 q 944 744 938 750 q 955 722 951 732 q 960 704 958 713 q 989 701 976 703 q 1010 699 1001 700 q 1028 694 1019 696 l 1011 688 q 1018 685 1015 686 q 1024 679 1024 682 q 1024 679 1024 679 q 1013 675 1022 676 q 994 672 1004 674 q 974 668 983 669 q 961 664 964 667 l 960 661 q 972 658 963 658 q 994 658 982 658 q 1016 657 1006 658 q 1028 649 1026 656 q 1029 614 1028 629 q 1032 584 1031 599 q 1035 556 1033 569 q 1038 524 1038 542 q 1038 513 1038 518 q 1031 485 1038 494 q 1014 475 1024 475 q 1011 475 1013 475 q 988 479 1000 478 q 958 482 975 481 l 958 232 q 988 229 975 231 q 1010 226 1000 228 q 1028 222 1019 224 l 1011 215 q 1018 213 1015 214 q 1024 207 1024 210 q 1024 207 1024 207 q 1012 203 1022 204 q 990 199 1001 201 q 969 195 979 197 q 960 190 960 193 q 976 186 960 186 q 1008 186 992 186 q 1028 176 1025 186 q 1029 142 1028 157 q 1032 112 1031 126 q 1035 83 1033 97 q 1038 51 1038 69 q 1038 40 1038 46 q 1031 13 1038 22 q 1014 3 1024 3 q 1011 3 1013 3 q 938 10 981 10 q 926 4 933 4 m 426 222 l 707 222 q 723 224 717 224 q 736 225 729 225 q 734 347 735 288 q 733 469 733 407 q 714 469 721 469 q 704 468 707 468 q 685 471 694 468 q 675 472 681 472 q 667 471 672 472 q 658 469 663 469 q 650 468 653 468 q 643 469 647 468 q 632 476 639 469 q 619 479 625 479 q 608 472 613 479 q 579 465 596 465 q 552 467 564 465 q 529 469 540 469 q 519 469 525 469 q 435 471 475 471 q 354 471 394 471 q 370 431 361 451 q 382 388 379 411 q 385 376 382 381 q 390 365 388 371 q 392 357 392 360 q 393 354 393 354 q 388 343 393 349 q 388 338 388 340 q 396 325 388 328 q 413 292 413 313 q 418 254 413 271 q 422 238 421 246 q 426 222 424 229 m 885 283 q 888 299 888 286 q 889 311 888 311 l 889 269 q 893 275 892 271 q 894 282 894 279 q 896 325 896 303 l 896 400 q 897 410 896 407 q 897 415 897 414 q 896 424 897 419 q 894 447 894 438 q 896 464 894 457 q 892 469 896 469 q 889 467 889 469 q 888 465 889 465 l 888 454 q 885 467 888 463 l 885 444 l 888 436 l 888 425 q 886 418 886 421 q 887 415 886 417 q 888 407 888 414 l 888 314 q 886 299 888 306 q 885 283 886 290 m 247 244 q 247 247 247 246 q 246 259 247 251 q 244 271 244 267 q 246 274 244 274 q 249 256 247 268 q 251 242 250 244 q 255 240 254 242 q 258 236 256 238 q 257 240 257 239 q 257 240 257 240 q 258 240 258 240 q 260 240 258 240 q 260 242 260 240 q 258 246 260 243 q 249 288 254 268 q 238 332 244 308 q 236 339 238 335 q 233 346 235 343 q 232 349 232 347 q 233 349 232 349 q 233 351 233 350 q 232 351 233 351 q 231 361 232 357 q 228 374 229 368 q 225 385 228 379 q 217 407 221 397 q 214 424 214 417 q 208 428 210 428 q 206 425 206 426 q 206 425 206 425 q 207 425 207 425 q 204 424 207 424 l 206 411 q 203 418 204 415 q 200 424 201 421 q 201 417 200 421 q 206 401 203 413 l 210 393 l 210 385 q 211 382 211 383 q 213 373 213 375 q 217 364 214 371 q 226 325 221 349 q 236 289 232 301 q 239 278 239 283 l 242 271 q 244 260 243 265 q 247 244 246 253 z "},"e":{"ha":1013,"x_min":43,"x_max":957,"o":"m 317 -10 q 313 -3 315 -8 l 294 -3 q 281 -19 290 -15 q 267 -26 272 -19 q 257 -40 261 -33 q 249 -53 253 -47 q 238 -60 244 -60 q 224 -54 231 -60 q 208 -48 211 -51 q 204 -39 206 -44 q 192 -31 203 -32 q 169 -30 181 -31 q 151 -26 158 -29 q 144 -15 144 -24 q 144 -8 144 -12 q 143 -3 144 -6 l 142 8 q 140 14 142 11 q 137 15 138 14 q 133 15 136 15 q 125 15 129 15 q 110 22 114 15 q 105 40 106 29 q 103 63 104 51 q 93 75 103 74 q 81 79 86 76 q 71 94 75 82 q 64 107 64 101 q 67 115 64 110 q 83 124 71 119 q 106 135 94 129 q 118 151 118 142 l 126 160 q 125 238 125 199 q 124 317 125 276 q 124 324 124 319 q 122 334 124 328 q 120 347 121 340 q 119 357 119 353 q 120 367 119 361 q 126 381 121 374 q 133 388 133 383 q 131 399 133 393 q 123 406 124 403 q 122 411 122 410 q 123 417 122 414 q 125 424 124 421 q 126 431 126 428 q 125 436 126 433 q 124 456 124 446 q 124 470 124 461 q 128 494 125 479 q 95 493 110 494 q 69 489 81 492 q 67 489 68 489 q 50 498 57 489 q 43 524 43 507 q 43 535 43 529 q 49 592 44 568 q 53 654 53 617 q 63 661 54 660 q 83 663 72 663 q 110 663 99 663 q 121 665 121 663 q 121 667 121 667 q 111 671 121 669 q 90 674 101 672 q 69 678 79 676 q 57 682 58 679 q 63 686 57 683 q 69 689 65 688 l 53 697 q 83 704 67 701 q 115 708 99 707 q 142 710 131 710 q 167 708 154 710 q 203 706 181 708 q 240 700 226 703 q 286 696 264 696 q 311 697 297 696 q 343 699 325 699 q 374 697 358 699 q 468 699 422 699 q 535 698 490 699 q 651 697 579 697 q 708 697 679 697 q 764 696 736 697 l 768 696 q 808 694 788 696 q 849 690 829 693 l 863 690 q 903 690 886 690 q 931 685 919 689 q 947 671 942 681 q 951 643 951 661 l 950 640 q 948 622 949 635 q 947 597 947 610 q 944 573 946 583 q 939 561 943 563 l 939 404 q 937 355 938 381 q 928 314 936 329 q 929 307 929 310 q 917 297 929 299 q 761 275 838 283 q 607 258 685 267 q 590 256 599 258 l 578 253 q 561 250 569 250 q 544 254 553 250 q 539 260 542 260 q 537 259 539 260 q 529 256 535 258 q 506 252 518 253 q 481 251 493 251 q 416 249 449 251 q 351 238 383 247 l 349 238 l 349 219 l 371 219 q 483 220 442 219 q 546 221 524 221 q 636 219 589 221 q 663 222 654 221 q 679 224 672 224 q 690 223 683 224 q 708 218 697 222 q 735 206 718 214 q 747 199 740 199 q 757 201 751 199 q 774 210 765 208 q 790 221 783 211 l 836 232 q 882 230 863 232 q 917 225 901 228 q 946 219 933 222 l 931 213 q 938 210 935 211 q 943 204 943 207 q 943 204 943 204 q 932 200 942 201 q 910 197 922 199 q 890 192 899 194 q 881 188 881 190 q 897 183 881 183 q 928 183 913 183 q 946 174 944 183 q 947 139 946 154 q 950 109 949 124 q 953 81 951 94 q 956 49 956 67 q 957 36 957 42 q 950 10 957 19 q 933 0 943 0 q 931 0 932 0 q 842 8 900 8 q 789 7 817 8 q 731 3 761 6 q 681 -3 703 0 q 644 -7 660 -7 q 615 -4 631 -7 q 607 -4 611 -4 q 599 -5 604 -4 q 590 -6 594 -6 q 582 -7 585 -7 q 575 -6 579 -7 q 564 1 571 -6 q 551 4 557 4 q 542 -3 544 4 q 513 -10 529 -10 q 487 -8 499 -10 q 465 -6 475 -6 q 456 -6 460 -6 q 385 -4 415 -4 q 329 -4 356 -4 q 317 -10 325 -10 m 349 415 q 372 417 358 415 q 400 421 385 419 q 446 420 439 421 q 458 414 453 419 q 465 413 463 413 q 475 419 472 413 q 493 432 486 428 q 506 437 500 436 q 514 438 511 438 q 524 437 518 438 q 543 435 531 436 q 588 440 568 438 q 627 443 608 442 q 665 447 646 444 q 715 450 685 449 l 721 451 q 719 468 719 460 l 719 488 q 647 486 682 486 q 561 485 611 486 q 539 483 550 485 q 519 480 528 481 q 504 479 510 479 q 490 480 499 479 q 472 486 482 481 q 462 493 468 493 q 449 490 456 493 q 432 482 440 482 q 422 484 428 482 q 408 486 417 486 q 396 485 403 486 q 374 483 386 483 q 349 485 363 483 l 349 415 m 196 283 q 194 299 194 290 q 194 306 194 303 l 193 322 q 193 329 193 326 l 193 407 q 194 415 193 414 q 194 418 194 417 q 193 425 194 421 l 193 436 l 196 444 l 196 467 q 193 454 193 463 l 193 465 q 192 467 192 465 q 189 469 192 469 q 185 464 185 469 q 186 447 186 457 q 185 424 186 438 q 183 415 183 419 q 184 410 183 414 q 185 400 185 407 l 185 388 q 186 388 186 388 q 185 385 186 386 l 185 325 q 186 282 185 303 q 188 275 186 279 q 192 269 189 271 l 192 311 q 193 299 193 311 q 196 283 193 286 z "},"f":{"ha":918,"x_min":42,"x_max":903,"o":"m 317 15 q 311 34 311 21 q 310 60 311 47 q 307 83 310 74 q 297 93 304 93 q 294 93 296 93 q 294 83 294 89 q 295 68 294 78 q 296 46 296 58 q 293 22 296 33 q 281 3 290 10 q 267 -6 272 3 q 256 -26 261 -15 q 247 -44 251 -36 q 236 -53 243 -53 q 224 -46 231 -53 q 208 -36 211 -42 q 204 -24 206 -31 q 192 -13 203 -14 q 169 -12 181 -12 q 151 -7 158 -11 q 144 10 144 -3 q 144 18 144 14 q 134 112 138 65 q 128 204 131 158 q 65 197 90 204 q 63 197 64 197 q 47 207 53 197 q 42 232 42 217 q 43 246 42 239 q 47 306 44 282 q 50 371 50 331 q 60 379 51 378 q 78 381 68 381 q 99 381 89 381 q 108 383 108 381 q 108 385 108 385 q 100 390 108 388 q 82 394 92 392 q 64 397 72 396 q 54 401 56 399 q 60 407 54 404 q 65 410 61 408 l 50 417 q 69 421 58 419 q 124 428 92 426 l 124 465 q 124 474 124 469 q 122 490 124 481 q 120 508 121 500 q 119 522 119 517 q 120 536 119 528 q 126 554 121 544 q 133 565 133 558 q 131 578 133 571 q 123 589 124 585 q 122 596 122 593 q 123 603 122 599 q 125 613 124 608 q 126 621 126 618 q 125 631 126 626 q 124 661 124 646 q 126 699 124 676 q 132 751 129 721 q 133 761 132 758 q 67 754 92 761 q 64 754 65 754 q 48 764 54 754 q 42 790 42 774 q 43 803 42 796 q 44 835 43 821 q 47 863 46 849 q 50 893 49 878 q 51 928 51 908 q 60 936 53 935 q 79 938 68 938 q 102 938 92 938 q 113 942 113 938 q 103 947 113 944 q 84 951 94 949 q 65 954 74 953 q 54 958 56 956 q 60 964 54 961 q 67 967 63 965 l 51 974 q 79 979 64 976 q 110 984 92 982 q 153 986 129 986 l 163 983 l 178 983 q 228 979 207 982 q 278 974 250 976 q 299 978 289 978 q 308 977 301 978 q 339 974 315 976 q 431 975 382 975 q 503 974 454 975 q 618 974 553 974 q 694 973 654 974 q 766 969 733 972 q 819 960 799 967 q 840 942 840 954 q 824 936 836 936 q 800 935 813 936 q 779 932 788 935 q 771 922 771 929 q 771 919 771 921 q 781 919 775 919 q 794 920 785 919 q 814 921 803 921 q 835 918 825 921 q 851 906 846 915 q 863 890 851 896 q 885 878 874 883 q 899 869 896 874 q 903 861 903 864 q 896 849 903 856 q 887 833 892 836 q 875 829 882 831 q 866 817 867 828 q 865 794 865 806 q 860 776 864 783 q 846 769 857 769 q 839 769 843 769 q 751 757 789 761 q 678 751 713 753 q 606 750 643 750 q 519 749 569 750 q 510 749 515 749 q 485 747 500 749 q 456 744 471 744 q 426 751 438 744 q 417 758 424 758 q 404 756 411 758 q 395 748 399 749 q 389 747 392 747 q 382 748 386 747 q 374 750 378 749 q 367 751 369 751 q 358 750 363 751 q 348 749 353 749 q 339 749 343 749 q 349 723 346 733 q 353 703 353 713 q 351 681 353 693 q 349 653 350 669 q 350 586 350 624 q 349 524 350 567 q 349 417 349 482 q 426 418 386 418 q 485 417 446 418 q 579 417 525 417 q 649 416 613 417 q 717 413 686 415 q 767 403 747 410 q 786 385 786 397 q 771 379 782 379 q 749 378 760 379 q 729 375 738 378 q 721 365 721 372 q 721 363 721 364 q 729 363 725 363 q 742 363 735 363 q 760 364 750 364 q 781 361 771 364 q 796 349 790 358 q 806 333 796 339 q 827 322 817 326 q 841 312 838 317 q 844 304 844 307 q 838 292 844 299 q 830 276 835 279 q 818 272 825 274 q 809 260 810 271 q 808 238 808 249 q 803 219 807 226 q 790 213 800 213 q 783 213 788 213 q 703 200 738 204 q 636 194 668 196 q 569 193 604 193 q 489 192 535 193 q 481 192 485 192 q 458 190 471 192 q 429 188 444 188 q 403 194 411 188 q 394 201 400 201 q 382 199 389 201 q 368 190 375 190 q 362 192 367 190 q 347 194 357 193 q 346 127 347 160 q 342 69 344 94 q 333 30 339 44 q 318 15 326 15 q 317 15 318 15 m 204 464 q 203 479 203 471 q 203 486 203 483 l 201 503 q 201 510 201 507 l 201 588 q 202 596 201 594 q 203 599 203 597 q 201 606 203 601 l 201 617 l 204 625 l 204 647 q 201 635 201 643 l 201 646 q 200 648 200 646 q 197 650 200 650 q 193 644 193 650 q 194 628 194 638 q 193 604 194 618 q 192 596 192 600 q 192 591 192 594 q 193 581 193 588 l 193 568 q 194 568 194 568 q 193 565 194 567 l 193 506 q 194 463 193 483 q 196 456 194 460 q 200 450 197 451 l 200 492 q 201 479 201 492 q 204 464 201 467 z "},"g":{"ha":1071,"x_min":43,"x_max":1028,"o":"m 872 -157 q 858 -162 868 -162 q 839 -163 849 -162 q 822 -167 829 -164 q 815 -176 815 -169 q 815 -179 815 -178 q 822 -181 819 -181 q 833 -179 826 -181 q 849 -178 840 -178 q 867 -181 858 -178 q 881 -193 875 -183 q 890 -210 881 -204 q 908 -221 899 -215 q 919 -231 917 -226 q 922 -237 922 -235 q 917 -250 922 -243 q 910 -265 914 -262 q 900 -269 906 -268 q 892 -283 893 -272 q 892 -305 892 -293 q 888 -324 892 -317 q 876 -331 885 -331 q 869 -329 874 -331 q 715 -347 788 -346 q 561 -350 643 -349 q 554 -350 557 -350 q 538 -352 547 -350 q 518 -354 529 -354 q 496 -347 504 -354 q 489 -340 493 -340 q 479 -343 485 -340 q 472 -351 475 -350 q 465 -351 468 -351 q 459 -351 463 -351 q 452 -349 456 -350 q 446 -349 449 -349 q 440 -349 443 -349 q 418 -351 429 -351 q 391 -348 407 -351 q 353 -342 375 -344 q 308 -337 329 -339 q 269 -336 288 -336 q 201 -344 225 -336 q 200 -344 200 -344 q 186 -335 192 -344 q 181 -310 181 -325 q 182 -296 181 -303 q 178 -264 182 -278 q 172 -235 175 -250 q 165 -206 168 -221 q 161 -171 161 -190 q 173 -162 163 -164 q 197 -161 183 -161 q 226 -161 213 -161 q 239 -158 239 -161 q 239 -157 239 -157 q 232 -152 239 -154 q 217 -148 225 -150 q 201 -144 208 -146 q 192 -140 193 -143 q 196 -135 192 -139 q 201 -132 199 -133 l 189 -125 q 211 -119 199 -122 q 238 -115 222 -117 q 272 -112 253 -114 l 307 -124 q 319 -135 313 -133 q 332 -143 325 -136 q 340 -146 336 -146 q 350 -139 347 -146 q 369 -127 361 -131 q 382 -123 376 -124 q 392 -122 388 -122 q 401 -123 396 -122 q 419 -125 407 -124 q 419 -122 419 -122 q 418 -118 418 -121 q 415 -81 415 -100 q 417 -52 415 -71 q 421 -4 418 -33 q 377 -4 399 -4 q 333 -3 356 -4 q 321 -8 328 -8 q 317 -3 318 -6 l 297 -3 q 285 -19 294 -14 q 271 -26 276 -19 q 261 -40 265 -33 q 253 -53 257 -47 q 242 -60 249 -60 q 228 -54 235 -60 q 213 -48 215 -51 q 208 -39 210 -44 q 196 -31 207 -32 q 174 -30 185 -31 q 156 -26 163 -29 q 149 -14 149 -22 q 149 -7 149 -11 q 146 11 146 4 q 138 13 142 13 l 122 14 q 114 15 118 15 q 107 15 110 15 q 92 22 96 15 q 87 40 88 29 q 85 63 86 51 q 76 75 85 74 q 65 79 69 76 q 56 94 60 82 q 49 107 49 101 q 52 115 49 110 q 67 124 56 119 q 89 135 78 129 q 100 151 100 142 q 131 165 110 165 l 131 182 q 111 188 115 182 q 129 206 111 200 q 129 263 129 235 q 128 321 129 292 q 128 328 128 324 q 126 339 128 332 q 124 352 125 346 q 124 363 124 358 q 124 373 124 367 q 131 386 125 379 q 138 394 138 389 q 135 404 138 399 q 127 412 128 408 q 126 417 126 415 q 127 423 126 419 q 129 430 128 426 q 131 436 131 433 q 129 442 131 439 q 126 458 126 450 q 127 467 126 461 q 129 482 128 472 q 68 475 92 482 q 65 475 67 475 q 43 518 43 475 q 43 524 43 521 q 44 556 43 542 q 47 584 46 569 q 50 614 49 599 q 51 649 51 629 q 62 657 53 656 q 82 658 71 658 q 105 658 94 658 q 115 661 115 658 q 115 663 115 663 q 106 667 115 665 q 87 672 97 669 q 67 675 76 674 q 56 679 57 676 q 61 685 56 682 q 68 688 64 686 l 51 694 q 81 700 64 697 q 114 705 94 703 q 157 707 133 707 l 178 701 l 182 701 q 232 698 211 700 q 281 693 253 696 q 304 699 293 699 q 315 698 307 699 q 347 694 322 697 l 711 694 q 750 705 739 694 q 772 738 761 715 q 790 779 782 761 q 815 829 799 797 q 831 861 831 857 q 838 878 832 865 q 846 895 843 890 q 853 913 849 900 q 872 924 860 924 q 906 907 889 924 q 940 889 924 900 q 983 857 956 878 q 999 847 993 847 q 1013 842 1006 846 q 1019 839 1015 840 q 1024 838 1024 838 q 1009 832 1024 835 q 994 825 994 829 q 1010 815 994 821 q 1025 797 1025 808 q 1021 785 1025 792 q 985 751 985 768 q 985 747 985 749 q 953 690 972 721 q 962 677 960 682 q 964 663 964 672 q 939 657 958 657 q 942 642 939 653 q 961 638 953 640 q 975 626 969 635 q 986 610 975 617 q 1008 599 997 604 q 1024 590 1019 594 q 1028 582 1028 585 q 1021 569 1028 576 q 1012 554 1017 557 q 1000 550 1007 551 q 990 538 990 549 q 988 515 989 526 q 984 497 988 504 q 969 490 981 490 q 963 490 967 490 l 938 486 q 936 471 938 479 q 933 450 935 463 q 935 386 935 424 q 934 326 935 368 q 933 231 933 283 q 963 228 950 229 q 983 224 975 226 q 1001 219 993 221 l 986 213 q 992 210 990 211 q 999 206 999 208 q 997 204 999 206 q 987 200 996 201 q 967 197 978 199 q 949 192 957 194 q 940 188 940 190 q 956 183 940 183 q 983 183 968 183 q 1001 174 999 183 q 1003 139 1001 154 q 1006 109 1004 124 q 1008 81 1007 94 q 1010 49 1010 67 q 1011 36 1011 42 q 1005 10 1011 19 q 989 0 999 0 q 986 0 988 0 q 914 7 958 7 q 901 3 908 3 q 897 8 899 6 q 878 7 892 7 q 865 -8 875 -3 q 851 -14 857 -8 q 842 -27 846 -19 q 833 -40 838 -35 q 822 -46 829 -46 q 808 -40 815 -46 q 793 -35 796 -37 q 789 -26 790 -32 q 778 -19 788 -21 q 758 -18 768 -18 q 739 -15 747 -18 q 729 -4 731 -12 q 701 -6 711 -6 q 689 -7 692 -7 q 665 -4 676 -7 q 657 -3 661 -3 q 652 -3 656 -3 q 642 -6 649 -4 q 643 -40 643 -24 q 642 -66 643 -49 q 639 -107 642 -83 l 640 -125 l 689 -125 q 751 -126 718 -125 q 810 -129 783 -126 q 855 -138 838 -132 q 872 -157 872 -144 m 353 219 l 686 219 q 699 221 693 221 q 710 222 704 221 q 710 270 710 246 q 708 318 710 294 q 708 325 708 321 q 707 335 708 329 q 705 348 706 342 q 704 358 704 354 q 705 368 704 363 q 711 382 706 374 q 718 389 718 385 q 715 399 718 393 q 708 406 708 403 q 707 410 707 408 q 708 415 707 413 q 710 422 708 418 q 711 428 711 425 q 710 433 711 431 q 707 449 707 442 q 708 456 707 450 q 710 472 708 461 q 649 471 679 471 l 608 471 q 547 469 578 471 q 538 469 543 469 q 510 467 528 469 q 472 465 492 465 q 438 472 449 465 q 429 479 435 479 q 417 476 424 479 q 407 469 411 469 q 400 468 403 468 q 392 469 397 468 q 383 471 388 469 q 376 472 379 472 q 368 471 372 472 q 354 469 364 469 q 354 467 354 468 l 353 458 l 353 219 m 200 283 q 199 299 199 290 q 199 306 199 303 l 197 322 q 197 329 197 326 l 197 407 q 198 415 197 414 q 199 418 199 417 q 197 425 199 421 l 197 436 l 200 444 l 200 467 q 197 454 197 463 l 197 465 q 196 467 196 465 q 193 469 196 469 q 189 464 189 469 q 190 447 190 457 q 189 424 190 438 q 188 415 188 419 q 188 410 188 414 q 189 400 189 407 l 189 388 q 190 388 190 388 q 189 385 190 386 l 189 325 q 190 282 189 303 q 192 275 190 279 q 196 269 193 271 l 196 311 q 197 299 197 311 q 200 283 197 286 m 874 265 q 872 281 872 272 q 872 288 872 285 l 871 304 q 871 311 871 308 l 871 389 q 872 397 871 396 q 872 400 872 399 q 871 407 872 403 l 871 418 l 874 426 l 874 449 q 871 436 871 444 l 871 447 q 869 449 869 447 q 867 451 869 451 q 863 446 863 451 q 864 429 864 439 q 863 406 864 419 q 861 397 861 401 q 862 392 861 396 q 863 382 863 389 l 863 369 q 864 369 864 369 q 863 367 864 368 l 863 307 q 864 264 863 285 q 865 257 864 261 q 869 251 867 253 l 869 293 q 871 281 871 293 q 874 265 871 268 z "},"h":{"ha":1101,"x_min":43,"x_max":1067,"o":"m 317 15 q 311 34 311 21 q 310 60 311 47 q 307 83 310 74 q 297 93 304 93 q 294 93 296 93 q 294 83 294 89 q 295 68 294 78 q 296 46 296 58 q 293 22 296 33 q 281 3 290 10 q 267 -6 272 3 q 256 -26 261 -15 q 247 -44 251 -36 q 236 -53 243 -53 q 224 -46 231 -53 q 208 -36 211 -42 q 204 -24 206 -31 q 192 -13 203 -14 q 169 -12 181 -12 q 151 -7 158 -11 q 144 10 144 -3 q 144 18 144 14 q 127 242 128 131 q 124 465 126 353 l 124 482 q 94 479 107 481 q 69 475 81 478 q 67 475 68 475 q 50 485 57 475 q 43 513 43 494 q 43 524 43 518 q 45 556 43 542 q 49 584 47 569 q 51 614 50 599 q 53 649 53 629 q 64 657 54 656 q 85 658 74 658 q 110 658 99 658 q 121 661 121 658 q 121 663 121 663 q 111 667 121 665 q 90 672 101 669 q 69 675 79 674 q 57 679 58 676 q 63 685 57 682 q 69 688 65 686 l 53 694 q 72 699 61 696 q 126 706 94 704 q 130 728 129 717 q 132 751 131 740 q 138 863 138 813 q 137 898 138 868 q 129 957 136 928 q 129 960 129 958 q 139 976 129 969 q 167 983 149 983 q 178 983 172 983 q 210 981 196 983 q 238 978 224 979 q 268 975 253 976 q 303 974 283 974 q 311 961 310 972 q 313 938 313 950 q 313 917 313 926 q 317 907 313 907 q 322 916 319 907 q 326 937 324 925 q 329 958 328 949 q 333 969 331 968 q 333 969 333 969 q 339 964 336 969 q 342 957 340 961 l 349 974 q 354 943 351 960 q 359 908 357 928 q 361 861 361 888 l 350 814 q 339 797 340 807 q 331 779 338 788 q 328 768 328 774 q 335 756 328 761 q 349 724 346 735 q 351 704 351 714 q 351 697 351 701 q 362 696 357 696 q 374 694 367 696 l 749 694 q 809 694 778 694 q 869 692 840 693 q 924 690 899 692 q 968 683 950 688 l 969 685 l 969 683 q 997 664 997 674 q 997 663 997 663 q 976 657 992 657 q 978 650 978 654 q 979 640 978 646 q 1010 626 1000 640 q 1022 610 1010 617 q 1047 599 1035 604 q 1063 590 1058 594 q 1067 582 1067 585 q 1058 569 1067 576 q 1049 554 1054 557 q 1036 550 1043 551 q 1026 538 1026 549 q 1024 515 1025 526 q 1019 497 1024 504 q 1003 490 1015 490 q 994 490 1000 490 q 986 489 990 489 l 982 489 q 974 488 978 489 q 972 472 974 481 q 969 453 971 464 l 969 171 q 969 109 969 142 q 965 50 968 76 q 956 7 963 24 q 939 -10 950 -10 q 938 -10 939 -10 q 932 3 932 -6 q 931 22 932 13 q 928 39 931 32 q 918 46 925 46 q 915 46 917 46 q 915 39 915 43 q 916 28 915 35 q 917 11 917 21 q 914 -6 917 1 q 901 -19 911 -14 q 888 -26 893 -19 q 878 -40 882 -33 q 869 -53 874 -47 q 858 -60 865 -60 q 844 -54 851 -60 q 829 -48 832 -51 q 825 -39 826 -44 q 813 -31 824 -32 q 790 -30 801 -31 q 772 -26 779 -29 q 765 -15 765 -24 q 765 -8 765 -12 q 748 154 749 74 q 744 317 747 235 q 744 324 744 319 q 743 334 744 328 q 741 347 742 340 q 740 357 740 353 q 741 367 740 361 q 747 381 742 374 q 754 388 754 383 q 751 399 754 393 q 744 406 744 403 q 743 411 743 410 q 744 417 743 414 q 746 424 744 421 q 747 431 747 428 q 746 436 747 433 q 743 451 743 444 q 744 458 743 453 q 744 472 744 463 q 662 471 704 471 q 575 469 619 471 q 564 469 569 469 q 539 467 554 469 q 506 465 524 465 q 472 472 485 465 q 462 479 468 479 q 449 476 456 479 q 438 469 443 469 q 431 468 433 468 q 423 469 428 468 q 413 471 418 469 q 406 472 408 472 q 396 471 400 472 q 378 468 388 468 q 368 469 375 468 q 349 469 361 469 l 349 264 q 348 179 349 224 q 344 98 347 135 q 335 38 342 61 q 318 15 329 15 q 317 15 318 15 m 935 639 q 940 640 936 640 q 946 656 943 643 q 933 654 936 656 q 935 639 933 643 m 196 283 q 194 299 194 290 q 194 306 194 303 l 193 322 q 193 329 193 326 l 193 407 q 194 415 193 414 q 194 418 194 417 q 193 425 194 421 l 193 436 l 196 444 l 196 467 q 193 454 193 463 l 193 465 q 192 467 192 465 q 189 469 192 469 q 185 464 185 469 q 186 447 186 457 q 185 424 186 438 q 183 415 183 419 q 184 410 183 414 q 185 400 185 407 l 185 388 q 186 388 186 388 q 185 385 186 386 l 185 325 q 186 282 185 303 q 188 275 186 279 q 192 269 189 271 l 192 311 q 193 299 193 311 q 196 283 193 286 z "},"i":{"ha":368,"x_min":64,"x_max":306,"o":"m 264 769 q 258 777 258 771 q 258 791 258 783 q 256 804 258 799 q 244 810 254 810 q 243 806 243 808 q 244 801 243 804 q 244 796 244 799 q 244 788 244 793 q 240 778 243 783 q 226 771 236 772 q 210 769 217 771 q 199 765 204 767 q 189 762 193 763 q 183 761 185 761 q 168 764 176 761 q 153 766 156 765 q 149 768 150 767 q 136 771 147 771 q 114 771 125 771 q 96 772 103 771 q 89 776 89 774 q 89 778 89 776 q 77 795 81 789 q 72 806 74 801 q 71 817 71 811 q 69 836 71 824 q 72 851 71 840 q 74 874 74 863 q 73 897 74 886 q 69 908 72 907 q 68 915 68 913 q 71 922 68 918 q 76 933 74 926 q 79 953 79 944 q 78 961 79 956 q 76 972 78 967 q 75 978 75 976 q 76 981 75 979 q 85 983 76 982 q 134 983 113 983 q 174 982 156 982 q 210 981 193 982 q 247 981 228 981 q 270 980 269 981 q 272 979 271 979 q 278 981 274 979 q 283 979 282 981 q 286 978 285 979 l 293 981 q 299 975 296 978 q 303 968 301 972 q 306 957 306 964 l 294 947 q 290 935 290 940 q 292 928 290 932 q 294 919 294 924 q 293 913 294 915 q 294 885 294 903 q 294 856 294 876 q 293 819 293 835 q 290 785 292 801 q 268 769 289 769 q 264 769 265 769 m 261 -8 q 256 5 256 -4 q 255 24 256 14 q 251 40 254 33 q 242 47 249 47 q 239 47 240 47 q 239 40 239 44 q 240 29 239 36 q 240 13 240 22 q 238 -6 240 3 q 225 -19 235 -14 q 211 -26 217 -19 q 201 -40 206 -33 q 193 -53 197 -47 q 182 -60 189 -60 q 168 -54 175 -60 q 153 -48 156 -51 q 149 -39 150 -44 q 136 -31 147 -32 q 114 -30 125 -31 q 96 -26 103 -29 q 89 -14 89 -22 q 89 -7 89 -11 q 72 156 72 75 q 68 321 71 238 q 68 328 68 324 q 67 339 68 332 q 65 352 65 346 q 64 363 64 358 q 65 373 64 367 q 71 386 65 379 q 78 394 78 389 q 75 404 78 399 q 67 412 68 408 q 67 417 67 415 q 67 423 67 419 q 69 430 68 426 q 71 436 71 433 q 69 442 71 439 q 68 465 68 454 q 71 492 68 476 q 76 531 74 508 q 82 613 82 576 q 81 638 82 617 q 74 682 81 660 q 74 683 74 683 q 83 696 74 690 q 113 701 93 701 q 122 701 118 701 q 154 700 140 701 q 183 697 168 699 q 213 694 197 696 q 247 693 228 693 q 256 684 254 692 q 257 668 257 676 q 257 653 257 660 q 261 646 257 646 q 266 652 264 646 q 270 667 268 658 q 274 682 272 675 q 278 690 275 689 q 279 692 279 692 q 283 686 282 692 q 286 682 285 685 l 293 693 q 299 671 296 683 q 303 646 301 660 q 306 613 306 632 l 294 576 q 283 565 285 571 q 275 551 282 558 q 272 543 272 547 q 279 535 272 538 q 292 514 288 522 q 297 501 296 506 q 297 493 297 496 q 296 480 297 488 q 293 458 294 472 l 293 174 q 292 110 293 143 q 289 51 292 78 q 280 8 286 25 q 263 -8 274 -8 q 261 -8 263 -8 m 140 283 q 139 299 139 290 q 139 306 139 303 l 138 322 q 138 329 138 326 l 138 407 q 138 415 138 414 q 139 418 139 417 q 138 425 139 421 l 138 436 l 140 444 l 140 467 q 138 454 138 463 l 138 465 q 136 467 136 465 q 133 469 136 469 q 129 464 129 469 q 131 447 131 457 q 129 424 131 438 q 128 415 128 419 q 128 410 128 414 q 129 400 129 407 l 129 388 q 131 388 131 388 q 129 385 131 386 l 129 325 q 131 282 129 303 q 132 275 131 279 q 136 269 133 271 l 136 311 q 138 299 138 311 q 140 283 138 286 z "}}}
